<svg width="21" height="22" viewBox="0 0 21 22" fill="none" xmlns="http://www.w3.org/2000/svg">
<g id="elements">
<g id="Rectangle 2173">
<path d="M11.5 0.200488C11.0582 0.200488 10.7 0.558661 10.7 1.00049C10.7 1.44232 11.0582 1.80049 11.5 1.80049V0.200488ZM5.26478 20.7483L4.9998 21.5031L4.9998 21.5031L5.26478 20.7483ZM2.76796 18.3983L2.02424 18.6931L2.02424 18.6931L2.76796 18.3983ZM19.0311 16.4467L18.2873 16.152L18.2873 16.152L19.0311 16.4467ZM14.6616 20.5591L14.3967 19.8043L14.3967 19.8043L14.6616 20.5591ZM17.7969 1.79832L18.2577 1.14434L18.2577 1.14434L17.7969 1.79832ZM18.6523 2.60338L18.0262 3.10137L18.0262 3.10137L18.6523 2.60338ZM11.5 1.80049H11.7727V0.200488H11.5V1.80049ZM18.7 8.27322V10.8187H20.3V8.27322H18.7ZM3.3 15.1823V11.0005H1.7V15.1823H3.3ZM8.68182 20.2005C6.81505 20.2005 6.08702 20.1891 5.52976 19.9934L4.9998 21.5031C5.87941 21.8119 6.95045 21.8005 8.68182 21.8005V20.2005ZM1.7 15.1823C1.7 16.0184 1.6996 16.6841 1.73523 17.2244C1.77134 17.7718 1.84686 18.2455 2.02424 18.6931L3.51169 18.1036C3.4211 17.875 3.36265 17.5873 3.33176 17.1191C3.3004 16.6437 3.3 16.0395 3.3 15.1823H1.7ZM5.52976 19.9934C4.58179 19.6607 3.85263 18.9639 3.51169 18.1036L2.02424 18.6931C2.54487 20.0069 3.63779 21.025 4.9998 21.5031L5.52976 19.9934ZM18.7 10.8187C18.7 12.3108 18.6996 13.3912 18.6431 14.2475C18.5871 15.0966 18.4784 15.6698 18.2873 16.152L19.7748 16.7415C20.0527 16.0403 20.1784 15.2811 20.2396 14.3528C20.3004 13.4317 20.3 12.2897 20.3 10.8187H18.7ZM8.68182 21.8005C11.7625 21.8005 13.5082 21.8119 14.9266 21.314L14.3967 19.8043C13.3006 20.1891 11.8979 20.2005 8.68182 20.2005V21.8005ZM18.2873 16.152C17.6233 17.8276 16.2109 19.1674 14.3967 19.8043L14.9266 21.314C17.1549 20.5318 18.9311 18.8705 19.7748 16.7415L18.2873 16.152ZM11.7727 1.80049C13.4205 1.80049 14.5945 1.80151 15.5002 1.89591C16.3932 1.98898 16.9289 2.16538 17.3362 2.45231L18.2577 1.14434C17.5325 0.633429 16.6868 0.410915 15.6661 0.304528C14.6581 0.19947 13.3861 0.200488 11.7727 0.200488V1.80049ZM20.3 8.27322C20.3 6.7579 20.3013 5.55161 20.1886 4.59347C20.0736 3.61652 19.8314 2.8006 19.2784 2.10539L18.0262 3.10137C18.3209 3.47194 18.5025 3.95625 18.5995 4.78044C18.6987 5.62343 18.7 6.71917 18.7 8.27322H20.3ZM17.3362 2.45231C17.5994 2.6378 17.8315 2.85663 18.0262 3.10137L19.2784 2.10539C18.9873 1.73939 18.6433 1.41603 18.2577 1.14434L17.3362 2.45231Z" fill="black"/>
<path d="M11.5 0.200488C11.0582 0.200488 10.7 0.558661 10.7 1.00049C10.7 1.44232 11.0582 1.80049 11.5 1.80049V0.200488ZM5.26478 20.7483L4.9998 21.5031L4.9998 21.5031L5.26478 20.7483ZM2.76796 18.3983L2.02424 18.6931L2.02424 18.6931L2.76796 18.3983ZM19.0311 16.4467L18.2873 16.152L18.2873 16.152L19.0311 16.4467ZM14.6616 20.5591L14.3967 19.8043L14.3967 19.8043L14.6616 20.5591ZM17.7969 1.79832L18.2577 1.14434L18.2577 1.14434L17.7969 1.79832ZM18.6523 2.60338L18.0262 3.10137L18.0262 3.10137L18.6523 2.60338ZM11.5 1.80049H11.7727V0.200488H11.5V1.80049ZM18.7 8.27322V10.8187H20.3V8.27322H18.7ZM3.3 15.1823V11.0005H1.7V15.1823H3.3ZM8.68182 20.2005C6.81505 20.2005 6.08702 20.1891 5.52976 19.9934L4.9998 21.5031C5.87941 21.8119 6.95045 21.8005 8.68182 21.8005V20.2005ZM1.7 15.1823C1.7 16.0184 1.6996 16.6841 1.73523 17.2244C1.77134 17.7718 1.84686 18.2455 2.02424 18.6931L3.51169 18.1036C3.4211 17.875 3.36265 17.5873 3.33176 17.1191C3.3004 16.6437 3.3 16.0395 3.3 15.1823H1.7ZM5.52976 19.9934C4.58179 19.6607 3.85263 18.9639 3.51169 18.1036L2.02424 18.6931C2.54487 20.0069 3.63779 21.025 4.9998 21.5031L5.52976 19.9934ZM18.7 10.8187C18.7 12.3108 18.6996 13.3912 18.6431 14.2475C18.5871 15.0966 18.4784 15.6698 18.2873 16.152L19.7748 16.7415C20.0527 16.0403 20.1784 15.2811 20.2396 14.3528C20.3004 13.4317 20.3 12.2897 20.3 10.8187H18.7ZM8.68182 21.8005C11.7625 21.8005 13.5082 21.8119 14.9266 21.314L14.3967 19.8043C13.3006 20.1891 11.8979 20.2005 8.68182 20.2005V21.8005ZM18.2873 16.152C17.6233 17.8276 16.2109 19.1674 14.3967 19.8043L14.9266 21.314C17.1549 20.5318 18.9311 18.8705 19.7748 16.7415L18.2873 16.152ZM11.7727 1.80049C13.4205 1.80049 14.5945 1.80151 15.5002 1.89591C16.3932 1.98898 16.9289 2.16538 17.3362 2.45231L18.2577 1.14434C17.5325 0.633429 16.6868 0.410915 15.6661 0.304528C14.6581 0.19947 13.3861 0.200488 11.7727 0.200488V1.80049ZM20.3 8.27322C20.3 6.7579 20.3013 5.55161 20.1886 4.59347C20.0736 3.61652 19.8314 2.8006 19.2784 2.10539L18.0262 3.10137C18.3209 3.47194 18.5025 3.95625 18.5995 4.78044C18.6987 5.62343 18.7 6.71917 18.7 8.27322H20.3ZM17.3362 2.45231C17.5994 2.6378 17.8315 2.85663 18.0262 3.10137L19.2784 2.10539C18.9873 1.73939 18.6433 1.41603 18.2577 1.14434L17.3362 2.45231Z" fill="black"/>
</g>
<g id="Vector">
<path d="M19.5 11C19.5 12.8409 18.0076 14.3333 16.1667 14.3333C15.5009 14.3333 14.716 14.2167 14.0686 14.3901C13.4935 14.5442 13.0442 14.9935 12.8901 15.5686C12.7167 16.216 12.8333 17.0009 12.8333 17.6667C12.8333 19.5076 11.3409 21 9.5 21" stroke="black" stroke-width="1.6" stroke-linecap="round"/>
<path d="M19.5 11C19.5 12.8409 18.0076 14.3333 16.1667 14.3333C15.5009 14.3333 14.716 14.2167 14.0686 14.3901C13.4935 14.5442 13.0442 14.9935 12.8901 15.5686C12.7167 16.216 12.8333 17.0009 12.8333 17.6667C12.8333 19.5076 11.3409 21 9.5 21" stroke="black" stroke-width="1.6" stroke-linecap="round"/>
</g>
<g id="Vector_2">
<path d="M9.50049 5.00049L1.50049 5.00049M5.50049 1.00049V9.00049" stroke="black" stroke-width="1.6" stroke-linecap="round"/>
<path d="M9.50049 5.00049L1.50049 5.00049M5.50049 1.00049V9.00049" stroke="black" stroke-width="1.6" stroke-linecap="round"/>
</g>
</g>
</svg>
