<svg width="16" height="16" viewBox="0 0 16 16" fill="none" xmlns="http://www.w3.org/2000/svg">
<g clip-path="url(#clip0_443_2009)">
<path d="M9.33341 1.33331C10.6667 1.33331 11.3334 2.00665 11.3334 3.35331V8.05331C11.3334 9.37998 10.3934 9.89331 9.24008 9.19998L8.36008 8.66665C8.16008 8.54665 7.84008 8.54665 7.64008 8.66665L6.76008 9.19998C5.60675 9.89331 4.66675 9.37998 4.66675 8.05331V3.35331C4.66675 2.00665 5.33341 1.33331 6.66675 1.33331H9.33341Z" stroke="#FAFEFF" stroke-linecap="round" stroke-linejoin="round"/>
<path d="M4.54659 3.32664C2.27325 3.70664 1.33325 5.10664 1.33325 7.93331V9.95331C1.33325 13.32 2.66659 14.6666 5.99992 14.6666H9.99992C13.3333 14.6666 14.6666 13.32 14.6666 9.95331V7.93331C14.6666 5.05997 13.6933 3.65331 11.3333 3.30664" stroke="#FAFEFF" stroke-linecap="round" stroke-linejoin="round"/>
</g>
<defs>
<clipPath id="clip0_443_2009">
<rect width="16" height="16" fill="white"/>
</clipPath>
</defs>
</svg>
