<svg width="32" height="26" viewBox="0 0 32 26" fill="none" xmlns="http://www.w3.org/2000/svg">
<path d="M10.3159 11.6667L14.9475 15.6667L30.3861 2.33333M21.1229 1H8.46326C5.86934 1 4.57237 1 3.58162 1.43597C2.71013 1.81947 2.00159 2.43139 1.55755 3.18404C1.05273 4.03969 1.05273 5.15979 1.05273 7.4V18.6C1.05273 20.8402 1.05273 21.9603 1.55755 22.816C2.00159 23.5686 2.71013 24.1805 3.58162 24.564C4.57237 25 5.86933 25 8.46326 25H21.4317C24.0256 25 25.3226 25 26.3133 24.564C27.1848 24.1805 27.8934 23.5686 28.3374 22.816C28.8422 21.9603 28.8422 20.8402 28.8422 18.6V13" stroke="white" stroke-width="2" stroke-linecap="round" stroke-linejoin="round"/>
</svg>
