<svg width="161" height="140" viewBox="0 0 161 140" fill="none" xmlns="http://www.w3.org/2000/svg">
<g clip-path="url(#clip0_443_2044)">
<path d="M65.0032 8.10556C62.8429 11.4413 61.3785 15.3836 61.5661 19.397C61.7506 23.3485 63.7975 26.8854 64.5811 30.7082C65.5296 35.3313 63.9533 38.2752 60.8021 41.5186C58.4785 43.9119 56.4846 48.2823 56.9975 51.6725C57.4906 54.925 61.2227 56.1988 61.5268 59.2955C61.8112 62.1864 58.9036 64.8096 61.2091 67.4131C63.4889 69.9864 67.3056 69.6702 70.3645 69.4493C75.4535 69.0833 80.594 69.0167 85.6649 69.4493C89.4499 69.7716 92.7871 69.1362 95.3997 66.1878C97.8792 63.3861 98.1258 59.9293 96.6372 56.6163C95.1758 53.3653 91.4362 49.1431 93.2349 45.3188C94.8143 41.9589 97.8898 41.6079 97.9458 37.3479C98.0078 32.578 94.6569 29.9261 92.0065 26.4588C88.276 21.574 93.7584 19.6709 93.9641 15.2172C94.1123 11.9828 91.4256 6.06328 89.2215 3.97109C85.9962 0.906169 78.464 0.190617 74.6472 1.54305C70.6035 2.97567 67.2209 4.68059 65.0032 8.10556Z" fill="#1F4272"/>
<path d="M75.2887 35.6021C78.7121 37.0952 82.6318 37.189 85.9841 35C87.5559 33.9758 89.223 32.5326 90.3743 31.0425C96.1804 23.5285 95.7538 11.9738 90.7237 5.00886C86.1838 -1.27528 76.4929 -0.903135 70.8728 3.80165C68.9501 5.41127 67.1756 7.8514 66.2437 10.1191C63.8383 15.9781 64.9654 25.1381 69.3192 30.8897C70.8592 32.9214 72.959 34.5855 75.2887 35.6021Z" fill="#1F4272"/>
<path d="M74.6443 45.2023H85.9055C83.3171 41.0027 85.3488 35.3328 85.6468 34.5598H74.903C75.201 35.3328 77.2327 41.0027 74.6443 45.2023Z" fill="#F8A18F"/>
<path d="M84.6122 40.0103C84.6394 37.3357 85.4654 35.0333 85.6469 34.5598H74.9031C75.0861 35.0333 75.9106 37.3357 75.9378 40.0103C75.9378 40.0103 80.0557 44.5941 84.6122 40.0103Z" fill="#F68373"/>
<path d="M87.91 33.0909C90.1398 31.3315 90.2896 28.9458 90.2896 28.9458C90.6557 25.0292 90.8312 23.7358 91.1232 21.7359C92.3757 13.1568 86.2035 6.03002 80.0752 5.93774C73.9469 6.03002 67.7762 13.1568 69.0288 21.7359C69.3208 23.7358 69.4947 25.0292 69.8623 28.9458C69.8623 28.9458 70.1301 31.1212 72.2405 33.0909C72.2405 33.0909 75.4143 36.2466 78.7213 37.4629C78.7213 37.4629 79.2568 37.6535 80.0752 37.6686C80.8936 37.6535 81.4307 37.4629 81.4307 37.4629C81.4307 37.4629 86.2156 34.9501 87.91 33.0909Z" fill="#F8A18F"/>
<path d="M84.4683 17.5197C84.8888 17.2338 85.2973 17.1233 85.6785 17.1233C86.2413 17.1218 86.745 17.379 87.034 17.7163C87.2034 17.9145 87.5014 17.9357 87.6981 17.7648C87.8948 17.5953 87.9175 17.2973 87.7465 17.1006C87.2685 16.5485 86.5211 16.1824 85.6785 16.1809C85.1112 16.1793 84.5031 16.3518 83.9373 16.7421C83.721 16.8888 83.6665 17.1823 83.8132 17.3971C83.96 17.612 84.2535 17.6664 84.4683 17.5197Z" fill="#172345"/>
<path d="M76.7123 16.7421C76.1465 16.3518 75.5383 16.1793 74.971 16.1809C74.1269 16.1824 73.3796 16.5485 72.9015 17.1006C72.7321 17.2973 72.7533 17.5953 72.9515 17.7663C73.1481 17.9357 73.4461 17.9145 73.6156 17.7163C73.9045 17.379 74.4083 17.1218 74.971 17.1233C75.3507 17.1233 75.7607 17.2338 76.1813 17.5197C76.3961 17.6664 76.6881 17.612 76.8363 17.3971C76.9831 17.1823 76.9286 16.8888 76.7123 16.7421Z" fill="#172345"/>
<path d="M79.6441 21.7373C79.6441 22.1609 79.6441 22.4725 79.6275 22.6949C79.6169 22.8628 79.5972 22.9763 79.573 23.055C79.5322 23.1699 79.4989 23.2199 79.3779 23.3288C79.2584 23.4317 79.0511 23.5678 78.7516 23.766C78.561 23.8931 78.4188 24.0065 78.3053 24.1321C78.2493 24.1941 78.2009 24.2622 78.1631 24.3408C78.1253 24.418 78.1011 24.5103 78.1011 24.6071C78.0996 24.7932 78.1964 24.9475 78.2902 25.0413C78.4566 25.2062 78.6412 25.2924 78.8424 25.4013C79.1419 25.5541 79.4687 25.7235 79.7031 25.952C79.8211 26.0669 79.9164 26.1925 79.9845 26.3423C80.0526 26.492 80.095 26.666 80.0965 26.8899C80.0965 27.0911 80.2583 27.2545 80.4595 27.2545C80.6607 27.2545 80.8226 27.0911 80.8226 26.8899C80.8241 26.4028 80.6698 25.9958 80.4399 25.6903C80.0919 25.2304 79.6169 24.9853 79.2629 24.7992C79.0859 24.7069 78.9362 24.6298 78.8605 24.5738L78.8182 24.5405L78.8061 24.5284L78.7849 24.5481L78.8091 24.5315L78.8061 24.5284L78.7849 24.5481L78.8091 24.5315L78.6896 24.6071H78.8272L78.8091 24.5315L78.6896 24.6071H78.8272H78.7213L78.8197 24.654L78.8272 24.6071H78.7213L78.8197 24.654L78.8348 24.6313C78.8681 24.5874 78.9725 24.4906 79.1525 24.3726C79.4142 24.1971 79.6169 24.0701 79.7879 23.9324C79.9164 23.8295 80.0329 23.7161 80.1237 23.5769C80.2629 23.3651 80.3204 23.1215 80.3461 22.8417C80.3718 22.5573 80.3718 22.2154 80.3718 21.7373C80.3718 21.5346 80.2084 21.3727 80.0072 21.3727C79.8075 21.3727 79.6441 21.5346 79.6441 21.7373Z" fill="#F57C6E"/>
<path d="M77.8031 28.1198C77.9937 28.6644 78.4082 29.0608 78.8923 29.3119C79.3809 29.5645 79.9467 29.684 80.5095 29.6856C81.0859 29.684 81.6592 29.5585 82.1403 29.2847C82.6198 29.0124 83.0101 28.5691 83.1297 27.9776C83.1705 27.781 83.0434 27.5873 82.8468 27.548C82.6501 27.5071 82.458 27.6342 82.4171 27.8309C82.3415 28.1894 82.1236 28.4526 81.7802 28.6523C81.4383 28.8505 80.9785 28.9594 80.5095 28.9579C80.0526 28.9579 79.5897 28.855 79.2282 28.6675C78.8636 28.4753 78.6049 28.2121 78.4884 27.8778C78.4218 27.6887 78.2146 27.5888 78.0255 27.6554C77.8364 27.722 77.7365 27.9292 77.8031 28.1198Z" fill="#F57C6E"/>
<path d="M86.1627 19.751C86.1612 20.3319 85.6922 20.8009 85.1143 20.8009C84.5349 20.8009 84.0674 20.3319 84.0659 19.751C84.0659 19.5513 83.9041 19.3895 83.7029 19.3895C83.5032 19.3895 83.3413 19.5513 83.3413 19.751C83.3413 20.7328 84.134 21.5255 85.1143 21.5255C86.0916 21.5255 86.8858 20.7328 86.8858 19.751C86.8858 19.5513 86.7239 19.3895 86.5227 19.3895C86.3245 19.3895 86.1627 19.5513 86.1627 19.751Z" fill="#172345"/>
<path d="M76.0845 19.751C76.083 20.3319 75.6141 20.8009 75.0362 20.8009C74.4583 20.8009 73.9893 20.3319 73.9878 19.751C73.9878 19.5513 73.8259 19.3895 73.6263 19.3895C73.4266 19.3895 73.2632 19.5513 73.2632 19.751C73.2632 20.7328 74.0574 21.5255 75.0362 21.5255C76.015 21.5255 76.8092 20.7328 76.8092 19.751C76.8092 19.5513 76.6473 19.3895 76.4461 19.3895C76.2464 19.3895 76.0845 19.5513 76.0845 19.751Z" fill="#172345"/>
<path d="M88.4697 23.7357C88.4697 24.4377 87.3472 25.0065 85.9615 25.0065C84.5788 25.0065 83.4563 24.4377 83.4563 23.7357C83.4563 23.0353 84.5788 22.4665 85.9615 22.4665C87.3472 22.4665 88.4697 23.0353 88.4697 23.7357Z" fill="#F57984"/>
<path d="M76.9345 23.7357C76.9345 24.4377 75.812 25.0065 74.4278 25.0065C73.0436 25.0065 71.9211 24.4377 71.9211 23.7357C71.9211 23.0353 73.0436 22.4665 74.4278 22.4665C75.812 22.4665 76.9345 23.0353 76.9345 23.7357Z" fill="#F57984"/>
<path d="M101.862 65.8595C104.448 60.0761 103.837 56.17 103.837 56.17C102.508 50.6741 94.1775 48.7694 94.1775 48.7694C85.8616 46.2295 84.9525 43.7213 84.9525 43.7213H75.5973C75.5973 43.7213 74.6881 46.2295 66.3708 48.7694C66.3708 48.7694 58.0414 50.6741 56.7131 56.17C56.7131 56.17 56.102 60.0761 58.6873 65.8595C58.6873 65.8595 64.7506 81.3596 67.3435 88.6149C67.3435 88.6149 69.3525 93.2108 66.3708 100.466L62.1985 110.381H98.3513L94.1775 100.466C91.1988 93.2108 93.2078 88.6149 93.2078 88.6149C95.7992 81.3596 101.862 65.8595 101.862 65.8595Z" fill="#F8A18F"/>
<path d="M101.229 115.042C99.0516 110.989 96.144 105.135 96.144 105.135C95.7976 108.433 81.7725 108.614 79.7953 108.632C77.9119 108.614 65.6643 108.402 64.3512 105.266C64.3512 105.266 61.1244 111.016 59.0745 115.042C59.0745 115.042 55.0475 124.627 79.5366 126.217V126.25C79.6213 126.246 79.7045 126.24 79.7892 126.234C79.8755 126.24 79.9556 126.246 80.0419 126.25V126.217C104.542 124.627 101.229 115.042 101.229 115.042Z" fill="#546996"/>
<path d="M93.7613 25.5012C93.5813 27.1531 92.424 28.383 91.176 28.2454C89.9294 28.1092 89.0656 26.6585 89.2457 25.005C89.4287 23.353 90.586 22.1231 91.8325 22.2608C93.0791 22.3969 93.9429 23.8477 93.7613 25.5012Z" fill="#F8A18F"/>
<path d="M91.5845 23.9914C91.6965 24.0458 91.7903 24.1472 91.8659 24.3212C91.94 24.4921 91.9824 24.7251 91.9809 24.9747C91.9824 25.2667 91.9264 25.5783 91.8281 25.8415C91.7313 26.1048 91.5891 26.315 91.456 26.4179C91.2986 26.5435 91.2714 26.7719 91.3954 26.9292C91.521 27.0881 91.7479 27.1138 91.9053 26.9897C92.1881 26.7643 92.3788 26.4451 92.5104 26.0942C92.6405 25.7432 92.7085 25.3559 92.7085 24.9747C92.7085 24.6479 92.6571 24.3257 92.5346 24.0337C92.412 23.7448 92.2033 23.4801 91.8947 23.3348C91.7131 23.2486 91.4968 23.3258 91.4121 23.5088C91.3259 23.6903 91.403 23.9067 91.5845 23.9914Z" fill="#F57C6E"/>
<path d="M91.1353 25.2576C91.2381 25.2395 91.3622 25.2273 91.4862 25.2273C91.6118 25.2258 91.7358 25.241 91.8342 25.2667C91.9325 25.2954 91.9991 25.3348 92.0354 25.3696C92.1761 25.5118 92.406 25.5118 92.5482 25.3696C92.6904 25.2273 92.6904 24.9974 92.5482 24.8552C92.3939 24.7024 92.2093 24.6177 92.0278 24.5663C91.8463 24.5163 91.6617 24.4997 91.4862 24.4997C91.3138 24.4997 91.1504 24.5163 91.0052 24.5421C90.807 24.5768 90.6769 24.7675 90.7117 24.9641C90.748 25.1623 90.9371 25.2939 91.1353 25.2576Z" fill="#F57C6E"/>
<path d="M66.6281 25.5012C66.8081 27.1531 67.9669 28.383 69.2135 28.2454C70.46 28.1092 71.3253 26.6585 71.1438 25.005C70.9623 23.353 69.805 22.1231 68.5584 22.2608C67.3104 22.3969 66.4466 23.8477 66.6281 25.5012Z" fill="#F8A18F"/>
<path d="M68.4948 23.3348C68.1862 23.4801 67.9774 23.7448 67.8564 24.0337C67.7323 24.3257 67.6809 24.6479 67.6809 24.9747C67.6809 25.3559 67.7505 25.7432 67.8806 26.0942C68.0122 26.4451 68.2013 26.7643 68.4842 26.9897C68.6415 27.1138 68.87 27.0881 68.994 26.9292C69.1196 26.7719 69.0923 26.5435 68.935 26.4179C68.8004 26.315 68.6582 26.1048 68.5614 25.8415C68.463 25.5783 68.407 25.2667 68.4086 24.9747C68.407 24.7251 68.4494 24.4921 68.5235 24.3212C68.5992 24.1472 68.693 24.0458 68.8064 23.9914C68.988 23.9067 69.0651 23.6903 68.9789 23.5088C68.8927 23.3258 68.6763 23.2486 68.4948 23.3348Z" fill="#F57C6E"/>
<path d="M69.3843 24.5421C69.2406 24.5163 69.0757 24.4997 68.9033 24.4997C68.7278 24.4997 68.5432 24.5163 68.3617 24.5663C68.1801 24.6177 67.9956 24.7024 67.8413 24.8552C67.6991 24.9974 67.6991 25.2273 67.8413 25.3696C67.9835 25.5118 68.2134 25.5118 68.3556 25.3696C68.3904 25.3348 68.457 25.2954 68.5553 25.2667C68.6536 25.241 68.7777 25.2258 68.9033 25.2273C69.0273 25.2273 69.1529 25.2395 69.2557 25.2576C69.4524 25.2939 69.6415 25.1623 69.6778 24.9641C69.7126 24.7675 69.5825 24.5768 69.3843 24.5421Z" fill="#F57C6E"/>
<path d="M55.3168 59.1064C52.5484 67.9305 47.7408 81.7968 45.1826 90.2987C45.1826 90.2987 50.3034 100.074 52.4213 96.5889C57.9839 87.4274 58.2184 85.9872 66.684 65.1273C66.684 65.1273 70.059 55.3622 63.3634 49.9373C63.3634 49.9373 57.9778 50.7966 55.3168 59.1064Z" fill="#F8A18F"/>
<path d="M105.632 59.1064C108.399 67.9305 113.207 81.7968 115.765 90.2987C115.765 90.2987 110.644 100.074 108.526 96.5889C102.964 87.4274 102.728 85.9872 94.2637 65.1273C94.2637 65.1273 90.8887 55.3622 97.5843 49.9373C97.5843 49.9373 102.97 50.7966 105.632 59.1064Z" fill="#F8A18F"/>
<path d="M143.927 101.089C143.927 101.089 120.367 99.563 109.24 97.3392C109.24 97.3392 105.944 93.2335 102.543 85.379C102.543 85.379 107.608 85.9055 114.596 87.3336C114.596 87.3336 138.611 95.7492 145.21 97.619L143.927 101.089Z" fill="#F8A18F"/>
<mask id="mask0_443_2044" style="mask-type:luminance" maskUnits="userSpaceOnUse" x="141" y="94" width="20" height="12">
<path d="M141.743 94.592H160.798V105.048H141.743V94.592Z" fill="white"/>
</mask>
<g mask="url(#mask0_443_2044)">
<path d="M156.798 97.2636C156.765 95.359 154.093 95.3423 153.046 95.0473C153.046 95.0473 152.485 96.1154 154.426 96.7553L153.44 97.5994L149.06 97.4572C149.518 96.8672 150.158 96.4028 150.158 96.4028C149.782 96.3393 152.568 96.7371 153.046 95.0473C152.007 94.713 150.234 94.6313 148.881 94.8582C147.679 94.9762 145.21 97.6191 145.21 97.6191L142.717 97.7462L142.107 100.841L144.133 101.723C146.074 103.756 150.928 104.546 150.928 104.546C151.987 104.955 155.799 105.304 156.701 104.481C156.497 103.655 154.335 103.38 151.8 102.53C154.483 102.958 158.972 104.151 159.746 102.938C159.457 101.869 154.143 101.566 152.146 101.248C153.394 101.139 160.722 102.262 160.772 101.159C160.501 99.9942 154.166 99.6795 154.108 99.684L156.798 97.2636Z" fill="#F8A18F"/>
</g>
<path d="M17.0492 101.089C17.0492 101.089 40.6095 99.563 51.7376 97.3392C51.7376 97.3392 52.3775 97.796 58.4332 85.379C58.4332 85.379 53.3684 85.907 46.3808 87.3336C46.3808 87.3336 22.3652 95.7492 15.7664 97.619L17.0492 101.089Z" fill="#F8A18F"/>
<mask id="mask1_443_2044" style="mask-type:luminance" maskUnits="userSpaceOnUse" x="0" y="94" width="19" height="12">
<path d="M0.175537 94.592H18.9765V105.048H0.175537V94.592Z" fill="white"/>
</mask>
<g mask="url(#mask1_443_2044)">
<path d="M4.17997 97.2636C4.21174 95.359 6.88333 95.3423 7.9317 95.0473C7.9317 95.0473 8.49143 96.1169 6.55052 96.7553L7.53686 97.5994L11.9164 97.4572C11.458 96.8672 10.8181 96.4028 10.8181 96.4028C11.1948 96.3393 8.40823 96.7371 7.9317 95.0473C8.97099 94.713 10.7425 94.6313 12.0949 94.8582C13.2976 94.9762 15.7665 97.6191 15.7665 97.6191L18.2611 97.7462L18.8692 100.841L16.8436 101.723C14.9027 103.756 10.0481 104.546 10.0481 104.546C8.98914 104.955 5.1769 105.304 4.27527 104.481C4.4795 103.655 6.6428 103.38 9.17673 102.53C6.49454 102.958 2.00457 104.151 1.23002 102.938C1.51896 101.869 6.83341 101.567 8.8303 101.248C7.58224 101.139 0.255781 102.262 0.204346 101.159C0.475136 99.9942 6.81072 99.6795 6.8682 99.684L4.17997 97.2636Z" fill="#F8A18F"/>
</g>
<path d="M95.5511 103.797L98.3512 110.381H61.5359L62.9761 103.908L62.4572 75.5958C68.9652 63.5994 63.6099 49.4699 63.6099 49.4699C65.1167 49.0342 68.1937 48.1825 68.9667 47.8951C68.9667 47.8951 68.4342 55.6345 80.5396 55.3925C80.5396 55.3925 89.9099 56.4696 91.0959 47.709C91.9899 48.0569 95.5284 49.1144 96.6962 49.4699C96.6962 49.4699 92.4256 63.5994 98.2862 75.089L95.5511 103.797Z" fill="#5167AD"/>
<path d="M40.3417 131.059H127.262C138.864 132.416 152.717 116.785 142.416 114.228C122.063 109.178 99.1137 110.381 99.1137 110.381L95.5511 103.797C95.5511 103.797 81.8073 108.089 62.9761 103.908C61.8021 108.523 61.8021 108.523 60.3015 111.535C60.3015 111.535 30.2559 107.755 17.5393 118.78C17.5393 118.78 21.9824 131.059 40.3417 131.059Z" fill="#183651"/>
<path d="M97.7372 133.832C97.7372 133.832 97.5239 137.51 96.2879 138.306C96.2879 138.306 88.0734 139.938 72.9743 137.944C70.9804 137.846 52.9857 139.956 52.5606 139.938C40.0437 139.458 35.1272 140.947 23.5845 135.897C19.2958 134.021 10.7954 121.663 19.6831 117.257C29.961 111.104 53.6392 125.091 53.6483 125.096C60.1231 128.922 67.9064 130.398 75.3312 130.212C79.5247 130.108 97.5239 126.051 97.7372 133.832Z" fill="#183651"/>
<path d="M103.018 128.196C99.1379 129.032 94.2531 129.2 88.5483 127.598C86.2988 126.226 83.4018 126.857 81.4367 128.394C81.4367 128.394 79.34 132.631 71.248 130.212C71.248 130.212 69.3994 130.708 69.0908 132.268C69.0908 132.268 67.3995 135.533 70.54 136.743C70.54 136.743 78.753 138.375 93.8522 136.38C94.7372 136.336 98.7688 136.728 103.018 137.174V128.196Z" fill="#F8A18F"/>
<path d="M147.143 115.692C136.864 109.54 113.18 123.533 113.18 123.533C113.18 123.533 108.277 127.883 99.8186 128.689V136.846C105.784 137.44 113.981 138.386 114.266 138.375C126.784 137.896 131.699 139.384 143.243 134.333C147.531 132.457 156.033 120.099 147.143 115.692Z" fill="#183651"/>
<path d="M132.997 114.807C128.185 115.358 124.972 117.016 122.039 118.366C118.185 120.14 114.715 122.582 111.127 124.597C107.537 126.616 103.841 128.211 99.5267 128.35C99.3058 128.358 99.0865 128.361 98.8671 128.361C95.837 128.361 92.8084 127.713 89.6209 127.324C88.2912 127.167 86.7678 126.659 85.1521 126.656C84.2989 126.654 83.4124 126.804 82.538 127.234C81.6636 127.665 80.8058 128.371 79.9859 129.457C79.8664 129.616 79.8967 129.843 80.057 129.964C80.2159 130.085 80.4443 130.055 80.5638 129.895C81.3308 128.881 82.0978 128.259 82.8587 127.886C83.6181 127.512 84.3791 127.382 85.1521 127.38C86.6135 127.377 88.1021 127.866 89.5332 128.044C92.6798 128.426 95.7341 129.085 98.8671 129.087C99.0925 129.087 99.3209 129.082 99.5494 129.076C104.035 128.931 107.852 127.271 111.481 125.231C115.111 123.188 118.567 120.762 122.341 119.025C125.3 117.664 128.397 116.066 133.08 115.528C133.279 115.505 133.422 115.325 133.398 115.127C133.375 114.928 133.195 114.785 132.997 114.807Z" fill="#172345"/>
<path d="M68.3799 47.827C68.3542 48.0463 68.3406 48.2642 68.3406 48.4805C68.3421 50.0039 68.9759 51.4017 69.9426 52.5166C70.9093 53.6331 72.2088 54.4742 73.5854 54.9023C75.2828 55.4257 77.9786 55.7525 80.8015 55.754C81.694 55.754 82.5987 55.7192 83.4852 55.6481C83.6848 55.633 83.8331 55.4575 83.8165 55.2578C83.8013 55.0581 83.6274 54.9099 83.4277 54.9265C82.5608 54.9961 81.6759 55.0279 80.8015 55.0279C78.0391 55.0294 75.3766 54.6981 73.8002 54.2079C72.5567 53.8252 71.3616 53.0507 70.4887 52.0416C69.6159 51.0311 69.0652 49.7966 69.0667 48.4805C69.0667 48.2944 69.0773 48.1038 69.1 47.9147C69.1242 47.715 68.982 47.535 68.7838 47.5108C68.5841 47.4866 68.4041 47.6288 68.3799 47.827Z" fill="#172345"/>
<path d="M66.4874 104.72C71.2133 105.765 76.1148 106.266 81.0041 106.266C81.4368 106.266 81.8694 106.262 82.3021 106.254C84.8572 106.209 87.4441 106.054 89.9705 105.652C91.2594 105.446 92.5498 105.159 93.7676 104.706C93.9552 104.637 94.052 104.428 93.9824 104.239C93.9128 104.051 93.704 103.956 93.5164 104.026C92.3607 104.455 91.1172 104.734 89.8555 104.935C87.3775 105.33 84.8239 105.484 82.29 105.529C81.8604 105.537 81.4322 105.54 81.0041 105.54C76.1632 105.54 71.3147 105.044 66.6432 104.011C66.448 103.968 66.2544 104.092 66.2105 104.287C66.1682 104.483 66.2907 104.676 66.4874 104.72Z" fill="#172345"/>
<path d="M63.6099 49.4698C63.6099 49.4698 56.5437 50.2262 52.4667 61.4724L47.8254 74.7955C47.8254 74.7955 53.5544 81.4851 62.4935 82.0902L69.2269 63.9201C69.2269 63.9201 72.4885 54.338 63.6099 49.4698Z" fill="#5167AD"/>
<path d="M96.6962 49.4698C96.6962 49.4698 103.762 50.2262 107.839 61.4724L112.482 74.7955C112.482 74.7955 106.752 81.4851 97.8127 82.0902L91.0792 63.9201C91.0792 63.9201 87.8176 54.338 96.6962 49.4698Z" fill="#5167AD"/>
<path d="M75.3688 130.143C72.5202 130.185 69.6217 129.979 66.7655 129.492L66.6763 138.28C69.7321 138.006 72.2585 137.809 72.9347 137.849C88.0127 139.998 96.2423 138.449 96.2423 138.449C97.4873 137.666 97.737 133.991 97.737 133.991C97.6038 126.208 79.5653 130.081 75.3688 130.143Z" fill="#F8A18F"/>
<path d="M70.5856 130.097C64.672 129.665 58.7525 128.112 53.6483 125.096C53.6392 125.091 29.961 111.104 19.6831 117.257C10.7954 121.663 19.2958 134.021 23.5846 135.897C35.1272 140.947 40.0437 139.458 52.5606 139.938C52.9101 139.953 65.1471 138.528 70.5856 138.077V130.097Z" fill="#183651"/>
<path d="M31.2482 116.8C31.3965 116.794 31.5463 116.791 31.696 116.791C34.1831 116.791 36.8471 117.538 39.4491 118.57C42.0511 119.601 44.5896 120.913 46.8436 122.019C51.9841 124.535 56.7615 128.218 62.6417 129.528C66.2392 130.327 69.9001 130.559 73.5747 130.559C75.5913 130.559 77.6108 130.489 79.6259 130.404C82.6605 130.276 85.4592 129.787 88.3229 129.674C89.459 129.628 90.6088 129.506 91.7131 129.506C92.4801 129.506 93.2259 129.565 93.9309 129.742C94.6373 129.919 95.303 130.212 95.9293 130.689C96.3937 131.04 96.8369 131.69 97.1471 132.474C97.4602 133.256 97.6463 134.167 97.6448 135.021C97.6463 135.707 97.5268 136.354 97.2787 136.881C97.0291 137.406 96.6599 137.809 96.1289 138.056C95.9474 138.139 95.8672 138.356 95.9504 138.537C96.0352 138.719 96.25 138.799 96.4315 138.716C97.1319 138.393 97.6281 137.841 97.9337 137.189C98.2408 136.539 98.3709 135.788 98.3709 135.021C98.3709 134.062 98.1682 133.073 97.8203 132.205C97.4723 131.336 96.9852 130.584 96.368 130.111C95.6585 129.569 94.8915 129.233 94.1063 129.037C93.3212 128.842 92.5164 128.781 91.7131 128.781C90.5558 128.781 89.397 128.905 88.2942 128.949C85.3669 129.067 82.5698 129.556 79.5956 129.678C77.5836 129.763 75.5731 129.832 73.5747 129.832C69.9304 129.832 66.3224 129.603 62.7991 128.82C57.1231 127.566 52.388 123.937 47.1613 121.367C44.9178 120.267 42.3627 118.945 39.7153 117.897C37.068 116.847 34.3268 116.068 31.696 116.066C31.5372 116.066 31.3783 116.069 31.221 116.074C31.0213 116.081 30.8655 116.251 30.8731 116.45C30.8806 116.651 31.0486 116.807 31.2482 116.8Z" fill="#172345"/>
<path d="M97.0487 131.584L97.0154 131.592C96.8414 131.627 96.0533 131.77 95.1516 131.769C94.6812 131.77 94.1804 131.731 93.7266 131.622C93.5314 131.577 93.3363 131.698 93.2894 131.891C93.244 132.088 93.3635 132.283 93.5587 132.329C94.0897 132.454 94.6418 132.495 95.1516 132.495C96.2681 132.495 97.1864 132.297 97.2015 132.294C97.3966 132.253 97.5207 132.059 97.4798 131.863C97.4375 131.668 97.2454 131.543 97.0502 131.584H97.0487Z" fill="#172345"/>
<path d="M97.5539 133.448L97.5494 133.451C97.4813 133.463 96.7885 133.599 95.7189 133.599C95.3785 133.599 94.9988 133.586 94.5904 133.549C94.3922 133.533 94.2167 133.681 94.1986 133.881C94.1819 134.079 94.3287 134.256 94.5283 134.273C94.9595 134.31 95.3589 134.324 95.7189 134.324C96.9246 134.324 97.6871 134.162 97.7052 134.159C97.9019 134.117 98.0259 133.925 97.9836 133.728C97.9427 133.533 97.7506 133.407 97.5539 133.448Z" fill="#172345"/>
<path d="M97.8944 135.424L97.8384 135.433C97.5813 135.477 96.4512 135.655 95.4845 135.655C95.2833 135.655 95.0897 135.648 94.9142 135.63C94.7145 135.611 94.5375 135.757 94.5194 135.956C94.4997 136.154 94.6449 136.333 94.8446 136.353C95.0488 136.372 95.2652 136.381 95.4845 136.381C96.6827 136.38 98.0109 136.139 98.0215 136.138C98.2197 136.102 98.3498 135.914 98.315 135.717C98.2802 135.519 98.0911 135.388 97.8944 135.424Z" fill="#172345"/>
<path d="M84.2657 9.40052C86.5062 11.3203 87.9812 17.0311 87.2989 19.8085C86.7573 22.0112 85.2158 23.8764 84.9964 26.1698C84.6349 29.9549 88.5273 32.3299 88.6423 36.0302C88.7724 40.2131 85.7755 43.449 84.1931 47.0751C82.461 51.0462 84.1477 55.1141 84.9737 59.0716C85.6212 62.1728 83.9844 67.8867 86.6333 70.1195C88.1778 71.4221 91.2201 71.7897 93.0778 71.0575C96.412 69.7459 95.884 65.6235 97.952 63.2923C99.9685 61.0216 105.564 62.6524 106.292 59.1124C106.823 56.5377 103.921 53.8994 102.949 51.6877C100.678 46.5245 105.027 41.1026 102.48 36.3464C101.173 33.9063 99.318 32.1908 99.0866 29.2257C98.8733 26.4981 100.844 24.002 99.0367 21.4711C97.0882 18.742 95.7494 17.4652 96.002 13.9888C96.5859 5.93774 92.0097 2.85315 89.3699 1.7004C75.6595 -4.2827 76.08 9.42927 76.08 9.42927C76.08 9.42927 79.4626 7.59879 84.2657 9.40052Z" fill="#1F4272"/>
<path d="M72.5142 12.5547C73.5641 11.0101 74.9695 9.74541 76.75 9.17358C80.1689 8.0768 84.6846 8.63956 87.1641 11.5562C88.81 13.4941 89.8417 16.0296 90.0853 18.5423C90.164 19.3365 90.2109 22.9808 91.8326 22.2608C93.1971 21.6541 93.0216 16.7829 92.8371 15.7013C92.4589 13.479 91.9233 11.3762 90.6707 9.4126C88.3078 5.71079 84.2247 3.50514 79.9133 3.15114C75.1616 2.76084 70.2798 6.29624 68.4387 10.6243C67.8896 11.9148 66.1302 21.8674 68.5582 22.2608C69.9273 22.4816 70.2904 18.0733 70.4734 17.2988C70.8547 15.6967 71.5294 14.0024 72.5142 12.5547Z" fill="#1F4272"/>
<path d="M115.31 86.9872C115.228 86.9811 115.143 86.9766 115.062 86.9766C114.196 86.9796 113.382 87.3532 112.711 87.8207C112.041 88.2942 111.511 88.86 111.222 89.3395C111.121 89.512 111.177 89.7344 111.348 89.8373C111.52 89.9401 111.743 89.8842 111.845 89.7117C112.056 89.3547 112.537 88.8267 113.127 88.4167C113.717 88.0007 114.416 87.6997 115.062 87.7027C115.124 87.7027 115.186 87.7057 115.246 87.7103C115.446 87.7284 115.621 87.5817 115.639 87.382C115.656 87.1823 115.509 87.0053 115.31 86.9872Z" fill="#172345"/>
<path d="M45.703 87.8116C45.9117 87.7375 46.1265 87.7042 46.3474 87.7042C46.83 87.7042 47.3474 87.8721 47.8239 88.1429C48.2989 88.4137 48.7331 88.7829 49.0508 89.1565C49.1809 89.3093 49.4093 89.3275 49.5621 89.1974C49.7134 89.0673 49.7315 88.8388 49.6014 88.686C49.2278 88.2473 48.7391 87.8283 48.1809 87.5121C47.6242 87.1959 46.9964 86.9796 46.3474 86.9781C46.0509 86.9781 45.7529 87.025 45.4609 87.1279C45.2718 87.1959 45.1735 87.4017 45.24 87.5923C45.3066 87.7799 45.5139 87.8797 45.703 87.8116Z" fill="#172345"/>
</g>
<defs>
<clipPath id="clip0_443_2044">
<rect width="160.913" height="140" fill="white"/>
</clipPath>
</defs>
</svg>
