<svg width="20" height="20" viewBox="0 0 20 20" fill="none" xmlns="http://www.w3.org/2000/svg">
<path fill-rule="evenodd" clip-rule="evenodd" d="M13.3333 0C12.106 0 11.1111 0.994923 11.1111 2.22222V6.66667C11.1111 7.89397 12.106 8.88889 13.3333 8.88889H17.7778C19.0051 8.88889 20 7.89397 20 6.66667V2.22222C20 0.994923 19.0051 0 17.7778 0H13.3333ZM13.3333 2.22222H17.7778V6.66667H13.3333V2.22222Z" fill="#A0A3B1"/>
<path fill-rule="evenodd" clip-rule="evenodd" d="M2.22222 0C0.994922 0 0 0.994923 0 2.22222V6.66667C0 7.89397 0.994924 8.88889 2.22222 8.88889H6.66667C7.89397 8.88889 8.88889 7.89397 8.88889 6.66667V2.22222C8.88889 0.994923 7.89397 0 6.66667 0H2.22222ZM2.22222 2.22222H6.66667V6.66667H2.22222V2.22222Z" fill="#A0A3B1"/>
<path fill-rule="evenodd" clip-rule="evenodd" d="M0 13.3333C0 12.106 0.994922 11.1111 2.22222 11.1111H6.66667C7.89397 11.1111 8.88889 12.106 8.88889 13.3333V17.7778C8.88889 19.0051 7.89397 20 6.66667 20H2.22222C0.994924 20 0 19.0051 0 17.7778V13.3333ZM6.66667 13.3333H2.22222V17.7778H6.66667V13.3333Z" fill="#A0A3B1"/>
<path fill-rule="evenodd" clip-rule="evenodd" d="M13.3333 11.1111C12.106 11.1111 11.1111 12.106 11.1111 13.3333V17.7778C11.1111 19.0051 12.106 20 13.3333 20H17.7778C19.0051 20 20 19.0051 20 17.7778V13.3333C20 12.106 19.0051 11.1111 17.7778 11.1111H13.3333ZM13.3333 13.3333H17.7778V17.7778H13.3333V13.3333Z" fill="#A0A3B1"/>
</svg>
