<svg width="97" height="89" viewBox="0 0 97 89" fill="none" xmlns="http://www.w3.org/2000/svg">
<path d="M68.4126 -5.50246C62.9382 -2.19066 58.3499 2.5551 52.5503 5.25234C46.1651 8.2196 38.8845 8.44618 32.1089 10.355C20.2432 13.6979 10.038 22.5159 4.9974 33.7828C-0.0432184 45.0497 0.173649 58.5514 5.57675 69.6476C7.15988 72.9005 9.20463 75.995 11.996 78.2949C17.9816 83.23 26.427 83.8073 34.1382 83.019C41.8494 82.2306 49.5451 80.3062 57.2563 81.0884C62.647 81.6377 67.8518 83.4969 73.258 83.8694C78.6363 84.2388 84.0208 83.1152 89.1389 81.4174C98.7337 78.2328 107.855 72.7918 113.809 64.6101C119.764 56.4284 122.106 45.2546 118.292 35.8779C114.794 27.2741 106.835 21.2557 102.495 13.043C100.438 9.15076 99.2387 4.84263 97.0793 1.00629C91.4718 -8.96013 77.7812 -11.1701 68.4126 -5.50246Z" fill="#808AFF"/>
<path d="M41.0685 -6.67232C40.1328 -6.20985 39.2096 -5.6884 38.4754 -4.94658C37.7628 -4.22649 37.2609 -3.33259 36.7745 -2.44489C35.9132 -0.868144 35.052 0.969327 35.6685 2.65471C36.0743 3.76278 37.0719 4.57598 38.1748 4.995C39.2778 5.41092 40.4767 5.4792 41.654 5.46368C45.223 5.41712 48.7797 4.63496 52.042 3.18547C53.0241 2.74782 53.9907 2.245 54.8055 1.54354C55.6327 0.832758 56.2895 -0.0673542 56.7883 -1.03886C57.6588 -2.73355 58.0089 -4.94348 56.8409 -6.45195C56.0075 -7.52898 54.6134 -7.97903 53.2812 -8.24907C48.9934 -9.11814 45 -8.61842 41.0685 -6.67232Z" fill="#808AFF"/>
<path d="M96.1096 82.9296C96.0538 82.9296 95.998 82.9048 95.964 82.8552C95.902 82.7745 95.9206 82.6596 96.0011 82.5975C102.405 77.7587 107.402 71.2716 110.448 63.8411C110.971 62.5654 111.259 60.6689 110.661 59.5143C110.404 59.0177 110.001 58.7042 109.469 58.5863C108.759 58.4249 108.022 58.7135 107.384 58.9991C106.048 59.5888 104.753 60.3027 103.536 61.119C102.941 61.5163 102.352 61.9477 101.791 62.3947C101.723 62.4474 101.627 62.5437 101.513 62.6554C100.949 63.2048 100.49 63.6176 100.131 63.481C100.041 63.4469 99.9915 63.3475 100.019 63.2575C100.109 62.9534 100.218 62.6678 100.32 62.3916C100.555 61.7646 100.775 61.1686 100.788 60.4455C100.797 59.8712 100.67 59.4677 100.41 59.2474C100.174 59.0487 99.8118 58.9804 99.3347 59.0394C98.272 59.1729 97.2837 59.7781 96.6238 60.6969C96.5774 60.762 96.4906 60.79 96.4163 60.762C96.3388 60.7341 96.2892 60.6627 96.2924 60.5789C96.314 60.0978 96.4132 59.6043 96.5092 59.1294C96.5588 58.8842 96.6084 58.639 96.6455 58.3969C97.5409 52.7231 97.987 46.9345 97.9653 41.1924C97.9591 39.1842 97.5905 34.4353 94.3313 33.6593C92.3175 33.1814 90.3037 34.6308 89.0862 36.1455C86.1275 39.836 85.4304 44.9325 84.8696 49.0295C84.8572 49.1227 84.7767 49.1878 84.6837 49.1878C84.5908 49.1847 84.5133 49.1133 84.5041 49.0202C84.4018 47.9029 83.776 46.8289 82.7877 46.0778C81.7994 45.3267 80.5973 45.0132 79.4944 45.2149C78.3915 45.4198 77.3846 46.143 76.7278 47.1983C76.2848 47.9091 76.0493 48.6974 76.0369 49.4641C76.1732 49.8396 76.2259 50.2338 76.1794 50.6311C76.1701 50.718 76.0989 50.7863 76.0121 50.7925C75.9161 50.7987 75.8448 50.7429 75.8201 50.6591C75.7178 50.2928 75.6683 49.9141 75.6683 49.5293C75.501 49.1133 75.2097 48.7254 74.807 48.4057C73.8837 47.667 72.5732 47.4124 71.5478 47.7725C69.4844 48.4988 68.4094 50.7708 68.0903 52.6548C68.0903 52.6548 68.0903 52.6548 68.0903 52.6579C68.0748 52.7573 67.9818 52.8224 67.8796 52.81C67.7805 52.7945 67.7123 52.6983 67.7278 52.599C67.8982 51.5374 67.4149 50.5163 66.3956 49.79C65.0201 48.8092 63.1178 48.6354 61.7701 49.3648C59.1058 50.8111 58.1887 54.1664 57.8882 56.7271C57.8789 56.8202 57.7984 56.8885 57.7054 56.8885C57.7054 56.8885 57.7023 56.8885 57.6992 56.8885C57.6032 56.8854 57.5288 56.8109 57.5226 56.7178L56.9371 47.4466C56.7884 45.0722 56.1006 41.0185 53.1822 40.5623C50.4094 40.1277 48.5381 43.4209 48.0331 44.439C46.4624 47.5956 45.6538 51.1153 45.6848 54.6413C45.6972 54.7934 45.7003 54.9455 45.6941 55.0975C45.6879 55.1969 45.6011 55.2683 45.5082 55.2714C45.409 55.2714 45.3285 55.1907 45.3254 55.0944C45.3223 54.9486 45.3192 54.8058 45.3161 54.6599C45.2324 53.7257 44.7306 52.8007 43.9188 52.1241C42.9863 51.345 41.8059 51.0284 40.7619 51.2767C39.7178 51.525 38.8039 52.3351 38.3144 53.4494C37.828 54.5637 37.8497 55.7866 38.3763 56.724C38.4197 56.7985 38.4042 56.8947 38.3392 56.9505C38.2741 57.0064 38.1781 57.0126 38.1099 56.963C37.0101 56.1715 36.6197 54.7779 36.2417 53.4277C35.8235 51.9378 35.4269 50.5287 34.1381 50.0538C32.809 49.5634 31.325 50.5597 30.7116 51.7671C30.0424 53.0832 30.0641 54.6599 30.0827 56.0504C30.0827 56.1435 30.0176 56.2211 29.9247 56.2336C29.8349 56.2491 29.7481 56.1901 29.7202 56.1032C28.1247 50.5504 24.7199 45.5564 20.1409 42.0459C18.1829 40.5437 15.4318 39.6622 14.019 41.2669C13.387 41.9869 13.2259 43.036 13.1453 44.0603C12.6744 50.1407 13.954 56.4756 16.7484 61.8949C16.7918 61.9756 16.767 62.075 16.6927 62.1277C16.6183 62.1805 16.5161 62.1712 16.4541 62.1029C15.6517 61.24 14.7409 60.2654 13.5822 59.8061C12.5474 59.3964 11.0665 59.4926 10.3632 60.4796C10.0039 60.9855 9.90163 61.6373 9.85826 62.1495C9.71574 63.7386 9.96979 65.3557 10.5956 66.8238C10.6328 66.9139 10.5956 67.0163 10.5089 67.0597C10.4221 67.1032 10.3168 67.0722 10.2672 66.9883C9.36256 65.4085 8.21006 63.6672 6.5185 62.6988C5.00352 61.8329 2.66755 61.6715 1.31987 63.0744C-1.11524 65.6133 1.73812 69.8594 3.0796 71.5665C6.10645 75.4215 9.53915 79.7948 14.3505 81.9178C14.4435 81.9581 14.4837 82.0668 14.4435 82.1599C14.4032 82.253 14.2947 82.2965 14.2018 82.253C9.30679 80.0927 5.84621 75.6822 2.79147 71.7931C1.39113 70.0084 -1.58305 65.5668 1.05343 62.8168C2.53123 61.2773 5.06239 61.4418 6.69819 62.376C7.97461 63.1054 8.95051 64.2446 9.74363 65.4333C9.47719 64.3532 9.38734 63.2265 9.48958 62.1153C9.53915 61.5597 9.65068 60.8458 10.0627 60.2654C10.8837 59.1139 12.5226 58.9898 13.7154 59.4646C14.5612 59.7999 15.2706 60.3803 15.8965 60.9979C13.4056 55.7121 12.3274 49.8738 12.7798 44.0293C12.8634 42.9398 13.04 41.8224 13.7433 41.0216C15.3109 39.2369 18.2727 40.1495 20.3639 41.751C24.6889 45.0659 27.976 49.6782 29.714 54.843C29.7388 53.7474 29.8689 52.6114 30.3832 51.5964C31.0679 50.2525 32.744 49.1475 34.262 49.7062C35.7305 50.2463 36.1674 51.8106 36.5949 53.3253C36.8738 54.3154 37.1588 55.3303 37.7257 56.0722C37.4965 55.2 37.5801 54.213 37.9798 53.2973C38.5126 52.0775 39.5226 51.1867 40.6782 50.9136C41.8338 50.6404 43.135 50.985 44.1543 51.8354C44.6748 52.27 45.0775 52.7976 45.344 53.3687C45.4927 50.2152 46.2982 47.1021 47.7047 44.2714C48.2407 43.1974 50.2204 39.7273 53.238 40.196C56.4073 40.6895 57.1447 44.9325 57.3027 47.4187L57.786 55.0634C58.2755 52.7542 59.335 50.2618 61.5936 49.0358C63.059 48.2412 65.1192 48.4274 66.6063 49.4827C67.3343 50.001 67.8176 50.6591 68.019 51.3854C68.5519 49.7186 69.6424 48.0456 71.4238 47.4218C72.5794 47.0152 73.9984 47.2883 75.0331 48.1139C75.3089 48.3343 75.5412 48.5826 75.7209 48.8495C75.8201 48.2132 76.0524 47.5801 76.4149 46.9965C77.1244 45.8512 78.2242 45.0691 79.4262 44.8456C80.6283 44.6221 81.9357 44.9604 83.0077 45.7767C83.776 46.3602 84.343 47.1269 84.6435 47.9649C85.198 44.0169 86.0159 39.3735 88.8011 35.9065C89.4238 35.1275 91.6731 32.6382 94.4149 33.2931C95.8679 33.6376 98.3123 35.1244 98.3309 41.183C98.3495 46.9438 97.9034 52.751 97.0049 58.4435C96.9646 58.6887 96.9151 58.9401 96.8655 59.1915C96.8128 59.4553 96.7571 59.7254 96.7168 59.9923C97.4108 59.2598 98.3185 58.7818 99.2851 58.6607C99.8707 58.5863 100.326 58.6856 100.642 58.9525C100.995 59.2505 101.163 59.7378 101.15 60.4393C101.138 61.2276 100.905 61.8484 100.658 62.5064C100.589 62.6864 100.521 62.8696 100.456 63.0589C100.713 62.9037 101.098 62.5281 101.249 62.3791C101.373 62.2581 101.482 62.1526 101.553 62.0936C102.123 61.6373 102.718 61.2028 103.322 60.7993C104.558 59.9706 105.872 59.2474 107.226 58.6483C107.969 58.3193 108.762 58.04 109.54 58.2138C110.184 58.3597 110.668 58.7352 110.977 59.3312C111.634 60.5944 111.352 62.5716 110.779 63.9652C107.709 71.461 102.671 78.0007 96.2118 82.8769C96.187 82.9172 96.1467 82.9296 96.1096 82.9296Z" fill="#8E97FD"/>
<path d="M81.2132 83.354C81.1451 83.3571 81.08 83.3105 81.0645 83.2392C80.2497 79.7908 79.692 76.2524 79.407 72.7202C79.3296 71.7612 79.2552 70.6283 79.2955 69.486C79.4132 66.106 80.5038 62.729 82.4525 59.7152C84.2556 56.9248 86.8146 54.4542 89.8476 52.5639C89.9158 52.5205 90.0087 52.5422 90.0521 52.6105C90.0955 52.6788 90.0738 52.7719 90.0057 52.8153C87.0067 54.6807 84.4817 57.1203 82.7034 59.8735C80.7857 62.8407 79.7106 66.168 79.596 69.4922C79.5557 70.6189 79.6301 71.7425 79.7075 72.6923C79.9926 76.209 80.5471 79.7349 81.3557 83.1678C81.3743 83.2485 81.3247 83.3261 81.2473 83.3447C81.2318 83.3509 81.2225 83.354 81.2132 83.354Z" fill="#565D70"/>
<path d="M90.3532 51.5956C90.4957 51.4683 90.6661 51.3721 90.8396 51.2914C91.3787 51.0338 92.0045 50.8755 92.5714 51.0617C92.6241 51.0773 92.6737 51.099 92.714 51.1393C92.7511 51.1766 92.7697 51.2293 92.779 51.279C92.8131 51.4746 92.7078 51.6639 92.5931 51.8222C92.243 52.2971 91.7288 52.6354 91.168 52.7968C90.8458 52.8899 89.6964 53.1258 89.8327 52.5174C89.904 52.1791 90.093 51.8253 90.3532 51.5956Z" fill="#565D70"/>
<path d="M87.8004 55.0319C88.4758 54.9667 89.1573 55.0102 89.8327 55.0629C90.2634 55.0971 90.694 55.1374 91.1246 55.1809C91.2114 55.1902 91.3167 55.2181 91.3322 55.3019C91.3508 55.395 91.2393 55.4571 91.1525 55.4975C90.5515 55.7675 90.1828 56.3852 89.6344 56.7514C89.2379 57.0152 88.7639 57.1363 88.2899 57.2015C87.8933 57.2542 87.4906 57.2697 87.0909 57.248C86.7656 57.2294 86.4279 57.1797 86.1615 56.9935C85.8919 56.8042 85.7277 56.4752 85.7215 56.1462C85.7153 55.7365 86.0344 55.4912 86.3845 55.3578C86.8369 55.1809 87.3233 55.0753 87.8004 55.0319Z" fill="#565D70"/>
<path d="M83.6146 60.6964C84.2899 60.6312 84.9715 60.6746 85.6469 60.7274C86.0775 60.7615 86.5082 60.8019 86.9388 60.8454C87.0256 60.8547 87.1309 60.8795 87.1464 60.9664C87.165 61.0595 87.0534 61.1216 86.9667 61.1619C86.3657 61.432 85.997 62.0496 85.4486 62.4159C85.0521 62.6797 84.5781 62.8008 84.1041 62.866C83.7075 62.9187 83.3047 62.9342 82.9051 62.9125C82.5798 62.8939 82.2421 62.8442 81.9757 62.658C81.7061 62.4687 81.5419 62.1397 81.5357 61.8107C81.5295 61.4009 81.8486 61.1557 82.1987 61.0223C82.651 60.8485 83.1343 60.7429 83.6146 60.6964Z" fill="#565D70"/>
<path d="M81.3809 66.0009C82.0005 65.7278 82.6635 65.554 83.3203 65.3926C83.7417 65.2901 84.163 65.1908 84.5844 65.0977C84.668 65.0791 84.7764 65.0729 84.8198 65.1473C84.8663 65.2312 84.7826 65.3243 84.7114 65.3863C84.225 65.8333 84.0701 66.5348 83.6642 67.0531C83.3699 67.4287 82.9579 67.6925 82.5303 67.9004C82.1709 68.0743 81.793 68.217 81.4057 68.3195C81.0928 68.4033 80.7551 68.4622 80.4422 68.3691C80.1262 68.2729 79.869 68.0153 79.7575 67.7018C79.6212 67.3169 79.8473 66.9817 80.1386 66.7458C80.5134 66.4448 80.941 66.1933 81.3809 66.0009Z" fill="#565D70"/>
<path d="M81.1113 72.5125C81.703 72.1773 82.3412 71.9414 82.9825 71.7148C83.3915 71.572 83.8004 71.4324 84.2125 71.2989C84.293 71.271 84.4015 71.2524 84.451 71.3237C84.5037 71.4013 84.4294 71.5038 84.3674 71.5752C83.9275 72.0656 83.8407 72.7825 83.4875 73.3381C83.2335 73.7416 82.8462 74.0458 82.4404 74.2941C82.0996 74.5052 81.7371 74.6821 81.3622 74.8218C81.0586 74.9366 80.7302 75.0297 80.4111 74.9645C80.0889 74.8993 79.8039 74.6697 79.6645 74.3686C79.491 73.9961 79.6831 73.6423 79.9495 73.3785C80.2934 73.0402 80.693 72.7484 81.1113 72.5125Z" fill="#565D70"/>
<path d="M84.461 55.8105C84.461 55.4225 84.4486 55.0314 84.3804 54.6496C84.3278 54.3454 84.241 54.0444 84.1512 53.7495C83.863 52.7873 83.5315 51.791 82.8221 51.0802C82.8004 51.0585 82.7756 51.0336 82.7446 51.0243C82.6672 50.9964 82.5835 51.0585 82.5526 51.1361C82.5216 51.2106 82.5278 51.2975 82.5247 51.3782C82.5185 51.5582 82.4627 51.732 82.4069 51.9027C82.2613 52.3559 82.1157 52.8121 81.9701 53.2653C81.7501 53.9481 81.5302 54.6403 81.4806 55.3573C81.431 56.0743 81.5674 56.8285 82.0042 57.3965C82.1498 57.5859 82.3264 57.7535 82.5154 57.8993C82.6951 58.039 82.8933 58.1663 83.1133 58.2159C83.4107 58.2842 83.736 58.2004 83.9653 57.9987C84.2286 57.769 84.3216 57.3934 84.3587 57.0582C84.4114 56.6423 84.4579 56.2295 84.461 55.8105Z" fill="#565D70"/>
<path d="M80.8231 60.1438C80.662 59.7899 80.4886 59.4392 80.2686 59.1195C80.092 58.865 79.8906 58.6291 79.6862 58.3963C79.0263 57.639 78.3106 56.8723 77.3719 56.5216C77.3409 56.5092 77.3099 56.4999 77.2789 56.503C77.1984 56.5092 77.1457 56.6023 77.1488 56.683C77.1519 56.7637 77.1922 56.8413 77.2232 56.9158C77.2913 57.0834 77.313 57.2634 77.3347 57.4403C77.3905 57.9152 77.4462 58.387 77.502 58.8619C77.5856 59.5758 77.6724 60.2959 77.9233 60.9663C78.1743 61.6398 78.6142 62.2668 79.2462 62.6051C79.4569 62.7169 79.6861 62.7945 79.9216 62.8503C80.1416 62.9031 80.3739 62.9372 80.597 62.8907C80.8944 62.8286 81.1577 62.6175 81.2848 62.3382C81.4304 62.0185 81.356 61.6398 81.2538 61.3201C81.1237 60.9197 80.9935 60.5225 80.8231 60.1438Z" fill="#565D70"/>
<path d="M77.7005 66.4381C77.3504 66.2705 76.991 66.1184 76.6161 66.016C76.3187 65.9353 76.012 65.8856 75.7053 65.8391C74.7139 65.687 73.6729 65.5628 72.728 65.9012C72.697 65.9136 72.666 65.9229 72.6443 65.9477C72.5855 66.0067 72.6072 66.1091 72.6598 66.1712C72.7156 66.2333 72.7931 66.2612 72.8674 66.3015C73.0254 66.3853 73.1586 66.5095 73.2888 66.6305C73.6357 66.9565 73.9827 67.2824 74.3328 67.6083C74.8564 68.0987 75.3862 68.5953 76.012 68.946C76.6378 69.2968 77.3752 69.4954 78.0753 69.3433C78.3108 69.2937 78.5338 69.2036 78.7476 69.095C78.9521 68.9926 79.1473 68.8684 79.2898 68.6884C79.4788 68.4494 79.5407 68.1173 79.4602 67.8224C79.3641 67.4841 79.0667 67.242 78.7817 67.062C78.4316 66.8416 78.0784 66.6181 77.7005 66.4381Z" fill="#565D70"/>
<path d="M77.9234 72.9253C77.5733 72.7577 77.2139 72.6056 76.839 72.5032C76.5416 72.4225 76.2349 72.3728 75.9282 72.3263C74.9368 72.1742 73.8958 72.05 72.9509 72.3883C72.9199 72.4008 72.8889 72.4101 72.8672 72.4349C72.8084 72.4939 72.8301 72.5963 72.8827 72.6584C72.9385 72.7204 73.016 72.7484 73.0903 72.7887C73.2483 72.8725 73.3815 72.9967 73.5117 73.1177C73.8586 73.4436 74.2056 73.7695 74.5557 74.0954C75.0793 74.5859 75.6091 75.0825 76.2349 75.4332C76.8607 75.7839 77.5981 75.9826 78.2982 75.8305C78.5337 75.7808 78.7567 75.6908 78.9705 75.5822C79.175 75.4798 79.3702 75.3556 79.5127 75.1756C79.7017 74.9366 79.7636 74.6045 79.6831 74.3096C79.587 73.9713 79.2896 73.7292 79.0046 73.5492C78.6514 73.3257 78.2982 73.1053 77.9234 72.9253Z" fill="#565D70"/>
<path d="M76.1922 68.7099C76.5051 67.2728 77.4965 65.5719 78.9402 65.845C79.9564 66.0375 80.5078 67.1393 80.8084 68.1326C81.4683 70.299 81.6758 72.6052 81.4156 74.8555C81.4652 71.8944 82.2769 68.952 83.7547 66.3882C84.2256 65.5688 84.8886 64.7121 85.8273 64.6283C86.8156 64.5383 87.6862 65.4074 87.9557 66.3634C88.2252 67.3225 88.0424 68.3405 87.8565 69.3182C88.4173 63.6289 89.6627 57.3188 94.344 54.0504C95.2889 53.3893 96.3887 52.8772 97.5412 52.8772C98.6937 52.8772 99.8958 53.4918 100.339 54.5595C100.58 55.1399 100.584 55.7886 100.54 56.4156C100.172 61.6673 96.8596 66.2175 93.3712 70.1594C94.2046 69.79 95.0689 69.4144 95.9798 69.402C96.8906 69.3896 97.8727 69.8366 98.2073 70.687C98.6194 71.7361 97.9099 72.9094 97.0269 73.6108C96.1471 74.3123 95.0689 74.7686 94.3037 75.5973C95.9085 75.2217 98.0245 75.0603 98.7836 76.5284C99.1182 77.1802 99.0469 77.9624 98.8951 78.6794C97.9812 82.9348 94.2603 86.4328 89.9633 87.0784C80.2073 88.5372 74.386 76.9909 76.1922 68.7099Z" fill="#F2EDE4"/>
<path d="M84.1107 85.2411C84.1014 85.2411 84.0921 85.2411 84.0828 85.238C84.027 85.2225 83.9961 85.1635 84.0115 85.1107C84.0797 84.8749 90.8491 61.4812 98.6129 54.6745C98.6563 54.6373 98.7214 54.6404 98.7586 54.6838C98.7957 54.7273 98.7926 54.7925 98.7493 54.8297C91.0319 61.5992 84.278 84.9307 84.2129 85.1666C84.1974 85.2132 84.1541 85.2411 84.1107 85.2411Z" fill="#D9C9AC"/>
<path d="M84.7769 83.053C84.7521 83.053 84.7305 83.0468 84.7119 83.0282C77.4716 77.1154 78.274 68.6047 78.2802 68.5209C78.2864 68.465 78.3391 68.4216 78.3948 68.4278C78.4506 68.434 78.494 68.4836 78.4878 68.5426C78.4785 68.6264 77.6916 77.0285 84.842 82.8668C84.8854 82.904 84.8947 82.9692 84.8575 83.0127C84.8358 83.0406 84.8048 83.053 84.7769 83.053Z" fill="#D9C9AC"/>
<path d="M86.6604 77.4228C86.6201 77.4228 86.5799 77.398 86.5644 77.3607C84.6312 72.7702 85.8177 66.1621 85.8301 66.0969C85.8394 66.0411 85.8921 66.0007 85.951 66.0131C86.0067 66.0224 86.0439 66.0783 86.0346 66.1342C86.0222 66.1994 84.848 72.7453 86.7565 77.28C86.7781 77.3328 86.7534 77.3949 86.7007 77.4166C86.6883 77.4197 86.6759 77.4228 86.6604 77.4228Z" fill="#D9C9AC"/>
<path d="M85.1822 84.1764C84.7144 84.1764 84.4418 84.1516 84.4263 84.1516C84.3705 84.1454 84.3272 84.0957 84.3334 84.0367C84.3396 83.9809 84.3891 83.9343 84.448 83.9436C84.5316 83.9529 92.8593 84.6792 97.0697 77.6801C97.1006 77.6304 97.1626 77.6149 97.2122 77.646C97.2617 77.677 97.2772 77.7391 97.2463 77.7887C93.7206 83.6488 87.3633 84.1764 85.1822 84.1764Z" fill="#D9C9AC"/>
<path d="M87.8008 74.3251C87.745 74.3251 87.6986 74.2817 87.6955 74.2258C87.6924 74.1699 87.7388 74.1203 87.7946 74.1172C87.8442 74.1141 92.7856 73.9216 96.206 70.9605C96.2493 70.9233 96.3144 70.9264 96.3516 70.9699C96.3887 71.0133 96.3857 71.0785 96.3423 71.1157C92.8662 74.1265 87.8535 74.322 87.8039 74.3251C87.8008 74.3251 87.8008 74.3251 87.8008 74.3251Z" fill="#D9C9AC"/>
<path d="M92.3885 63.8434C92.3358 63.8434 92.2894 63.8031 92.2832 63.7472C92.2801 63.71 92.0353 59.9729 93.8013 56.8908C93.8291 56.8412 93.8942 56.8256 93.9438 56.8536C93.9933 56.8815 94.0119 56.9467 93.9809 56.9964C92.246 60.0195 92.4876 63.6975 92.4907 63.7348C92.4938 63.7907 92.4505 63.8434 92.3947 63.8465C92.3947 63.8434 92.3916 63.8434 92.3885 63.8434Z" fill="#D9C9AC"/>
<path d="M94.7273 59.7306C94.684 59.7306 94.6406 59.7027 94.6282 59.6592C94.6096 59.6034 94.6406 59.5444 94.6964 59.5289C94.7335 59.5165 98.3397 58.3743 99.3931 57.0986C99.4303 57.0551 99.4953 57.0489 99.5387 57.0862C99.5821 57.1234 99.5883 57.1886 99.5511 57.232C98.4575 58.5543 94.907 59.681 94.7552 59.7275C94.749 59.7275 94.7397 59.7306 94.7273 59.7306Z" fill="#D9C9AC"/>
<path d="M91.0097 67.5861C90.7464 67.5861 90.5946 67.5427 90.5729 67.5365C90.5171 67.5178 90.4892 67.462 90.5047 67.4061C90.5233 67.3502 90.5791 67.3192 90.6349 67.3378C90.6503 67.3409 92.1932 67.7786 94.4176 65.5096C94.4579 65.4693 94.523 65.4662 94.5633 65.5096C94.6035 65.55 94.6035 65.6152 94.5633 65.6555C92.9244 67.3285 91.6448 67.5861 91.0097 67.5861Z" fill="#D9C9AC"/>
<path d="M85.4891 73.0958C85.0709 73.0958 84.0671 72.8754 83.4227 70.9231C83.4041 70.8672 83.4351 70.8082 83.4877 70.7927C83.5435 70.7741 83.6024 70.8052 83.6178 70.8579C84.3707 73.133 85.582 72.8878 85.6316 72.8754C85.6874 72.8599 85.7431 72.8971 85.7555 72.953C85.7679 73.0089 85.7339 73.0647 85.6781 73.0772C85.6688 73.0803 85.6006 73.0958 85.4891 73.0958Z" fill="#D9C9AC"/>
<path d="M80.3217 77.587C80.3186 77.587 80.3186 77.587 80.3155 77.587C80.2443 77.5808 78.5279 77.4473 77.4529 75.2219C77.4281 75.1691 77.4498 75.107 77.5024 75.0822C77.552 75.0574 77.6171 75.0791 77.6418 75.1319C78.6642 77.2487 80.3124 77.3759 80.3279 77.379C80.3837 77.3821 80.4301 77.4318 80.424 77.4908C80.424 77.5436 80.3775 77.587 80.3217 77.587Z" fill="#D9C9AC"/>
<path d="M82.1185 80.3617C82.0968 80.3617 82.0752 80.3555 82.0566 80.3399C82.0101 80.3058 82.0039 80.2406 82.038 80.1941C82.0473 80.1816 83.0201 78.8594 82.2115 75.3893C82.1991 75.3335 82.2332 75.2776 82.2889 75.2652C82.3447 75.2528 82.4005 75.2869 82.4129 75.3428C83.2463 78.9246 82.2425 80.2686 82.1991 80.3213C82.1774 80.3493 82.1495 80.3617 82.1185 80.3617Z" fill="#D9C9AC"/>
<path d="M88.8202 83.7604C88.8109 83.7604 88.8016 83.7604 88.7954 83.7573C88.7396 83.7417 88.7055 83.6859 88.721 83.63C88.7737 83.4251 90.0439 78.5739 92.3954 77.4534C92.4481 77.4285 92.51 77.4503 92.5348 77.503C92.5596 77.5558 92.5379 77.6179 92.4852 77.6427C90.2236 78.7228 88.9379 83.6331 88.9255 83.6828C88.91 83.7293 88.8666 83.7604 88.8202 83.7604Z" fill="#D9C9AC"/>
<path d="M93.9971 83.016C93.8267 83.016 93.6687 82.9881 93.5262 82.9291C92.9375 82.6932 92.8074 82.0694 92.8012 82.0414C92.7888 81.9855 92.826 81.9297 92.8818 81.9204C92.9406 81.9079 92.9933 81.9452 93.0057 82.0011C93.0057 82.0073 93.1203 82.5442 93.6067 82.7367C94.1117 82.9353 94.8615 82.7025 95.7785 82.0538C95.825 82.0197 95.89 82.0321 95.9241 82.0787C95.9582 82.1252 95.9458 82.1904 95.8993 82.2245C95.1496 82.7491 94.5145 83.016 93.9971 83.016Z" fill="#D9C9AC"/>
<rect x="53.7253" y="15.009" width="5.86056" height="14.6514" rx="2.93028" fill="#FDFFFC"/>
<rect x="43.9578" y="19.8858" width="5.86056" height="14.6514" rx="2.93028" transform="rotate(-41.7192 43.9578 19.8858)" fill="#FDFFFC"/>
<rect x="64.7734" y="15.9854" width="5.86056" height="14.6514" rx="2.93028" transform="rotate(43.4252 64.7734 15.9854)" fill="#FDFFFC"/>
<path d="M23.9698 52.9901C21.4262 52.9901 18.9136 51.671 16.4909 49.0607C16.2957 48.8496 16.3081 48.5206 16.5188 48.325C16.7295 48.1295 17.0579 48.1419 17.2531 48.353C19.62 50.9043 22.0396 52.1086 24.4376 51.9317C28.2049 51.6524 30.7174 48.0488 30.7422 48.0116C30.9064 47.7757 31.2286 47.7136 31.4641 47.8781C31.6995 48.0395 31.7615 48.3654 31.5973 48.6013C31.4827 48.7658 28.7718 52.6549 24.5119 52.9715C24.3322 52.9808 24.1494 52.9901 23.9698 52.9901Z" fill="#E9F2DE"/>
<path d="M15.1468 50.1129C15.0663 50.1129 14.9857 50.1098 14.9052 50.1005C14.6139 50.0663 14.363 49.9763 14.1616 49.8336C13.5265 49.3773 13.4924 48.5082 13.7868 47.9216C13.9138 47.664 14.2267 47.5585 14.4838 47.6888C14.741 47.8161 14.8432 48.1296 14.7162 48.3872C14.6078 48.6044 14.6325 48.89 14.7689 48.9893C14.8246 49.0297 14.9114 49.0545 15.0229 49.07C15.3606 49.1073 15.7107 48.9955 15.9616 48.7658C16.2126 48.5362 16.3582 48.1978 16.3551 47.8595C16.352 47.7509 16.3365 47.6578 16.3055 47.5864C16.2405 47.4343 16.0825 47.3101 15.8997 47.2698C15.7107 47.2294 15.4845 47.276 15.3017 47.3971C15.0601 47.5522 14.7379 47.484 14.583 47.245C14.4281 47.0029 14.4962 46.6801 14.7348 46.5249C15.1499 46.2548 15.6518 46.1524 16.1134 46.2517C16.6246 46.3604 17.0646 46.7173 17.2628 47.1829C17.3465 47.3784 17.3899 47.6019 17.393 47.844C17.4022 48.4772 17.1296 49.1104 16.6618 49.5387C16.2497 49.9049 15.6983 50.1129 15.1468 50.1129Z" fill="#E9F2DE"/>
<path d="M15.7601 52.459C15.5402 52.459 15.3357 52.3193 15.2644 52.0958C14.589 49.9728 16.0947 48.5947 16.1598 48.5357C16.3736 48.3433 16.702 48.365 16.894 48.5792C17.083 48.7933 17.0675 49.1192 16.8538 49.3117C16.8073 49.3551 15.788 50.3111 16.2527 51.7792C16.3395 52.0524 16.1877 52.3472 15.915 52.4341C15.8655 52.4528 15.8128 52.459 15.7601 52.459Z" fill="#E9F2DE"/>
<path d="M14.4119 52.7509C14.2105 52.7509 14.0184 52.6329 13.9348 52.4374C13.3338 51.0406 14.3221 49.3894 14.3654 49.3211C14.5141 49.0759 14.8332 48.9983 15.0811 49.1473C15.3258 49.2963 15.4033 49.616 15.2546 49.8612C15.0439 50.2088 14.5699 51.2765 14.8921 52.0246C15.0067 52.2884 14.8859 52.5957 14.6195 52.7074C14.5513 52.7384 14.4801 52.7509 14.4119 52.7509Z" fill="#E9F2DE"/>
<path d="M86.2302 33.6715C74.8633 16.8022 57.1142 29.5682 57.1142 29.5682C57.1142 29.5682 40.5672 15.272 27.7503 31.0674C14.9335 46.8597 36.0811 71.647 55.1872 72.9661C74.3366 73.351 97.5972 50.544 86.2302 33.6715Z" fill="#93BFA8"/>
<path d="M86.2298 33.6717C79.9561 24.3602 71.7399 24.0777 65.6366 25.6948C70.3644 27.6037 83.8969 34.3266 81.8707 48.2008C80.3588 58.5645 69.1096 67.3049 60.7385 72.4666C78.4535 69.0586 96.5124 48.9364 86.2298 33.6717Z" fill="#80B996"/>
<path d="M57.1137 29.5716C57.1137 29.5716 48.0858 21.7747 38.2029 24.0623C48.2005 26.2908 53.8421 31.3873 53.8421 31.3873C55.2611 30.4965 57.1137 29.5716 57.1137 29.5716Z" fill="#80B996"/>
<path d="M33.3849 28.2804C31.4455 29.5157 29.8871 31.468 29.4937 33.7369C29.441 34.0349 29.41 34.3484 29.5092 34.6339C29.6703 35.0995 30.1567 35.3944 30.6462 35.4564C31.1357 35.5185 31.6252 35.3913 32.093 35.2361C34.398 34.4694 36.4737 33.0168 38.8623 32.5792C40.1109 32.3495 41.4121 32.4054 42.6172 32.0081C43.8224 31.6139 44.9656 30.5617 44.885 29.2953C44.7456 27.1102 41.7374 26.536 40.0117 26.3374C37.8369 26.0891 35.188 27.1319 33.3849 28.2804Z" fill="#66A986"/>
<path d="M59.8529 30.2324C59.7878 30.4497 59.7445 30.6856 59.8095 30.9028C59.9427 31.3405 60.4539 31.5329 60.9032 31.6105C62.0154 31.803 63.1803 31.6788 64.2243 31.2598C64.8811 30.996 65.5038 30.6049 65.9438 30.0493C66.6842 29.1119 66.8608 26.9672 65.3273 26.6909C64.15 26.4768 62.3159 27.4452 61.4174 28.1094C60.708 28.6371 60.1131 29.3665 59.8529 30.2324Z" fill="#66A986"/>
<path d="M56.5468 30.7854C56.3733 31.0833 56.3578 31.4899 56.5747 31.7569C56.7606 31.9866 57.0735 32.0735 57.3647 32.1293C57.6621 32.1852 57.9843 32.2193 58.2507 32.0735C58.3933 31.9959 58.5048 31.8748 58.6008 31.7444C58.8611 31.403 59.047 30.9312 58.8487 30.5495C58.7248 30.3136 58.4769 30.1615 58.2167 30.0994C57.5785 29.9411 56.8907 30.2018 56.5468 30.7854Z" fill="#66A986"/>
<path d="M45.9948 40.4132C46.0754 40.8353 46.0939 41.2295 46.0816 41.6485C46.0599 42.0613 45.9979 42.4835 45.8399 42.8963C45.6881 43.3091 45.4186 43.7157 45.0282 43.995C44.644 44.2806 44.1762 44.4109 43.7332 44.4389C43.507 44.4544 43.2716 44.4327 43.0361 44.3768C42.8007 44.3147 42.5683 44.203 42.3731 44.0478C41.9735 43.7343 41.7566 43.2936 41.642 42.8777C41.4158 42.0334 41.4499 41.2264 41.5862 40.4132C41.6172 40.2301 41.7907 40.1059 41.9735 40.137C42.147 40.168 42.2678 40.3263 42.2523 40.5001L42.2492 40.5218C42.2151 40.8695 42.2027 41.2512 42.2244 41.6082C42.2461 41.9682 42.2926 42.3252 42.3979 42.6449C42.5032 42.9615 42.655 43.2408 42.875 43.4022C42.9834 43.4829 43.1043 43.5419 43.2406 43.576C43.38 43.6039 43.5287 43.6195 43.6898 43.6071C44.012 43.5884 44.3187 43.5015 44.5542 43.3308C44.7989 43.1632 44.9755 42.9025 45.1057 42.6014C45.2358 42.2972 45.3039 41.9496 45.338 41.5958C45.3752 41.245 45.369 40.8664 45.338 40.5249L45.3349 40.5063C45.3163 40.3201 45.4526 40.1556 45.6385 40.1401C45.8089 40.1245 45.9638 40.2456 45.9948 40.4132Z" fill="#3F4553"/>
<path d="M61.2622 40.5251C61.2312 40.8665 61.225 41.2452 61.2622 41.5959C61.2932 41.9497 61.3644 42.2974 61.4945 42.6016C61.6247 42.9057 61.8012 43.1634 62.046 43.331C62.2846 43.5048 62.5882 43.5917 62.9104 43.6072C63.0684 43.6196 63.2202 43.6041 63.3596 43.5762C63.4959 43.542 63.6167 43.483 63.7252 43.4023C63.942 43.2409 64.0969 42.9616 64.2023 42.645C64.3076 42.3284 64.3541 41.9684 64.3758 41.6083C64.4006 41.2514 64.3851 40.8696 64.351 40.522L64.3479 40.5003C64.3293 40.314 64.4656 40.1495 64.6515 40.134C64.8281 40.1185 64.9861 40.2426 65.014 40.4133C65.1503 41.2266 65.1844 42.0305 64.9582 42.8778C64.8436 43.2937 64.6236 43.7345 64.2271 44.0479C64.0319 44.2031 63.7995 44.3149 63.5641 44.377C63.3286 44.4328 63.0901 44.4546 62.867 44.439C62.4271 44.4142 61.9593 44.2807 61.572 43.9952C61.1847 43.7158 60.9121 43.3092 60.7603 42.8964C60.6023 42.4836 60.5403 42.0615 60.5186 41.6487C60.5062 41.2297 60.5248 40.8355 60.6054 40.4133C60.6395 40.2302 60.8161 40.1092 60.9988 40.1433C61.1692 40.1743 61.287 40.3326 61.2715 40.5034L61.2622 40.5251Z" fill="#3F4553"/>
<path d="M53.133 46.4254C52.563 46.4254 52.0549 46.3509 51.6304 46.2516C50.2952 45.935 49.4742 45.3111 49.437 45.2832C49.2914 45.1684 49.2635 44.9573 49.375 44.8114C49.4896 44.6655 49.7003 44.6376 49.8459 44.7493C49.9668 44.8425 52.8573 46.9934 56.575 44.7276C56.733 44.6314 56.9406 44.6811 57.0366 44.8394C57.1327 44.9977 57.0831 45.2056 56.9251 45.3018C55.5186 46.1585 54.2112 46.4254 53.133 46.4254Z" fill="#3F4553"/>
<path d="M95.9828 56.3363C95.2423 56.3363 94.5112 56.2649 93.7831 56.1252C87.4568 54.8992 83.9714 48.8188 83.8258 48.5612C83.6833 48.3098 83.7732 47.9932 84.0241 47.8535C84.2751 47.7138 84.5911 47.8007 84.7305 48.0522C84.7646 48.1111 88.1353 53.9774 93.9876 55.1072C97.6527 55.8148 101.532 54.5423 105.528 51.3329C105.751 51.1529 106.08 51.1901 106.259 51.4136C106.439 51.6371 106.402 51.9661 106.179 52.1461C102.706 54.9303 99.2854 56.3363 95.9828 56.3363Z" fill="#E9F2DE"/>
<path d="M49.2326 75.6723C48.8515 75.6723 48.4736 75.6661 48.0956 75.6568C47.8075 75.6475 47.5813 75.4085 47.5906 75.1229C47.5999 74.8343 47.8354 74.617 48.1235 74.617C52.5848 74.738 57.328 74.1297 61.8419 72.8571C62.5173 72.6678 63.3011 72.4164 64.0044 71.9973C64.3142 71.8111 64.3978 71.6839 64.4133 71.6094C64.4443 71.4542 64.2181 71.2121 63.9145 71.0662C63.2082 70.731 62.3562 70.7217 61.7768 70.7403C59.7445 70.8117 57.7555 71.4107 56.0206 72.4784C55.7758 72.6274 55.4567 72.5529 55.3049 72.3077C55.1562 72.0625 55.2305 71.7428 55.4753 71.5907C57.362 70.4299 59.5276 69.7781 61.7397 69.7005C62.4243 69.6757 63.4436 69.6943 64.3545 70.1257C64.9462 70.4051 65.5844 71.0134 65.4295 71.8049C65.3211 72.3636 64.8656 72.6926 64.5341 72.8913C63.7224 73.3755 62.8178 73.6641 62.1207 73.8596C57.8887 75.0515 53.4553 75.6723 49.2326 75.6723Z" fill="#E9F2DE"/>
<path d="M60.8255 75.6881C56.5997 75.6881 52.2778 75.0735 47.9622 73.8599C47.2651 73.6643 46.3604 73.3757 45.5487 72.8915C45.2172 72.6928 44.7618 72.3638 44.6534 71.8052C44.5016 71.0137 45.1367 70.4053 45.7284 70.126C46.6393 69.6945 47.6586 69.6759 48.3432 69.7007C50.5553 69.7783 52.7209 70.4302 54.6076 71.591C54.8524 71.74 54.9298 72.0628 54.778 72.308C54.6293 72.5532 54.3071 72.6308 54.0623 72.4787C52.3274 71.4141 50.3384 70.8119 48.3061 70.7405C47.7298 70.7219 46.8778 70.7312 46.1715 71.0664C45.8648 71.2123 45.6417 71.4544 45.6727 71.6065C45.6882 71.681 45.7687 71.8114 46.0785 71.9945C46.7818 72.4135 47.5656 72.6649 48.241 72.8543C52.8541 74.1517 57.4703 74.7538 61.9594 74.6296C62.2506 74.6328 62.4861 74.85 62.4923 75.1356C62.4985 75.4242 62.2723 75.6632 61.9873 75.6694C61.6031 75.6819 61.2128 75.6881 60.8255 75.6881Z" fill="#E9F2DE"/>
<path d="M60.9434 76.4203C60.8443 76.6531 60.7575 76.8952 60.7544 77.1466C60.7483 77.398 60.8381 77.665 61.0333 77.8202C61.3028 78.0374 61.718 77.994 61.9999 77.7891C62.2818 77.5843 62.446 77.2584 62.5452 76.9263C62.7187 76.3552 62.7249 75.7344 62.5669 75.1602C62.5142 74.9708 62.4089 74.7194 62.1827 74.6884C61.972 74.6573 61.8667 74.8498 61.7644 75.0019C61.4546 75.4581 61.1603 75.9144 60.9434 76.4203Z" fill="#E9F2DE"/>
<path d="M49.1705 76.4203C49.2696 76.6531 49.3563 76.8952 49.3594 77.1466C49.3656 77.398 49.2758 77.665 49.0806 77.8202C48.8111 78.0374 48.3959 77.994 48.114 77.7891C47.8321 77.5843 47.6679 77.2584 47.5687 76.9263C47.3952 76.3552 47.389 75.7344 47.547 75.1602C47.5997 74.9708 47.705 74.7194 47.9312 74.6884C48.1419 74.6573 48.2472 74.8498 48.3495 75.0019C48.6593 75.4581 48.9536 75.9144 49.1705 76.4203Z" fill="#E9F2DE"/>
<path d="M55.6852 89.0002C64.663 89.0002 71.941 88.1094 71.941 87.0106C71.941 85.9118 64.663 85.0211 55.6852 85.0211C46.7074 85.0211 39.4294 85.9118 39.4294 87.0106C39.4294 88.1094 46.7074 89.0002 55.6852 89.0002Z" fill="#808AFF"/>
<path d="M34.5405 84.9149C34.6087 84.918 34.6737 84.8714 34.6892 84.8001C35.504 81.3517 36.0617 77.8133 36.3467 74.2812C36.4242 73.3221 36.4985 72.1892 36.4583 71.047C36.3405 67.6669 35.25 64.2899 33.3013 61.2761C31.4982 58.4857 28.9392 56.0151 25.9061 54.1248C25.8379 54.0814 25.745 54.1031 25.7016 54.1714C25.6583 54.2397 25.6799 54.3328 25.7481 54.3762C28.7471 56.2416 31.272 58.6813 33.0503 61.4344C34.9681 64.4016 36.0431 67.7289 36.1577 71.0532C36.198 72.1798 36.1237 73.3034 36.0462 74.2532C35.7612 77.7699 35.2066 81.2958 34.398 84.7287C34.3794 84.8094 34.429 84.887 34.5065 84.9056C34.5219 84.9118 34.5312 84.9149 34.5405 84.9149Z" fill="#565D70"/>
<path d="M25.4013 53.1565C25.2588 53.0293 25.0884 52.933 24.9149 52.8523C24.3758 52.5947 23.75 52.4364 23.1831 52.6227C23.1304 52.6382 23.0808 52.6599 23.0406 52.7003C23.0034 52.7375 22.9848 52.7903 22.9755 52.8399C22.9414 53.0355 23.0468 53.2248 23.1614 53.3831C23.5115 53.858 24.0258 54.1963 24.5865 54.3577C24.9087 54.4508 26.0581 54.6867 25.9218 54.0784C25.8536 53.74 25.6616 53.3862 25.4013 53.1565Z" fill="#565D70"/>
<path d="M27.9538 56.5927C27.2784 56.5275 26.5968 56.571 25.9215 56.6238C25.4908 56.6579 25.0602 56.6983 24.6295 56.7417C24.5428 56.751 24.4375 56.779 24.422 56.8628C24.4034 56.9559 24.5149 57.018 24.6017 57.0583C25.2027 57.3283 25.5714 57.946 26.1197 58.3123C26.5163 58.5761 26.9903 58.6971 27.4643 58.7623C27.8609 58.8151 28.2636 58.8306 28.6633 58.8089C28.9886 58.7902 29.3263 58.7406 29.5927 58.5544C29.8622 58.365 30.0264 58.036 30.0326 57.707C30.0388 57.2973 29.7197 57.0521 29.3696 56.9186C28.9173 56.7417 28.434 56.6393 27.9538 56.5927Z" fill="#565D70"/>
<path d="M32.1423 62.2573C31.4669 62.1921 30.7853 62.2356 30.1099 62.2883C29.6793 62.3225 29.2487 62.3628 28.818 62.4063C28.7313 62.4156 28.6259 62.4435 28.6105 62.5273C28.5919 62.6204 28.7034 62.6825 28.7901 62.7229C29.3912 62.9929 29.7599 63.6105 30.3082 63.9768C30.7048 64.2406 31.1788 64.3617 31.6528 64.4268C32.0494 64.4796 32.4521 64.4951 32.8518 64.4734C33.1771 64.4548 33.5148 64.4051 33.7812 64.2189C34.0507 64.0296 34.2149 63.7005 34.2211 63.3715C34.2273 62.9618 33.9082 62.7166 33.5581 62.5832C33.1027 62.4094 32.6194 62.3038 32.1423 62.2573Z" fill="#565D70"/>
<path d="M34.373 67.5618C33.7533 67.2886 33.0903 67.1148 32.4335 66.9534C32.0122 66.851 31.5909 66.7548 31.1695 66.6585C31.0859 66.6399 30.9774 66.6337 30.9341 66.7082C30.8876 66.792 30.9712 66.8851 31.0425 66.9472C31.5289 67.3942 31.6838 68.0956 32.0897 68.614C32.384 68.9895 32.796 69.2533 33.2236 69.4613C33.5829 69.6351 33.9609 69.7779 34.3482 69.8803C34.6611 69.9641 34.9988 70.0231 35.3117 69.93C35.6277 69.8338 35.8848 69.5761 35.9964 69.2627C36.1327 68.8778 35.9065 68.5426 35.6153 68.3067C35.2404 68.0056 34.8129 67.7542 34.373 67.5618Z" fill="#565D70"/>
<path d="M34.6428 74.0734C34.0511 73.7382 33.4129 73.5023 32.7716 73.2757C32.3626 73.133 31.9537 72.9933 31.5416 72.8598C31.4611 72.8319 31.3526 72.8133 31.3031 72.8847C31.2504 72.9623 31.3247 73.0647 31.3867 73.1361C31.8266 73.6265 31.9134 74.3435 32.2666 74.899C32.5206 75.3025 32.9079 75.6067 33.3137 75.855C33.6545 76.0661 34.017 76.243 34.3919 76.3827C34.6955 76.4975 35.0239 76.5906 35.343 76.5254C35.6652 76.4603 35.9502 76.2306 36.0896 75.9295C36.2631 75.5571 36.071 75.2032 35.8046 74.9394C35.4607 74.6011 35.0611 74.3093 34.6428 74.0734Z" fill="#565D70"/>
<path d="M31.2937 57.3742C31.2937 56.9862 31.3061 56.5951 31.3743 56.2133C31.4269 55.9092 31.5137 55.6081 31.6035 55.3132C31.8916 54.351 32.2231 53.3547 32.9326 52.6439C32.9543 52.6222 32.9791 52.5974 33.0101 52.588C33.0875 52.5601 33.1712 52.6222 33.2021 52.6998C33.2331 52.7743 33.2269 52.8612 33.23 52.9419C33.2362 53.1219 33.292 53.2957 33.3477 53.4664C33.4934 53.9196 33.639 54.3759 33.7846 54.829C34.0045 55.5119 34.2245 56.204 34.2741 56.921C34.3236 57.638 34.1873 58.3922 33.7505 58.9602C33.6049 59.1496 33.4283 59.3172 33.2393 59.463C33.0596 59.6027 32.8613 59.73 32.6414 59.7796C32.344 59.8479 32.0187 59.7641 31.7894 59.5624C31.5261 59.3327 31.4331 58.9571 31.3959 58.6219C31.3433 58.206 31.2968 57.7901 31.2937 57.3742Z" fill="#565D70"/>
<path d="M34.9308 61.7051C35.0919 61.3513 35.2654 61.0006 35.4853 60.6809C35.6619 60.4264 35.8633 60.1905 36.0678 59.9577C36.7277 59.2003 37.4433 58.4337 38.382 58.0829C38.413 58.0705 38.444 58.0612 38.475 58.0643C38.5555 58.0705 38.6082 58.1636 38.6051 58.2443C38.602 58.325 38.5617 58.4026 38.5308 58.4771C38.4626 58.6447 38.4409 58.8248 38.4192 59.0017C38.3635 59.4766 38.3077 59.9484 38.2519 60.4232C38.1683 61.1371 38.0815 61.8572 37.8306 62.5277C37.5796 63.2012 37.1397 63.8282 36.5077 64.1665C36.297 64.2782 36.0678 64.3558 35.8323 64.4117C35.6123 64.4645 35.38 64.4986 35.1569 64.452C34.8595 64.39 34.5962 64.1789 34.4691 63.8996C34.3235 63.5799 34.3979 63.2012 34.5001 62.8815C34.6333 62.4811 34.7604 62.0838 34.9308 61.7051Z" fill="#565D70"/>
<path d="M38.0542 68.0018C38.4043 67.8342 38.7637 67.6821 39.1386 67.5797C39.436 67.499 39.7427 67.4494 40.0494 67.4028C41.0408 67.2507 42.0818 67.1265 43.0267 67.4649C43.0577 67.4742 43.0887 67.4866 43.1103 67.5114C43.1692 67.5704 43.1475 67.6728 43.0948 67.7349C43.0391 67.797 42.9616 67.828 42.8873 67.8653C42.7293 67.9491 42.5961 68.0732 42.4659 68.1943C42.1189 68.5202 41.772 68.8461 41.4219 69.172C40.8983 69.6624 40.3685 70.159 39.7427 70.5097C39.1169 70.8605 38.3795 71.0591 37.6794 70.907C37.4439 70.8574 37.2208 70.7674 37.0071 70.6587C36.8026 70.5563 36.6074 70.4321 36.4649 70.2521C36.2759 70.0131 36.214 69.681 36.2945 69.3861C36.3906 69.0478 36.688 68.8057 36.973 68.6257C37.3262 68.4022 37.6763 68.1788 38.0542 68.0018Z" fill="#565D70"/>
<path d="M37.8343 74.4862C38.1844 74.3186 38.5437 74.1665 38.9186 74.0641C39.216 73.9834 39.5227 73.9337 39.8294 73.8872C40.8208 73.7351 41.8618 73.6109 42.8067 73.9492C42.8377 73.9617 42.8687 73.971 42.8904 73.9958C42.9492 74.0548 42.9275 74.1572 42.8749 74.2193C42.8191 74.2814 42.7417 74.3124 42.6673 74.3496C42.5093 74.4334 42.3761 74.5576 42.246 74.6786C41.899 75.0045 41.552 75.3304 41.2019 75.6564C40.6783 76.1468 40.1485 76.6434 39.5227 76.9941C38.8969 77.3448 38.1596 77.5435 37.4594 77.3914C37.2239 77.3417 37.0009 77.2517 36.7871 77.1431C36.5826 77.0407 36.3875 76.9165 36.2449 76.7365C36.056 76.4975 35.994 76.1654 36.0745 75.8705C36.1706 75.5322 36.468 75.2901 36.753 75.1101C37.1031 74.8866 37.4563 74.6662 37.8343 74.4862Z" fill="#565D70"/>
<path d="M45.4183 74.9456C45.4338 74.8369 45.4461 74.7314 45.4523 74.6228C45.7838 69.787 39.8169 72.4966 38.3081 74.7004C38.841 73.6637 38.3267 72.2297 37.261 71.7641C36.1952 71.3017 34.798 71.91 34.4076 73.0057C34.7112 70.5412 35.0179 68.0768 35.3215 65.6123C35.4579 64.5105 35.5384 63.2379 34.7515 62.4557C33.8685 61.5836 32.2885 61.8691 31.4148 62.7506C30.5412 63.6321 30.2097 64.9078 29.9897 66.1338C28.9208 65.0009 26.6066 65.9569 26.6468 67.515C26.7801 64.3553 26.8947 61.0838 25.705 58.1538C24.9429 56.276 23.1522 54.4199 21.188 54.9041C19.4468 55.3324 18.6258 57.3189 18.2974 59.085C17.5415 63.1572 18.0248 67.4498 19.6699 71.2489C19.199 70.1532 17.3897 70.3643 16.7763 71.3855C16.1628 72.4097 16.4324 73.7289 16.8909 74.8307C15.7508 73.6668 14.2513 72.7667 12.6248 72.7046C10.9983 72.6425 9.28195 73.5954 8.79245 75.1473C8.29985 76.7023 9.43375 78.6578 11.0603 78.7074C10.0286 78.8285 9.47093 80.1104 9.73427 81.116C11.0541 86.1597 24.4286 86.8736 28.4561 86.4732C34.5036 85.868 40.4241 82.9162 43.9993 77.9904C44.6592 77.0779 45.2541 76.0567 45.4183 74.9456Z" fill="#F2EDE4"/>
<path d="M28.3509 85.5018C28.3199 85.5018 28.2889 85.4863 28.2672 85.4584C24.9399 80.9889 23.3041 73.2448 22.5141 67.5399C21.659 61.3633 21.5908 56.1737 21.5908 56.1209C21.5908 56.065 21.6373 56.0154 21.6931 56.0154C21.7488 56.0154 21.7953 56.0619 21.7984 56.1178C21.8015 56.3227 22.1144 76.839 28.4345 85.3342C28.4686 85.3808 28.4593 85.446 28.4129 85.4801C28.3943 85.4956 28.3726 85.5018 28.3509 85.5018Z" fill="#D9C9AC"/>
<path d="M26.5011 84.5948C19.0904 84.5948 11.8904 80.327 11.8161 80.2835C11.7665 80.2556 11.751 80.1904 11.7789 80.1408C11.8099 80.0911 11.8718 80.0756 11.9214 80.1035C12.002 80.1501 19.9424 84.8555 27.6908 84.3465C27.7466 84.3465 27.7961 84.3868 27.8023 84.4427C27.8054 84.4986 27.762 84.5482 27.7063 84.5544C27.3066 84.5824 26.9039 84.5948 26.5011 84.5948Z" fill="#D9C9AC"/>
<path d="M25.6157 80.2967C25.5785 80.2967 25.5413 80.275 25.5227 80.2377C25.498 80.185 25.5196 80.1229 25.5692 80.0981C33.0821 76.3486 33.361 63.4025 33.361 63.2722C33.361 63.2163 33.4105 63.1697 33.4663 63.1697C33.5221 63.1697 33.5685 63.2163 33.5685 63.2753C33.5654 63.4056 33.2866 76.4759 25.6622 80.2843C25.6467 80.2936 25.6312 80.2967 25.6157 80.2967Z" fill="#D9C9AC"/>
<path d="M26.0673 81.8674C17.089 81.8674 11.1189 74.8807 11.0601 74.8093C11.0229 74.7659 11.0291 74.7007 11.0724 74.6634C11.1158 74.6262 11.1809 74.6324 11.2181 74.6759C11.2769 74.7472 17.2842 81.765 26.2656 81.6564C26.3213 81.6564 26.3678 81.7029 26.3709 81.7588C26.3709 81.8147 26.3244 81.8643 26.2687 81.8643C26.2005 81.8674 26.1354 81.8674 26.0673 81.8674Z" fill="#D9C9AC"/>
<path d="M24.7295 77.7113C24.7202 77.7113 24.714 77.7113 24.7047 77.7082C19.3822 76.4232 18.146 71.8078 18.1336 71.7643C18.1181 71.7084 18.1522 71.6526 18.208 71.6371C18.2637 71.6215 18.3195 71.6557 18.335 71.7116C18.3474 71.7581 19.5557 76.2494 24.7543 77.5064C24.8101 77.5188 24.8441 77.5747 24.8317 77.6306C24.8193 77.6771 24.7791 77.7113 24.7295 77.7113Z" fill="#D9C9AC"/>
<path d="M24.2578 76.0565C24.2206 76.0565 24.1834 76.0348 24.1648 75.9976C24.1401 75.9448 24.1617 75.8827 24.2113 75.8579C27.1049 74.4208 28.7407 66.7481 28.7562 66.6705C28.7686 66.6147 28.8244 66.5774 28.8802 66.5899C28.9359 66.6023 28.9731 66.6581 28.9607 66.714C28.8925 67.0337 27.2877 74.5605 24.3043 76.0441C24.2888 76.0534 24.2733 76.0565 24.2578 76.0565Z" fill="#D9C9AC"/>
<path d="M22.4549 66.4064C22.4332 66.4064 22.4115 66.4002 22.3898 66.3847C20.3048 64.7676 19.4094 60.236 19.3723 60.0435C19.3599 59.9877 19.397 59.9318 19.4559 59.9225C19.5117 59.9101 19.5674 59.9473 19.5767 60.0063C19.586 60.0528 20.4938 64.6527 22.5168 66.2202C22.5633 66.2543 22.5695 66.3195 22.5354 66.366C22.5168 66.394 22.4858 66.4064 22.4549 66.4064Z" fill="#D9C9AC"/>
<path d="M23.1246 70.8639C23.1091 70.8639 23.0936 70.8608 23.0781 70.8546C23.0254 70.8297 23.0038 70.7677 23.0285 70.7149C23.0533 70.6621 25.5535 65.4104 24.9153 61.4251C24.906 61.3692 24.9463 61.3165 25.002 61.3071C25.0578 61.2978 25.1136 61.3351 25.1198 61.3941C25.7673 65.4446 23.2392 70.7552 23.2144 70.808C23.202 70.8422 23.1649 70.8639 23.1246 70.8639Z" fill="#D9C9AC"/>
<path d="M27.0714 72.363C27.0342 72.363 26.997 72.3413 26.9785 72.304C26.9413 72.2295 26.0707 70.4386 26.0211 68.7284C26.018 68.6725 26.0645 68.6229 26.1234 68.6229C26.1822 68.6229 26.2287 68.6663 26.2287 68.7253C26.2752 70.392 27.1551 72.1985 27.1643 72.2171C27.1891 72.2699 27.1674 72.3319 27.1179 72.3568C27.1024 72.3599 27.0869 72.363 27.0714 72.363Z" fill="#D9C9AC"/>
<path d="M19.4439 76.2307C18.9327 76.2307 18.3534 76.1872 17.7709 76.0507C17.7151 76.0382 17.6811 75.9824 17.6935 75.9265C17.7059 75.8706 17.7647 75.8365 17.8174 75.8489C19.4811 76.2338 21.1664 75.852 21.185 75.8489C21.2408 75.8365 21.2966 75.8706 21.3089 75.9265C21.3213 75.9824 21.2873 76.0382 21.2315 76.0507C21.185 76.0631 20.4384 76.2307 19.4439 76.2307Z" fill="#D9C9AC"/>
<path d="M18.703 80.2963C18.6596 80.2963 18.6194 80.2714 18.6039 80.228C18.5946 80.2062 17.7736 77.9498 17.0579 76.8324C17.0269 76.7827 17.0393 76.7206 17.0889 76.6896C17.1385 76.6586 17.2004 76.6741 17.2314 76.7206C17.9595 77.8567 18.765 80.0635 18.799 80.1566C18.8176 80.2094 18.7897 80.2714 18.7371 80.2901C18.7278 80.2963 18.7154 80.2963 18.703 80.2963Z" fill="#D9C9AC"/>
<path d="M15.2925 81.997C15.2616 81.997 15.2306 81.9815 15.2089 81.9567C15.1748 81.9101 15.181 81.845 15.2275 81.8108C15.2306 81.8077 15.6333 81.488 15.6922 80.9573C15.7356 80.5538 15.5745 80.1285 15.212 79.6909C15.1748 79.6475 15.181 79.5823 15.2244 79.545C15.2677 79.5078 15.3328 79.514 15.37 79.5574C15.7696 80.0385 15.9493 80.5196 15.8967 80.9821C15.8285 81.6029 15.3731 81.9598 15.3545 81.9753C15.339 81.9908 15.3142 81.997 15.2925 81.997Z" fill="#D9C9AC"/>
<path d="M11.7292 77.2454C11.2707 77.2454 10.744 77.1523 10.1987 76.8699C10.1492 76.8419 10.1275 76.7799 10.1554 76.7302C10.1832 76.6805 10.2452 76.6588 10.2948 76.6868C11.7974 77.4658 13.1884 76.6961 13.2039 76.6899C13.2535 76.6619 13.3185 76.6805 13.3464 76.7302C13.3743 76.7799 13.3557 76.845 13.3061 76.873C13.2659 76.8916 12.6215 77.2454 11.7292 77.2454Z" fill="#D9C9AC"/>
<path d="M30.5633 75.1845C30.5261 75.1845 30.4889 75.1627 30.4703 75.1255C30.458 75.1007 29.2559 72.6114 29.8507 70.0848C29.8631 70.029 29.922 69.9948 29.9747 70.0072C30.0304 70.0197 30.0645 70.0755 30.0521 70.1314C29.4759 72.5896 30.6438 75.0107 30.6562 75.0355C30.681 75.0882 30.6593 75.1503 30.6098 75.1751C30.5943 75.1814 30.5788 75.1845 30.5633 75.1845Z" fill="#D9C9AC"/>
<path d="M26.9042 83.1768C26.8639 83.1768 26.8267 83.1551 26.8113 83.1179C26.7865 83.0651 26.8082 83.003 26.8608 82.9813C26.929 82.9503 33.5713 79.7999 36.53 73.7257C36.5548 73.6729 36.6168 73.6512 36.6694 73.6791C36.7221 73.7039 36.7438 73.766 36.7159 73.8188C33.7262 79.9613 27.0157 83.1396 26.9476 83.1737C26.9352 83.1737 26.9197 83.1768 26.9042 83.1768Z" fill="#D9C9AC"/>
<path d="M28.022 85.0419C27.9725 85.0419 27.9291 85.0047 27.9198 84.955C27.9105 84.8992 27.9508 84.8464 28.0065 84.8371C34.3886 83.8252 43.6055 73.7998 43.6985 73.7005C43.7356 73.6571 43.8038 73.654 43.8441 73.6943C43.8874 73.7316 43.8905 73.7998 43.8503 73.8402C43.7573 73.9426 34.4909 84.0208 28.0375 85.0419C28.0313 85.0419 28.0282 85.0419 28.022 85.0419Z" fill="#D9C9AC"/>
<path d="M32.3072 79.4588C32.2514 79.4588 32.205 79.4153 32.2019 79.3564C32.2019 79.3346 32.1492 77.1651 32.9578 75.042C32.9795 74.9893 33.0384 74.9613 33.091 74.9831C33.1437 75.0048 33.1716 75.0638 33.1499 75.1165C32.3537 77.1992 32.4063 79.3284 32.4063 79.3502C32.4125 79.4091 32.3692 79.4557 32.3072 79.4588C32.3103 79.4588 32.3103 79.4588 32.3072 79.4588Z" fill="#D9C9AC"/>
<path d="M35.0275 77.8509C34.4171 77.8509 34.033 77.7143 33.9989 77.7019C33.9462 77.6833 33.9183 77.6212 33.9369 77.5684C33.9555 77.5157 34.0144 77.4877 34.0701 77.5063C34.0887 77.5126 35.7834 78.1023 37.8034 76.69C37.8498 76.6559 37.9149 76.6683 37.949 76.7149C37.983 76.7614 37.9707 76.8266 37.9242 76.8607C36.781 77.6615 35.7462 77.8509 35.0275 77.8509Z" fill="#D9C9AC"/>
<path d="M37.1806 81.4265C36.2698 81.4265 35.8484 81.023 35.8237 80.9982C35.7834 80.9578 35.7834 80.8926 35.8237 80.8492C35.8639 80.8088 35.929 80.8088 35.9693 80.8492C35.9786 80.8585 36.8522 81.6779 38.8598 80.8275C38.9125 80.8026 38.9744 80.8306 38.9961 80.8833C39.0178 80.9361 38.993 80.9982 38.9404 81.0199C38.2247 81.3241 37.6392 81.4265 37.1806 81.4265Z" fill="#D9C9AC"/>
<path d="M31.7653 83.6917C31.7095 83.6917 31.663 83.6451 31.6599 83.5893C31.6599 83.5303 31.6444 82.1584 32.6018 81.0504C32.6389 81.0069 32.704 81.0038 32.7474 81.041C32.7907 81.0783 32.7969 81.1435 32.7567 81.1869C31.852 82.2329 31.8644 83.5707 31.8644 83.5862C31.8706 83.6451 31.8241 83.6917 31.7653 83.6917Z" fill="#D9C9AC"/>
<path d="M19.0752 36.7068C20.2556 36.7068 20.2556 34.8693 19.0752 34.8693C17.8948 34.8724 17.8948 36.7068 19.0752 36.7068Z" fill="#8E97FD"/>
<path d="M40.5481 4.77113C41.7284 4.77113 41.7284 2.93365 40.5481 2.93365C39.3677 2.93365 39.3646 4.77113 40.5481 4.77113Z" fill="#8E97FD"/>
<path d="M85.0711 23.1176C85.6597 23.1176 85.6628 22.1989 85.0711 22.1989C84.4824 22.1989 84.4793 23.1176 85.0711 23.1176Z" fill="#8E97FD"/>
<path d="M35.8175 15.8922C36.4061 15.8922 36.4092 14.9734 35.8175 14.9734C35.2288 14.9734 35.2288 15.8922 35.8175 15.8922Z" fill="#8E97FD"/>
<path d="M93.8947 22.1993C94.4834 22.1993 94.4865 21.2806 93.8947 21.2806C93.303 21.2806 93.303 22.1993 93.8947 22.1993Z" fill="#8E97FD"/>
<path d="M34.3955 7.74747C34.9842 7.74747 34.9873 6.82874 34.3955 6.82874C33.8069 6.82874 33.8038 7.74747 34.3955 7.74747Z" fill="#59D6B8"/>
<path d="M70.4544 74.4833C71.0431 74.4833 71.0462 73.5646 70.4544 73.5646C69.8658 73.5646 69.8658 74.4833 70.4544 74.4833Z" fill="#59D6B8"/>
<path d="M13.2542 17.8475C13.8429 17.8475 13.846 16.9287 13.2542 16.9287C12.6656 16.9287 12.6656 17.8475 13.2542 17.8475Z" fill="#59D6B8"/>
<path d="M3.43282 52.3992C4.02146 52.3992 4.02456 51.4805 3.43282 51.4805C2.84108 51.4805 2.84108 52.3992 3.43282 52.3992Z" fill="#8ABFA3"/>
<path d="M82.9649 2.02726C83.5535 2.02726 83.5566 1.10852 82.9649 1.10852C82.3763 1.10852 82.3763 2.02726 82.9649 2.02726Z" fill="#8E97FD"/>
<path d="M4.34702 42.6473C4.34702 42.6069 4.34702 42.5666 4.34702 42.5262C4.34702 42.0451 3.92568 41.5858 3.42998 41.6075C2.93428 41.6292 2.51294 42.011 2.51294 42.5262C2.51294 42.5666 2.51294 42.6069 2.51294 42.6473C2.51294 43.1284 2.93428 43.5877 3.42998 43.566C3.92878 43.5412 4.34702 43.1594 4.34702 42.6473Z" fill="#8E97FD"/>
<path d="M74.9279 1.56806C76.1083 1.56806 76.1083 -0.269409 74.9279 -0.269409C73.7476 -0.269409 73.7445 1.56806 74.9279 1.56806Z" fill="#8E97FD"/>
<path d="M14.8094 67.5647C15.9897 67.5647 15.9897 65.7272 14.8094 65.7272C13.629 65.7272 13.629 67.5647 14.8094 67.5647Z" fill="#E9F2DE"/>
</svg>
