<svg width="28" height="28" viewBox="0 0 28 28" fill="none" xmlns="http://www.w3.org/2000/svg">
<path d="M7.5 16.6C8.36667 18.2714 10.88 20.5 14 20.5C17.12 20.5 19.6333 18.2714 20.5 16.6M27 14C27 21.1797 21.1797 27 14 27C6.8203 27 1 21.1797 1 14C1 6.8203 6.8203 1 14 1C21.1797 1 27 6.8203 27 14Z" stroke="#A0A3B1" stroke-width="2" stroke-linecap="round"/>
<path d="M11.4 8.8C11.4 9.51797 10.818 10.1 10.1 10.1C9.38208 10.1 8.80005 9.51797 8.80005 8.8C8.80005 8.08203 9.38208 7.5 10.1 7.5C10.818 7.5 11.4 8.08203 11.4 8.8Z" fill="#A0A3B1"/>
<path d="M19.2 8.8C19.2 9.51797 18.618 10.1 17.9 10.1C17.1821 10.1 16.6 9.51797 16.6 8.8C16.6 8.08203 17.1821 7.5 17.9 7.5C18.618 7.5 19.2 8.08203 19.2 8.8Z" fill="#A0A3B1"/>
</svg>
