<svg width="47" height="30" viewBox="0 0 47 30" fill="none" xmlns="http://www.w3.org/2000/svg">
<path fill-rule="evenodd" clip-rule="evenodd" d="M13.3013 2.99773L13.1334 3.91767L12.2528 3.6031L12.52 2.85512L13.3013 2.99773ZM13.7722 5.02403C14.1598 5.12435 14.6666 5.26863 15.2497 5.46565C16.6225 5.92949 18.3896 6.67607 20.0197 7.80915L21.0872 6.27346C19.2655 5.00716 17.3227 4.19192 15.8484 3.69378C15.1083 3.44374 14.4791 3.27118 14.032 3.16056C13.8083 3.10521 13.6297 3.06525 13.5051 3.03876C13.4427 3.02552 13.3939 3.01564 13.3595 3.00888C13.3424 3.0055 13.3289 3.0029 13.3191 3.00105L13.3073 2.99884L13.3036 2.99815L13.3023 2.9979L13.3018 2.99781C13.3015 2.99777 13.3013 2.99773 13.1334 3.91767C12.2528 3.6031 12.2527 3.60339 12.2526 3.60371L12.2515 3.60659L12.2493 3.61284L12.2421 3.63354C12.2361 3.65094 12.2277 3.67551 12.2171 3.70696C12.1961 3.76983 12.1665 3.86025 12.1306 3.97585C12.0588 4.20696 11.9615 4.53929 11.8556 4.95396C11.6442 5.78198 11.3972 6.94536 11.2543 8.29149C10.9709 10.9592 11.0828 14.4696 12.8283 17.493C14.4742 20.3438 16.3989 22.5678 18.4487 23.8459C20.5247 25.1404 22.7908 25.4896 24.9275 24.4213L24.091 22.7485C22.676 23.456 21.1087 23.3005 19.4383 22.2589C17.7415 21.2009 16.0065 19.2572 14.448 16.5579C12.9892 14.0312 12.8487 10.9877 13.1141 8.48902C13.2455 7.25198 13.4731 6.17907 13.6678 5.41659C13.7041 5.27437 13.7392 5.1432 13.7722 5.02403Z" fill="white"/>
<path fill-rule="evenodd" clip-rule="evenodd" d="M4.04492 11.8188L4.39055 12.6877L3.47715 12.8882L3.3069 12.1124L4.04492 11.8188ZM5.5189 13.2868C5.90073 13.1662 6.40684 13.0197 7.00568 12.8774C8.41546 12.5425 10.3095 12.238 12.2924 12.3339L12.3828 10.4659C10.1668 10.3586 8.08736 10.6981 6.57334 11.0578C5.81335 11.2384 5.1884 11.4259 4.7507 11.5693C4.53169 11.641 4.35909 11.7019 4.23939 11.7455C4.17953 11.7673 4.13285 11.7849 4.10018 11.7974C4.08385 11.8036 4.071 11.8086 4.06176 11.8122L4.0506 11.8165L4.04707 11.8179L4.04582 11.8184L4.04532 11.8186C4.04511 11.8187 4.04492 11.8188 4.39055 12.6877C3.47715 12.8882 3.47722 12.8885 3.47729 12.8888L3.47795 12.8918L3.47939 12.8982L3.48425 12.9196C3.48838 12.9376 3.49428 12.9629 3.50203 12.9951C3.51753 13.0596 3.54045 13.1519 3.57132 13.2689C3.63306 13.5029 3.72677 13.8363 3.85699 14.244C4.117 15.0581 4.52471 16.1753 5.11754 17.3923C6.29239 19.8041 8.24922 22.7206 11.3327 24.3577C14.2401 25.9014 17.0514 26.7658 19.467 26.762C21.9136 26.7582 24.0198 25.8522 25.2645 23.8133L23.6681 22.8388C22.8438 24.1892 21.4327 24.8887 19.4641 24.8918C17.4645 24.8949 14.9627 24.1675 12.2097 22.7058C9.63283 21.3377 7.89932 18.8322 6.79894 16.5732C6.25415 15.4549 5.87802 14.4246 5.63859 13.675C5.59393 13.5351 5.55411 13.4053 5.5189 13.2868Z" fill="white"/>
<path fill-rule="evenodd" clip-rule="evenodd" d="M33.6984 2.99773L33.8663 3.91767L34.747 3.6031L34.4798 2.85512L33.6984 2.99773ZM33.2276 5.02403C32.8399 5.12435 32.3332 5.26863 31.7501 5.46565C30.3773 5.92949 28.6101 6.67607 26.9801 7.80915L25.9126 6.27346C27.7342 5.00716 29.6771 4.19192 31.1514 3.69378C31.8914 3.44374 32.5207 3.27118 32.9678 3.16056C33.1915 3.10521 33.3701 3.06525 33.4947 3.03876C33.557 3.02552 33.6059 3.01564 33.6402 3.00888C33.6574 3.0055 33.6709 3.0029 33.6806 3.00105L33.6924 2.99884L33.6962 2.99815L33.6975 2.9979L33.698 2.99781C33.6982 2.99777 33.6984 2.99773 33.8663 3.91767C34.747 3.6031 34.7471 3.60339 34.7472 3.60371L34.7482 3.60659L34.7504 3.61284L34.7576 3.63354C34.7637 3.65094 34.7721 3.67551 34.7826 3.70696C34.8037 3.76983 34.8332 3.86025 34.8691 3.97585C34.9409 4.20696 35.0383 4.53929 35.1442 4.95396C35.3555 5.78198 35.6025 6.94536 35.7455 8.29149C36.0288 10.9592 35.917 14.4696 34.1714 17.493C32.5255 20.3438 30.6009 22.5678 28.5511 23.8459C26.475 25.1404 24.2089 25.4896 22.0723 24.4213L22.9087 22.7485C24.3237 23.456 25.891 23.3005 27.5615 22.2589C29.2582 21.2009 30.9933 19.2572 32.5517 16.5579C34.0105 14.0312 34.1511 10.9877 33.8857 8.48902C33.7543 7.25198 33.5267 6.17907 33.332 5.41659C33.2957 5.27437 33.2606 5.1432 33.2276 5.02403Z" fill="white"/>
<path fill-rule="evenodd" clip-rule="evenodd" d="M42.9551 11.8188L42.6094 12.6877L43.5228 12.8882L43.6931 12.1124L42.9551 11.8188ZM41.4811 13.2868C41.0993 13.1662 40.5932 13.0197 39.9943 12.8774C38.5845 12.5425 36.6905 12.238 34.7076 12.3339L34.6172 10.4659C36.8332 10.3586 38.9126 10.6981 40.4267 11.0578C41.1866 11.2384 41.8116 11.4259 42.2493 11.5693C42.4683 11.641 42.6409 11.7019 42.7606 11.7455C42.8205 11.7673 42.8671 11.7849 42.8998 11.7974C42.9162 11.8036 42.929 11.8086 42.9382 11.8122L42.9494 11.8165L42.9529 11.8179L42.9542 11.8184L42.9547 11.8186C42.9549 11.8187 42.9551 11.8188 42.6094 12.6877C43.5228 12.8882 43.5228 12.8885 43.5227 12.8888L43.5221 12.8918L43.5206 12.8982L43.5157 12.9196C43.5116 12.9376 43.5057 12.9629 43.498 12.9951C43.4825 13.0596 43.4596 13.1519 43.4287 13.2689C43.3669 13.5029 43.2732 13.8363 43.143 14.244C42.883 15.0581 42.4753 16.1753 41.8825 17.3923C40.7076 19.8041 38.7508 22.7206 35.6673 24.3577C32.7599 25.9014 29.9486 26.7658 27.533 26.762C25.0864 26.7582 22.9802 25.8522 21.7355 23.8133L23.3319 22.8388C24.1562 24.1892 25.5673 24.8887 27.5359 24.8918C29.5355 24.8949 32.0373 24.1675 34.7903 22.7058C37.3672 21.3377 39.1007 18.8322 40.2011 16.5732C40.7459 15.4549 41.122 14.4246 41.3614 13.675C41.4061 13.5351 41.4459 13.4053 41.4811 13.2868Z" fill="white"/>
<path fill-rule="evenodd" clip-rule="evenodd" d="M26.3402 20.3679C27.2766 18.5311 27.9103 15.864 27.9103 12.8162C27.9103 10.0906 26.6383 7.50149 25.2224 5.49107C24.6918 4.7376 24.1598 4.09231 23.7057 3.5834C23.2515 4.09231 22.7196 4.7376 22.1889 5.49107C20.773 7.50149 19.501 10.0906 19.501 12.8162C19.501 15.864 20.1348 18.5311 21.0712 20.3679C22.0579 22.3034 23.0887 22.835 23.7057 22.835C24.3226 22.835 25.3534 22.3034 26.3402 20.3679ZM23.7057 24.6962C27.0506 24.6962 29.7622 19.3773 29.7622 12.8162C29.7622 6.25499 23.7057 0.936104 23.7057 0.936104C23.7057 0.936104 17.6492 6.25499 17.6492 12.8162C17.6492 19.3773 20.3608 24.6962 23.7057 24.6962Z" fill="white"/>
</svg>
