<svg width="26" height="23" viewBox="0 0 26 23" fill="none" xmlns="http://www.w3.org/2000/svg">
<path d="M0.79091 8.01925C-0.263655 7.52378 -0.263618 6.03298 0.79091 5.53753L12.1947 0.179642C12.7045 -0.0598809 13.2955 -0.0598806 13.8053 0.179642L25.2091 5.53753C26.1303 5.97033 26.2468 7.16258 25.5586 7.78749V13.0175C25.5586 13.7066 24.9964 14.2653 24.3028 14.2653C23.6092 14.2653 23.0469 13.7066 23.0469 13.0175V9.03512L13.8053 13.3771C13.2955 13.6167 12.7045 13.6167 12.1947 13.3771L0.79091 8.01925Z" fill="#A0A3B1"/>
<path d="M4.20877 14.2653V12.1209L12.1947 15.873C12.7045 16.1125 13.2955 16.1125 13.8053 15.873L21.791 12.121V14.2653C21.791 19.0893 17.8551 23 12.9999 23C8.14469 23 4.20877 19.0893 4.20877 14.2653Z" fill="#A0A3B1"/>
</svg>
