<svg width="16" height="16" viewBox="0 0 16 16" fill="none" xmlns="http://www.w3.org/2000/svg">
<path d="M3.64003 12.3266V10.38C3.64003 9.7333 4.1467 9.1533 4.8667 9.1533C5.51337 9.1533 6.09337 9.65997 6.09337 10.38V12.2533C6.09337 13.5533 5.01337 14.6333 3.71337 14.6333C2.41337 14.6333 1.33336 13.5466 1.33336 12.2533V8.14664C1.26003 4.39997 4.22003 1.36664 7.9667 1.36664C11.7134 1.36664 14.6667 4.39997 14.6667 8.0733V12.18C14.6667 13.48 13.5867 14.56 12.2867 14.56C10.9867 14.56 9.9067 13.48 9.9067 12.18V10.3066C9.9067 9.65997 10.4134 9.07997 11.1334 9.07997C11.78 9.07997 12.36 9.58664 12.36 10.3066V12.3266" stroke="#FAFEFF" stroke-linecap="round" stroke-linejoin="round"/>
</svg>
