<!-- icon666.com - MILLIONS vector ICONS FREE --><svg id="Icons" viewBox="0 0 60 60" xmlns="http://www.w3.org/2000/svg"><path d="m41.774 44.193-4.811-1.772a3.014 3.014 0 0 1 -1.963-2.821v-12.6a1 1 0 0 1 .9-1 1.013 1.013 0 0 1 1.081.793l1.56 7.543a1.5 1.5 0 0 0 .666.931l6.443 3.467a1.543 1.543 0 0 0 1.189.222 1.5 1.5 0 0 0 .457-2.734l-4.976-2.792c-.029-.017-.057-.035-.086-.054a3.173 3.173 0 0 1 -1.312-2.147l-1.07-7.647a5.4 5.4 0 0 0 -5.365-4.582h-8.974a5.4 5.4 0 0 0 -5.365 4.6l-1.242 8.058a3.168 3.168 0 0 1 -1.31 2.133l-4.845 3.409a1.531 1.531 0 0 0 -.712.965 1.5 1.5 0 0 0 2.256 1.61l6.461-4.475a1.537 1.537 0 0 0 .708-.973l1.557-7.527a1 1 0 0 1 1.979.2v12.606a3.014 3.014 0 0 1 -1.963 2.815l-4.815 1.779c4.286.308 8.884.914 11.768 1.333 3.069-.45 7.588-1.04 11.784-1.34z"></path><path d="m35 12v-2a5 5 0 0 0 -10 0v2a5 5 0 0 0 10 0z"></path><path d="m29.693 51h16.807a2.5 2.5 0 0 0 0-5 134.681 134.681 0 0 0 -17.064 1.632 1.694 1.694 0 0 0 .257 3.368z"></path><path d="m3 53a1 1 0 0 0 0 2h54a1 1 0 0 0 0-2z"></path><path d="m26.431 51a3.615 3.615 0 0 1 .308-3.9 113.5 113.5 0 0 0 -13.239-1.1 2.5 2.5 0 0 0 0 5z"></path></svg>