<svg width="24" height="24" viewBox="0 0 24 24" fill="none" xmlns="http://www.w3.org/2000/svg">
<path d="M14.6741 23.0978H23.2888C23.5132 23.0978 23.6969 22.9144 23.6969 22.69C23.6969 22.4653 23.5132 22.2819 23.2888 22.2819H17.4685L14.7082 23.065C14.6968 23.0761 14.6855 23.0872 14.6741 23.0978Z" fill="#A0A3B1"/>
<path d="M8.56647 22.2819H2.74619C2.52175 22.2819 2.33813 22.4653 2.33813 22.69C2.33813 22.9144 2.52175 23.0978 2.74619 23.0978H11.3609C11.3492 23.0872 11.3379 23.0761 11.3267 23.065L8.56647 22.2819Z" fill="#A0A3B1"/>
<path d="M3.03552 18.5106C3.04024 18.5106 3.04469 18.5106 3.04941 18.5106C3.45219 18.505 3.83691 18.4728 4.20246 18.4219C4.54163 17.9947 5.06413 17.7275 5.63108 17.7275C5.79913 17.7275 5.96691 17.7508 6.12996 17.7969L6.36635 17.8642C7.39524 17.47 8.01663 17.0358 8.06274 17.0031C8.34163 16.8047 8.49441 16.4733 8.46441 16.1325C8.38885 15.2775 8.97385 13.1139 9.52552 11.4036C9.9758 12.5128 10.3808 13.7925 10.3058 14.6739C10.1752 16.2114 9.3808 16.8258 9.19441 18.2664C9.16719 18.3661 9.14635 18.4928 9.13246 18.6489L13.0172 19.7511L16.9022 18.6489C16.8883 18.4931 16.8675 18.3664 16.8402 18.2667C16.6539 16.8258 15.8594 16.2117 15.7289 14.6739C15.6541 13.7925 16.0589 12.5131 16.5091 11.4039C17.0608 13.1142 17.6455 15.2775 17.5702 16.1325C17.5402 16.4733 17.693 16.8047 17.9719 17.0031C18.018 17.0358 18.6394 17.47 19.6683 17.8642L19.9047 17.7969C20.0677 17.7508 20.2355 17.7275 20.4036 17.7275C20.9705 17.7275 21.493 17.9947 21.8322 18.4219C22.1977 18.4728 22.5825 18.505 22.9855 18.5106C22.99 18.5106 22.9947 18.5106 22.9991 18.5106C23.5252 18.5106 23.9555 18.0878 23.963 17.5597C23.9705 17.0272 23.545 16.5894 23.0125 16.5822C21.3905 16.5594 20.108 15.9983 19.4905 15.6681C19.3519 13.6094 18.0847 10.0206 17.9252 9.57611C17.8569 9.38555 17.7347 9.23 17.5819 9.11972C17.5822 9.11944 17.583 9.11805 17.583 9.11805C17.583 9.11805 15.9808 7.95333 13.0175 7.95333C10.0541 7.95333 8.45163 9.11805 8.45163 9.11805C8.45163 9.11805 8.45247 9.11972 8.45274 9.11972C8.29996 9.23 8.17774 9.38555 8.10941 9.57611C7.94997 10.0206 6.68135 13.6131 6.54358 15.6711C5.93135 16.0017 4.66108 16.5589 3.02219 16.5819C2.48969 16.5894 2.06413 17.0272 2.07163 17.5597C2.07913 18.0878 2.50913 18.5106 3.03552 18.5106Z" fill="#A0A3B1"/>
<path d="M10.8485 22.2636C10.7154 21.7944 10.7729 21.3019 11.0104 20.8761C11.2479 20.4505 11.6368 20.1428 12.1057 20.0097L12.3926 19.9283L6.03707 18.125C5.24845 17.9014 4.42901 18.3592 4.2054 19.1475C3.98179 19.9358 4.43929 20.7561 5.22734 20.9797L10.991 22.615C10.9323 22.5044 10.8835 22.3875 10.8485 22.2636Z" fill="#A0A3B1"/>
<path d="M19.9977 18.1253L12.1983 20.3381C11.4102 20.5617 10.9527 21.3822 11.1763 22.1703C11.3613 22.8233 11.9558 23.2494 12.6025 23.2494C12.7363 23.2494 12.8725 23.2311 13.008 23.1928L20.8072 20.9797C21.5952 20.7561 22.053 19.9356 21.8294 19.1475C21.6061 18.3594 20.7866 17.9017 19.9977 18.1253Z" fill="#A0A3B1"/>
<path d="M16.2073 4.00416C15.7042 3.68388 14.4548 2.995 13.017 2.995C11.5784 2.995 10.3328 3.68138 9.82896 4.00222C9.8259 4.38611 9.89146 4.77666 10.0356 5.15722C10.6592 6.80444 12.5001 7.63444 14.1473 7.01055C15.4301 6.52444 16.2167 5.3 16.2073 4.00416Z" fill="#A0A3B1"/>
<path d="M9.67017 3.69667C10.2216 3.34667 11.5038 2.65389 13.0168 2.65389C14.5302 2.65389 15.8124 3.34667 16.3635 3.69667C16.3421 3.4225 16.2943 3.14972 16.2216 2.88417C15.8407 2.65389 14.9121 2.15889 13.8841 2.10194C13.8841 2.10194 15.0335 1.89917 16.0104 2.29083C15.4946 1.11917 14.4535 0.213333 13.0168 0.213333C11.0379 0.213333 9.8085 1.93139 9.67017 3.69667Z" fill="#A0A3B1"/>
</svg>
