<svg width="162" height="112" viewBox="0 0 162 112" fill="none" xmlns="http://www.w3.org/2000/svg">
<rect width="162" height="111.227" rx="10" fill="#FEDEA5"/>
<path d="M132.552 59.3776H28.1851V96.5774H132.552V59.3776Z" fill="#FEDEA5"/>
<path d="M104.795 53.767C104.857 53.5731 103.742 54.024 103.75 53.7922C103.78 53.0043 103.559 52.1528 103.419 51.3819C103.145 49.8767 102.844 48.3754 102.523 46.8789C102.153 45.154 101.768 43.433 101.395 41.7092C101.075 40.2243 100.734 38.7306 100.342 37.2616C100.019 36.0529 99.6314 34.8786 99.0816 33.7477C98.849 33.2699 98.6707 32.6995 98.2247 32.3598C97.746 31.9954 97.1003 32.0825 96.5307 32.0436C94.1384 31.8798 93.316 33.4584 93.645 35.9526C93.9312 38.1219 98.0825 55.8892 100.231 56.7155C101.698 57.2804 104.36 55.1286 104.795 53.767Z" fill="#F29A31"/>
<path d="M119.529 51.3454C116.852 52.0588 108.504 55.9152 105.79 56.5837C103.947 57.0379 101.345 57.9836 99.8171 56.3519C98.9308 55.4051 99.0516 53.8341 99.7363 52.8314C100.641 51.5065 100.126 52.4106 101.587 52.0709C104.88 51.3043 110.703 51.3021 117.235 49.5191C117.913 49.3339 121.626 50.7865 119.529 51.3454Z" fill="#F29A31"/>
<path d="M118.193 46.6132C118.11 46.4066 118.054 46.1836 118.063 45.9611C118.08 45.52 118.237 45.0477 118.627 44.7853C118.824 44.6532 119.142 44.6401 119.208 44.9162C119.262 45.1409 119.113 45.3458 119.048 45.5513C118.948 45.8647 118.938 46.2477 119.096 46.5441C119.209 46.754 119.405 46.9091 119.637 46.9781C119.879 47.0493 120.145 47.0307 120.378 46.9398C120.615 46.8466 120.814 46.6767 120.938 46.4592C121.067 46.2329 121.118 45.9633 121.087 45.7069C121.056 45.457 120.938 45.217 120.722 45.0696C120.493 44.9135 120.204 44.8833 119.932 44.8773C119.799 44.8746 119.665 44.8822 119.533 44.874C119.436 44.868 119.311 44.8603 119.234 44.7962C119.137 44.7146 119.138 44.5809 119.163 44.4707C119.216 44.2318 119.546 44.0987 119.757 44.0412C120.091 43.9507 120.435 44.0121 120.74 44.1617C120.905 44.2422 121.07 44.3502 121.205 44.4724C121.389 44.6395 121.562 44.8614 121.69 45.0724C121.8 45.2548 121.869 45.4543 121.89 45.6647C121.93 46.0631 121.859 46.5124 121.647 46.8592C121.525 47.057 121.348 47.2499 121.16 47.3913C120.995 47.5151 120.784 47.6192 120.588 47.6877C120.396 47.7562 120.193 47.7836 119.988 47.7803C119.226 47.7704 118.474 47.3124 118.193 46.6132Z" fill="#F29A31"/>
<path d="M118.741 47.3327C118.741 47.3327 119.477 49.2132 114.756 50.1238L117.858 51.6104C119.302 51.4663 120.711 51.1003 122.065 50.6C122.452 50.457 122.833 50.3036 123.211 50.1414C124.106 49.7573 125.04 49.3644 125.762 48.702C125.867 48.6055 126.649 47.8559 126.184 47.7973C125.8 47.7491 125.472 47.9661 125.168 48.1622C124.436 48.6346 123.412 49.1145 122.519 48.7814C123.681 48.4444 124.844 47.8883 125.669 47.0056C126.008 46.6423 126.301 46.2428 126.558 45.8204C126.704 45.5804 126.875 45.2927 126.801 45.0029C126.736 44.7508 126.482 44.7387 126.27 44.8116C125.925 44.9305 125.752 45.2982 125.522 45.5497C125.21 45.8922 124.829 46.171 124.455 46.4467C124.109 46.7014 123.752 46.9453 123.365 47.1403C123.146 47.2505 122.918 47.3447 122.681 47.4132C122.401 47.4943 122.115 47.5107 121.824 47.5113C122.244 47.3677 122.645 47.1946 123.041 46.9973C123.935 46.553 124.839 45.9617 125.481 45.2034C125.714 44.9289 125.908 44.6062 125.994 44.2577C126.04 44.0725 126.135 43.8807 126.004 43.7064C125.863 43.5196 125.591 43.5229 125.393 43.6078C125.139 43.7169 124.998 43.9601 124.826 44.1568C124.271 44.7919 123.415 45.4954 122.673 45.9064C122.296 46.1152 120.575 47.2247 120.029 47.1283L118.741 47.3327Z" fill="#F29A31"/>
<path d="M64.856 53.6984C64.7939 53.5044 65.9094 53.9554 65.9009 53.7236C65.871 52.9357 66.0928 52.0842 66.2328 51.3132C66.5066 49.8081 66.8069 48.3067 67.1281 46.8103C67.4984 45.086 67.8834 43.3649 68.2559 41.6406C68.5766 40.1557 68.9175 38.662 69.3098 37.1935C69.6321 35.9848 70.02 34.8106 70.5698 33.6796C70.8023 33.2018 70.9807 32.6314 71.4267 32.2923C71.9053 31.9279 72.5511 32.015 73.1207 31.9761C75.513 31.8123 76.3354 33.3909 76.0064 35.8851C75.7202 38.0543 71.5689 55.8216 69.4205 56.6479C67.9534 57.2117 65.2924 55.0606 64.856 53.6984Z" fill="#F29A31"/>
<path d="M50.1226 51.277C52.7994 51.9904 61.1477 55.8462 63.8617 56.5152C65.7042 56.9695 68.307 57.9152 69.8345 56.2835C70.7208 55.3366 70.6 53.7657 69.9153 52.763C69.0104 51.4376 69.5258 52.3422 68.0649 52.0025C64.7717 51.2359 58.9484 51.2337 52.4167 49.4508C51.7382 49.2656 48.0256 50.7181 50.1226 51.277Z" fill="#F29A31"/>
<path d="M51.458 46.5434C51.541 46.3373 51.5968 46.1138 51.5884 45.8913C51.5709 45.4508 51.4139 44.9779 51.0239 44.7154C50.8274 44.5828 50.5096 44.5702 50.443 44.8464C50.3888 45.071 50.5379 45.276 50.6033 45.4814C50.7033 45.7949 50.7134 46.1779 50.5548 46.4743C50.4425 46.6842 50.2472 46.8392 50.014 46.9083C49.7724 46.9795 49.506 46.9609 49.2734 46.8699C49.0358 46.7768 48.8376 46.6069 48.7134 46.3894C48.5842 46.1631 48.5328 45.8935 48.5644 45.6371C48.5955 45.3872 48.7129 45.1478 48.9291 44.9998C49.1583 44.8436 49.4473 44.8135 49.7194 44.8075C49.852 44.8047 49.9858 44.8124 50.1184 44.8042C50.2155 44.7982 50.3403 44.7905 50.4171 44.7264C50.5147 44.6453 50.513 44.511 50.4882 44.4009C50.4351 44.162 50.1049 44.0289 49.8938 43.9713C49.5607 43.8809 49.2158 43.9423 48.9116 44.0919C48.7467 44.173 48.5814 44.2804 48.4464 44.4026C48.2619 44.5697 48.0891 44.7916 47.9615 45.0025C47.8509 45.185 47.7826 45.3845 47.7612 45.5954C47.7211 45.9938 47.7922 46.4431 48.0044 46.7899C48.1258 46.9877 48.3036 47.1806 48.491 47.322C48.6559 47.4464 48.8675 47.5499 49.0629 47.6184C49.2553 47.6864 49.4586 47.7143 49.6629 47.711C50.4255 47.7006 51.1769 47.2425 51.458 46.5434Z" fill="#F29A31"/>
<path d="M50.9101 47.2638C50.9101 47.2638 50.1746 49.1443 54.8954 50.055L51.7929 51.5415C50.3495 51.3974 48.94 51.0314 47.5858 50.5311C47.1997 50.3881 46.8181 50.2347 46.4405 50.0725C45.5452 49.6884 44.6115 49.2955 43.8895 48.6331C43.7846 48.5366 43.0027 47.7865 43.4667 47.7284C43.8517 47.6802 44.1791 47.8972 44.4834 48.0934C45.2155 48.5657 46.2395 49.0457 47.132 48.7125C45.9703 48.3755 44.8068 47.8194 43.9827 46.9367C43.6429 46.5734 43.3499 46.1739 43.0936 45.7515C42.9474 45.5115 42.7764 45.2238 42.8503 44.934C42.9152 44.6819 43.1693 44.6698 43.3809 44.7427C43.7264 44.8616 43.8991 45.2293 44.1289 45.4808C44.4416 45.8233 44.8221 46.1022 45.1958 46.3778C45.5418 46.6326 45.8991 46.8764 46.2858 47.0715C46.5048 47.1816 46.7334 47.2758 46.97 47.3443C47.2505 47.4254 47.5361 47.4419 47.8269 47.443C47.4069 47.2999 47.0061 47.1263 46.6098 46.929C45.7162 46.4846 44.8131 45.8934 44.1701 45.135C43.9375 44.8605 43.7428 44.5378 43.657 44.1893C43.6113 44.0041 43.5159 43.8123 43.6474 43.6381C43.7885 43.4512 44.0606 43.4545 44.2587 43.5395C44.5122 43.6485 44.6533 43.8918 44.8255 44.0879C45.3804 44.723 46.2361 45.4266 46.9784 45.8375C47.3555 46.0463 49.0761 47.1558 49.6225 47.0594L50.9101 47.2638Z" fill="#F29A31"/>
<path d="M76.3212 32.0186H94.8262C94.8262 32.0186 92.0314 37.007 84.9155 37.053C84.9155 37.0524 75.9774 34.9719 76.3212 32.0186Z" fill="#F29A31"/>
<path d="M95.6035 53.3877L98.4542 32.8807C98.4542 32.4046 98.0173 32.0194 97.4782 32.0194H94.1878C94.1912 32.0577 90.1912 35.6472 85.2548 35.6472C80.3183 35.6472 76.3184 32.0583 76.3218 32.0194C76.3218 32.0194 73.9588 31.8424 71.9171 32.0374L75.7426 53.3882L70.5059 65.2916C87.4213 74.3199 100.004 65.5606 100.004 65.085L95.6035 53.3877Z" fill="#7E64BF"/>
<path d="M71.9099 62.0991C71.9099 62.0991 85.317 70.1214 98.8805 62.0991C98.8805 62.0991 102.674 67.9839 102.957 74.1816C102.957 74.1816 90.2579 77.1426 67.4849 74.1816C67.4854 74.1816 68.672 66.6815 71.9099 62.0991Z" fill="#565D70"/>
<path d="M47.2979 78.3544C55.4852 78.6163 63.6877 77.2503 71.8773 77.0728C74.3345 77.0196 77.0582 76.647 78.8815 74.8854C80.7731 73.058 80.2125 67.5611 78.269 65.7847C73.8609 61.7558 69.301 63.6094 64.0095 64.6779C59.3542 65.6182 48.0057 69.2597 47.9623 69.5184L47.2979 78.3544Z" fill="#565D70"/>
<path d="M118.635 78.3876C110.448 78.6495 104.247 77.5279 96.0571 77.3504C93.6005 77.2972 90.8763 76.9246 89.053 75.163C87.1614 73.3356 89.7857 68.1072 91.7292 66.3308C96.1373 62.3019 99.5056 63.6783 104.798 64.7468C109.453 65.687 117.571 68.3281 117.217 68.7982L118.635 78.3876Z" fill="#565D70"/>
<path d="M88.1018 24.7048H82.7075V33.1693H88.1018V24.7048Z" fill="#F29A31"/>
<path d="M83.8979 28.0187C83.8979 28.0187 86.0639 28.5825 88.1011 27.559V28.5365C88.1011 28.5359 85.9538 29.1014 83.8979 28.0187Z" fill="#DB7D0D"/>
<path d="M88.0454 27.3772V32.0007H88.1583V27.3772" fill="#333242"/>
<path d="M85.1559 10.9921C85.2321 9.86829 85.1333 8.79818 83.7723 8.45846C82.487 8.13737 80.9228 8.32586 79.905 9.19817C79.6307 9.43323 79.3626 9.73241 79.0323 9.89898C78.298 10.2688 77.3999 10.0529 76.6683 10.471C75.7623 10.9883 75.2796 11.928 74.4408 12.5192C73.685 13.0523 72.7649 13.288 71.8679 13.5C70.9585 13.7153 70.0768 14.1997 69.7217 15.0666C69.3937 15.8676 69.663 16.7739 69.3068 17.564C68.9879 18.2725 68.2569 18.6714 67.6845 19.1722C66.1988 20.4725 66.8095 22.3793 68.0757 23.5404C69.2125 24.5831 69.0754 26.1184 70.7863 26.6915C72.6672 27.3217 74.6779 26.5151 76.5435 27.348C77.4044 27.7321 78.1348 28.057 79.1035 27.8778C80.4594 27.6274 81.5883 27.3507 82.9798 27.4422C84.01 27.5096 85.1734 27.417 85.6103 26.3852C86.5784 24.1004 85.3394 21.4292 85.3625 19.0862C85.3732 18.0281 85.6583 16.9849 85.555 15.9246C85.4539 14.8868 85.1384 13.8786 85.056 12.8365C85.0131 12.2874 85.1124 11.631 85.1559 10.9921Z" fill="#565D70"/>
<path d="M84.0946 11.0739C83.8384 9.97588 83.7627 8.90357 85.0514 8.36111C86.269 7.84825 87.8439 7.79619 88.991 8.50248C89.2997 8.69316 89.6125 8.94795 89.9653 9.06137C90.7505 9.31452 91.6029 8.96494 92.3926 9.2663C93.3708 9.6389 93.9997 10.4937 94.9232 10.9496C95.7558 11.3611 96.7024 11.4537 97.6225 11.5265C98.5556 11.6005 99.5045 11.9446 99.9956 12.7468C100.449 13.4876 100.33 14.424 100.809 15.15C101.239 15.801 102.026 16.0837 102.671 16.4914C104.349 17.5494 104.054 19.5253 102.991 20.865C102.036 22.0677 102.42 23.563 100.823 24.3898C99.0676 25.2989 96.9514 24.8079 95.2432 25.9147C94.4552 26.4254 93.7863 26.8572 92.8007 26.8282C91.4211 26.7876 90.2616 26.6862 88.9018 26.9882C87.8953 27.2117 86.7313 27.2972 86.133 26.3449C84.8076 24.2359 85.5996 21.4085 85.1976 19.0984C85.0164 18.0552 84.566 17.0683 84.4965 16.0054C84.4288 14.9648 84.5778 13.921 84.4903 12.8794C84.4452 12.3309 84.2408 11.6986 84.0946 11.0739Z" fill="#565D70"/>
<path d="M92.9797 19.6586C92.8572 21.8755 92.0517 23.944 90.8375 25.4919C89.6154 27.0409 87.984 28.0699 86.0235 28.219C84.0631 28.3702 82.2855 27.6025 80.828 26.259C79.3784 24.9149 78.2488 22.9949 77.769 20.824C77.3073 18.6526 77.7933 16.5874 79.0504 14.9337C80.2974 13.2938 82.3154 12.0647 84.6953 11.8889C87.074 11.7004 89.266 12.6066 90.7624 14.0362C92.2713 15.4784 93.0847 17.4438 92.9797 19.6586Z" fill="#F29A31"/>
<path d="M79.2927 22.462C79.2329 22.1881 79.1369 21.9207 79.0308 21.661C78.9461 21.4549 78.8417 21.2571 78.7655 21.0484C78.6639 20.7711 78.5758 20.4846 78.4093 20.2358C78.3128 20.0917 78.201 19.9629 78.0531 19.8665C77.9205 19.7799 77.772 19.7405 77.6179 19.7109C77.3447 19.6583 77.0337 19.6692 76.7819 19.7947C76.7464 19.8122 76.7125 19.8331 76.6803 19.8561C76.6679 19.8621 76.6555 19.8681 76.643 19.8747C76.3207 20.0451 76.1175 20.3909 76.1299 20.747C76.144 21.1448 76.3563 21.4878 76.5143 21.8434C76.6922 22.244 76.8231 22.6609 77.0258 23.0516C77.2391 23.4637 77.5575 23.948 78.0492 24.0713C78.319 24.1387 78.6075 24.096 78.8479 23.9595C79.12 23.805 79.2707 23.5546 79.3306 23.2604C79.3836 22.999 79.3492 22.7207 79.2927 22.462Z" fill="#DB7D0D"/>
<path d="M91.8331 22.3028C91.9398 22.5844 92.1289 22.8085 92.4224 22.9198C92.6821 23.0178 92.9739 23.0167 93.2291 22.9088C93.6948 22.7121 93.9307 22.185 94.0752 21.7455C94.2118 21.3286 94.2739 20.8968 94.3851 20.4743C94.4839 20.0985 94.638 19.728 94.5878 19.333C94.5421 18.9796 94.2858 18.6689 93.9398 18.55C93.9262 18.5456 93.9132 18.5412 93.8997 18.5374C93.8641 18.5193 93.8274 18.504 93.789 18.4919C93.5204 18.4059 93.2116 18.4426 92.9502 18.5363C92.8023 18.5894 92.6623 18.6508 92.5455 18.7566C92.4151 18.8744 92.3248 19.0185 92.2531 19.1757C92.1289 19.447 92.0883 19.7434 92.033 20.0321C91.9912 20.2502 91.9195 20.4612 91.8698 20.6776C91.8072 20.9505 91.7552 21.2288 91.7406 21.5083C91.727 21.7718 91.7383 22.0524 91.8331 22.3028Z" fill="#DB7D0D"/>
<path d="M83.3226 19.2021C83.1877 19.1697 83.0618 19.1122 82.9314 19.0678L82.9359 19.058C82.9642 18.9906 82.9907 18.9122 82.9828 18.8377C82.9755 18.7686 82.9269 18.6815 82.8547 18.6689C82.8372 18.6656 82.8185 18.6673 82.7982 18.6744C82.7023 18.7073 82.6785 18.8651 82.6526 18.9456C82.6097 19.0788 82.5278 19.1938 82.429 19.2941C82.1502 19.5763 81.7031 19.6179 81.3356 19.5001C80.9879 19.3889 80.5922 19.1681 80.6216 18.7593C80.6346 18.5807 80.3484 18.5758 80.3354 18.7539C80.3184 18.9917 80.4364 19.2306 80.6075 19.4081C80.4946 19.5396 80.3472 19.6344 80.1807 19.6952C80.087 19.7297 80.1243 19.8782 80.2197 19.8437C80.4167 19.7719 80.5888 19.6645 80.7226 19.5122C80.7689 19.5484 80.8169 19.5801 80.866 19.6064C80.9309 19.6415 80.9986 19.6733 81.0681 19.7012C81.0229 19.8497 80.9953 20.0037 80.9258 20.1434C80.8818 20.2316 81.0156 20.3116 81.0602 20.2234C81.1341 20.0738 81.1607 19.91 81.2109 19.7533C81.413 19.8179 81.6247 19.8492 81.8301 19.8377C81.8465 19.9845 81.8674 20.1308 81.8877 20.2771C81.9018 20.3746 82.0542 20.3363 82.0401 20.2393C82.0204 20.1001 82 19.9604 81.9854 19.8207C82.1541 19.7927 82.3156 19.7319 82.4601 19.6344C82.5798 19.7374 82.7034 19.8355 82.8473 19.9067C82.9376 19.9511 83.0201 19.8212 82.9292 19.7763C82.801 19.7127 82.691 19.6284 82.5837 19.5374C82.6187 19.5062 82.6526 19.4716 82.6848 19.4344C82.7468 19.3632 82.8072 19.2864 82.858 19.2048C82.9986 19.2497 83.1324 19.3138 83.2775 19.3484C83.3762 19.3719 83.4214 19.2256 83.3226 19.2021Z" fill="#333242"/>
<path d="M79.9074 17.3607C79.9886 17.3026 80.0778 17.2539 80.1659 17.2078C80.1761 17.2029 80.1862 17.1974 80.1964 17.192C80.1738 17.2035 80.2099 17.1859 80.2105 17.1848C80.2336 17.1739 80.2562 17.1629 80.2799 17.152C80.3358 17.1262 80.3917 17.1021 80.4493 17.0796C80.5763 17.0292 80.7078 16.987 80.8405 16.9525C81.5619 16.7662 82.3177 16.8972 82.9313 17.3087C83.0041 17.3574 83.0736 17.41 83.1424 17.4643C83.2661 17.5629 83.4281 17.3793 83.3039 17.2807C82.6739 16.7794 81.8881 16.5366 81.0781 16.6594C80.6293 16.7268 80.184 16.8911 79.8052 17.1355C79.7916 17.1443 79.7787 17.1531 79.7657 17.1618C79.637 17.2544 79.7781 17.4528 79.9074 17.3607Z" fill="#333242"/>
<path d="M87.2332 18.9016C87.3614 18.849 87.476 18.7729 87.5979 18.7093L87.5922 18.7005C87.5527 18.6381 87.5143 18.5652 87.5104 18.4901C87.5064 18.4211 87.5403 18.3274 87.6097 18.3038C87.6261 18.2984 87.6453 18.2967 87.6662 18.3006C87.7661 18.3186 87.8152 18.471 87.8542 18.546C87.9185 18.671 88.0179 18.7723 88.1319 18.8567C88.4525 19.0929 88.9019 19.0655 89.2451 18.8934C89.5702 18.7307 89.9259 18.4523 89.8305 18.0529C89.7893 17.8781 90.071 17.8299 90.1122 18.0036C90.1675 18.2359 90.0896 18.4901 89.949 18.6912C90.0817 18.8041 90.2426 18.8748 90.417 18.9099C90.5152 18.9296 90.5022 19.0819 90.4023 19.0622C90.1963 19.0211 90.0089 18.9416 89.8519 18.8112C89.8124 18.854 89.7701 18.8929 89.726 18.9263C89.6673 18.9712 89.6058 19.0123 89.542 19.0507C89.6103 19.1904 89.6623 19.3383 89.7537 19.466C89.8113 19.546 89.6916 19.6457 89.634 19.5652C89.5369 19.4288 89.4839 19.2704 89.4094 19.1236C89.2203 19.2178 89.0159 19.2814 88.811 19.3016C88.8189 19.449 88.8217 19.5964 88.8251 19.7444C88.8274 19.8425 88.6704 19.8277 88.6682 19.7307C88.6648 19.5899 88.6625 19.449 88.6546 19.3088C88.4836 19.3066 88.3142 19.2715 88.1556 19.197C88.054 19.317 87.9479 19.4331 87.8175 19.5246C87.7356 19.5822 87.6329 19.4666 87.7153 19.4085C87.8316 19.3263 87.927 19.226 88.0179 19.1203C87.9784 19.0945 87.9388 19.066 87.901 19.0342C87.8282 18.9734 87.7559 18.9066 87.6927 18.8337C87.5612 18.8995 87.4387 18.9833 87.3021 19.0392C87.2078 19.0775 87.1395 18.94 87.2332 18.9016Z" fill="#333242"/>
<path d="M90.3079 16.5634C90.2187 16.5185 90.1228 16.484 90.0279 16.4516C90.0172 16.4478 90.0059 16.4445 89.9952 16.4407C90.0195 16.4484 89.9811 16.4363 89.9799 16.4363C89.9557 16.4286 89.9308 16.4215 89.9066 16.4144C89.8473 16.3974 89.7874 16.3826 89.7276 16.3689C89.5938 16.3382 89.4578 16.3169 89.3206 16.3032C88.5783 16.2286 87.8529 16.4736 87.3133 16.9733C87.2489 17.0325 87.1885 17.0955 87.1298 17.159C87.0237 17.2752 86.834 17.119 86.9407 17.0023C87.4821 16.4111 88.2187 16.0522 89.0389 16.0495C89.4928 16.0478 89.9591 16.1421 90.3728 16.3256C90.3875 16.3322 90.4016 16.3388 90.4157 16.3459C90.558 16.4177 90.4507 16.6352 90.3079 16.5634Z" fill="#333242"/>
<path d="M83.9999 24.6184C84.2828 24.8354 84.6237 24.9965 84.9641 25.1055C85.6228 25.3165 86.3313 25.2682 86.9065 24.8715C87.1125 24.7291 87.2903 24.5488 87.4444 24.3548C87.5421 24.2321 87.3536 24.0743 87.2553 24.1981C87.0041 24.5154 86.6903 24.7778 86.2957 24.9088C85.9937 25.0096 85.668 25.0129 85.3558 24.9565C85.0883 24.9083 84.832 24.8129 84.5904 24.6929C84.4995 24.6474 84.4103 24.5981 84.324 24.545C84.3155 24.54 84.307 24.5346 84.2991 24.5296C84.272 24.5126 84.3206 24.5433 84.2952 24.5269C84.2816 24.5181 84.2675 24.5094 84.2545 24.5C84.2331 24.4858 84.2122 24.471 84.1907 24.4562C84.1806 24.4491 84.1715 24.4425 84.1614 24.4348C84.0355 24.3384 83.8735 24.522 83.9999 24.6184Z" fill="#333242"/>
<path d="M77.0308 21.9757C77.2425 22.7143 77.8493 23.4995 78.7282 23.2326C78.8428 23.1976 78.779 23.0277 78.665 23.0628C77.8905 23.2978 77.3875 22.5455 77.2063 21.9137C77.1736 21.8014 76.9986 21.8639 77.0308 21.9757Z" fill="#333242"/>
<path d="M93.6017 20.6579C93.5255 21.3088 93.1501 22.1285 92.3468 22.0145C92.2283 21.9976 92.1927 22.1751 92.3118 22.1921C93.2229 22.3219 93.6948 21.454 93.7846 20.6918C93.7987 20.5762 93.6158 20.5417 93.6017 20.6579Z" fill="#333242"/>
<path d="M84.462 12.1833C84.3785 12.1751 84.5523 12.9997 84.5743 13.0518C84.8763 13.7794 85.4973 14.0167 86.2458 14.1422C86.5737 14.1969 86.9237 14.2665 87.2302 14.4134C87.5712 14.5767 87.7919 14.8583 88.0798 15.0884C88.629 15.5284 89.3567 15.7208 90.0583 15.7476C90.0583 15.7476 91.3679 15.8221 92.327 18.2144L91.0473 13.3153C91.0462 13.3153 84.475 12.1849 84.462 12.1833Z" fill="#C15724"/>
<path d="M94.538 17.1094C94.3997 16.8497 94.2383 16.6042 94.0655 16.3647C93.7957 15.9899 93.4965 15.6376 93.203 15.2804C92.6526 14.6113 92.1265 13.9231 91.5265 13.2941C90.8689 12.6037 90.1012 12.0174 89.2324 11.5966C88.3998 11.1933 87.4842 10.9643 86.5562 10.9139C86.318 10.9007 86.0758 10.8909 85.8376 10.9068C85.6282 10.921 85.4187 10.9254 85.2133 10.9676C85.0897 10.9928 84.9649 11.0295 84.8531 11.0876C84.7865 11.0558 84.7081 11.0443 84.6352 11.0361C84.4766 11.0169 84.3152 11.012 84.1554 11.0081C83.8489 11.0005 83.5441 11.0136 83.2376 11.0268C82.7363 11.0481 82.2328 11.0684 81.7377 11.1522C81.2483 11.235 80.7928 11.3961 80.3553 11.6229C79.5515 12.0399 78.8718 12.693 78.3734 13.4295C78.1013 13.8316 77.8846 14.2541 77.7451 14.7165C77.6723 14.9582 77.6164 15.2037 77.5402 15.4437C77.477 15.6431 77.4098 15.8321 77.3404 16.0289C77.166 16.5247 76.9599 17.0562 76.9983 17.5894C77.0192 17.877 77.1265 18.1806 77.1981 18.4589C77.2631 18.7104 77.2873 19.671 77.6559 19.7088C78.1188 19.7554 78.1171 19.0392 78.1657 18.7609C78.2599 18.2162 78.4355 17.7028 78.6969 17.2118C79.0107 16.6217 79.3359 16.0075 79.9839 15.7078C80.4095 15.5105 80.8904 15.413 81.2449 15.093C81.6028 14.7697 81.7812 14.3111 82.0663 13.9336C82.4704 13.3999 83.1941 13.3347 83.7727 13.0711C84.1142 12.9149 84.414 12.6854 84.6132 12.3758C84.5382 12.4925 84.8842 12.9714 84.957 13.0585C85.1196 13.253 85.3239 13.3878 85.5571 13.4914C86.0719 13.7215 86.6646 13.7303 87.1715 13.9779C87.8285 14.299 88.2417 14.9609 88.949 15.2048C89.6219 15.4365 90.4393 15.3735 90.8971 16.0031C91.522 16.8628 92.2298 17.94 92.2671 19.0277C92.2716 19.157 92.1542 19.746 92.4568 19.6419C92.8513 19.506 93.1336 18.768 93.3103 18.4529C93.785 17.6047 94.8321 18.7252 94.7655 17.7696C94.7497 17.5373 94.6453 17.3127 94.538 17.1094Z" fill="#6B748B"/>
<path d="M85.3335 11.4297C86.4077 11.4637 86.7312 12.4784 87.6033 12.8642C88.8926 13.4346 90.7752 12.2428 91.8302 13.5118C92.9219 14.8159 92.5104 16.0669 94.7339 15.9573C96.2004 15.8729 97.6924 16.1858 98.753 17.2257C96.8716 15.5682 93.5276 17.0904 92.2885 14.9151C91.8178 14.1009 91.8488 13.5442 90.8909 13.1387C89.9171 12.7261 88.8141 13.3738 87.8076 13.051C86.7763 12.7475 86.5076 11.5239 85.3335 11.4297Z" fill="#9099B9"/>
<path d="M83.5049 10.0969C81.6748 9.51113 81.0053 11.9253 79.488 12.4185C78.867 12.6037 78.0914 12.213 77.5715 12.5472C76.4928 13.6963 77.7702 13.6721 75.7082 14.1236C75.4942 14.1708 74.9433 14.271 74.7378 14.4721C74.564 14.642 74.4347 14.7686 74.3726 15.0212C74.3026 15.3236 74.3382 15.6891 74.1045 15.9368C74.0723 15.9696 73.2871 16.311 73.2764 16.1833C73.2894 16.3466 74.1519 15.8715 74.2055 15.6047C74.3032 15.1576 74.236 14.699 74.6616 14.3905C75.3181 13.9215 76.4352 14.1028 77.002 13.5576C77.3187 13.253 77.0336 12.6579 77.488 12.4064C77.891 12.1368 78.4409 12.3549 78.8687 12.3829C80.8619 12.4579 81.3598 9.30017 83.5049 10.0969Z" fill="#9099B9"/>
<path d="M77.5942 15.1643C76.568 15.5095 76.4517 16.6481 75.5784 17.1391C74.9411 17.4865 73.8708 17.2541 73.3566 17.796C72.8 18.3829 73.5632 19.3889 72.8999 19.9209C72.2259 20.5637 70.9874 19.6053 70.3055 20.2886C69.7828 20.8124 70.3405 21.8299 69.3516 22.031C70.3304 21.7719 69.7202 20.7324 70.2643 20.1812C70.9287 19.5089 72.1943 20.4212 72.8 19.7971C73.43 19.2864 72.6115 18.0821 73.3956 17.5643C74.6572 16.8213 75.4638 17.4021 76.3975 16.0679C76.6967 15.6405 77.0777 15.3035 77.5942 15.1643Z" fill="#9099B9"/>
<path d="M84.9448 10.3794C86.0055 9.4375 86.6868 10.3739 87.8068 10.5871C88.8212 10.7799 89.8942 10.3449 90.859 10.7942C91.4884 11.0873 91.7983 11.7821 92.3904 12.1372C93.4471 12.7629 94.7613 12.3416 95.8727 12.798C96.9746 13.278 97.7158 14.2922 98.8527 14.7147C97.7384 14.3667 97.0254 13.3887 95.9647 12.9684C94.8459 12.5076 93.5589 12.8977 92.4655 12.3635C91.7898 12.0276 91.4669 11.3153 90.8206 10.9514C89.9174 10.5076 88.8991 10.8665 87.9327 10.7241C86.7828 10.5542 86.0924 9.44079 84.9448 10.3794Z" fill="#9099B9"/>
<path d="M95.7725 19.7615C97.287 19.2246 96.8997 21.0936 97.8932 21.5051C98.4656 21.7034 99.0538 21.1128 99.6612 21.4875C100.06 21.7341 100.239 22.5374 100.381 22.9434C100.203 22.5845 99.979 21.7993 99.5861 21.5916C98.9957 21.2793 98.3685 21.8831 97.808 21.6459C96.8004 21.2382 97.2367 19.4147 95.7725 19.7615Z" fill="#9099B9"/>
<path d="M87.5859 16.3595L87.6004 16.34C87.5726 16.3457 87.5443 16.3514 87.5153 16.3578L87.4985 16.379C87.5286 16.3721 87.5576 16.3658 87.5859 16.3595Z" fill="black"/>
<path d="M78.9556 23.8885C80.0326 25.5997 81.5658 27.1082 83.4907 27.8929C81.4845 27.2803 79.87 25.6929 78.9556 23.8885Z" fill="#333242"/>
<path d="M85.1016 35.6442C85.1016 35.6442 85.1405 35.6475 85.2139 35.6503C85.2873 35.653 85.3951 35.6536 85.5323 35.6514C85.6694 35.6492 85.8354 35.6399 86.0256 35.624C86.2159 35.6081 86.4292 35.5812 86.6612 35.5483C86.8932 35.5133 87.1433 35.4683 87.4052 35.4108C87.6672 35.3516 87.9415 35.2831 88.2226 35.2021C88.5043 35.1237 88.7905 35.0273 89.0801 34.9259C89.2234 34.8711 89.3691 34.819 89.5125 34.761C89.6553 34.7012 89.8015 34.6459 89.9426 34.5812C90.0854 34.5188 90.2288 34.4591 90.3682 34.3917C90.5088 34.3265 90.6488 34.2612 90.7848 34.1911C90.9214 34.1226 91.0575 34.0547 91.189 33.9824C91.3205 33.9106 91.4526 33.8426 91.5773 33.7681C91.7032 33.6947 91.828 33.6246 91.9482 33.5528C92.0679 33.4804 92.1853 33.4092 92.2999 33.3402C92.4128 33.2695 92.5212 33.1977 92.6267 33.1303C92.6792 33.0963 92.7312 33.0629 92.782 33.03C92.8316 32.9955 92.8807 32.9621 92.9287 32.9292C93.0247 32.8635 93.1167 32.8005 93.2042 32.7402C93.2917 32.6805 93.3724 32.6202 93.4497 32.5654C93.6038 32.4553 93.7382 32.3594 93.8449 32.2755C94.0616 32.1123 94.1858 32.0186 94.1858 32.0186C94.1858 32.0186 94.0667 32.1183 93.8584 32.292C93.7551 32.3802 93.6247 32.481 93.4751 32.5972C93.4001 32.6553 93.3216 32.7183 93.2364 32.7818C93.15 32.8443 93.0597 32.91 92.9654 32.9785C92.918 33.0125 92.87 33.0476 92.8209 33.0832C92.7707 33.1172 92.7193 33.1522 92.6674 33.1878C92.5629 33.2585 92.4563 33.3325 92.3445 33.4065C92.2316 33.4788 92.1153 33.5528 91.9968 33.6284C91.8788 33.7045 91.7523 33.7741 91.6265 33.8492C91.5011 33.9248 91.3696 33.9944 91.2375 34.0678C91.106 34.1418 90.97 34.2114 90.8328 34.2815C90.6967 34.3533 90.5562 34.4202 90.4151 34.487C90.2751 34.556 90.1311 34.618 89.9878 34.6815C89.8449 34.7456 89.6976 34.8004 89.5525 34.8596C89.4075 34.9171 89.2601 34.9686 89.1151 35.0223C88.8227 35.1221 88.5331 35.2168 88.2486 35.2941C87.9652 35.3757 87.6863 35.436 87.421 35.4897C87.1557 35.5412 86.9028 35.5807 86.6686 35.6103C86.2001 35.6683 85.8055 35.6777 85.5306 35.6733C85.2574 35.6673 85.1016 35.6442 85.1016 35.6442Z" fill="#333242"/>
<path d="M57.7229 36.0704L57.7878 36.1602L63.5867 32.1855L62.635 39.0922L57.7849 35.9789L57.7229 36.0704L57.6602 36.1619L62.8106 39.4681L63.8791 31.717L57.5225 36.0737L57.6602 36.1619L57.7229 36.0704Z" fill="#565D70"/>
<path d="M71.8291 3.5256L71.7258 3.48122L70.4766 6.23295L73.3718 6.88608L71.833 3.24561L71.7258 3.48122L71.8291 3.5256L71.7246 3.56724L72.9964 6.5765L70.7932 6.07952L71.9324 3.56998L71.8291 3.5256L71.7246 3.56724L71.8291 3.5256Z" fill="#565D70"/>
<path d="M103.806 30.2342V30.3438H108.736L107.594 32.7147L103.872 30.1449L103.806 30.2342V30.3438V30.2342L103.741 30.3235L107.684 33.0457L109.091 30.1246H103.453L103.741 30.3235L103.806 30.2342Z" fill="#8E97FD"/>
<path d="M89.5391 76.4314C90.5399 76.4045 91.5295 76.2489 92.5297 76.2062C93.7806 76.153 94.8803 76.4599 96.0657 76.8007C97.2235 77.1338 96.5156 75.2731 96.165 74.278C95.9054 73.541 95.1591 73.215 94.4292 73.0638C93.11 72.7909 91.7615 72.5794 90.4829 72.1515C89.4951 71.8205 88.7731 70.9438 87.7135 70.7937C86.7449 70.6561 85.5589 70.8578 85.0514 71.7696C84.33 73.0654 75.7712 71.2994 73.1509 71.4068C67.7013 71.6298 70.5842 77.9897 70.5842 77.9897C70.7202 77.7969 88.0646 76.4336 89.2292 76.4363C89.3325 76.4358 89.4358 76.4341 89.5391 76.4314Z" fill="#DB7D0D"/>
<path d="M75.2942 71.5237C63.48 70.5796 57.7488 68.1079 52.109 68.2882C49.2945 68.378 46.6498 69.7988 44.8474 71.8958C42.3671 74.7806 43.4153 79.5493 46.971 80.6534C49.0478 81.2983 62.0998 79.2309 75.4979 77.4754L75.2942 71.5237Z" fill="#9099B9"/>
<path d="M68.7623 85.2114C67.7005 85.7698 68.5382 82.2614 71.4007 81.1282C72.6493 80.634 73.9076 80.1184 75.067 79.4428C75.9629 78.9206 76.4822 77.9179 77.487 77.5579C78.4054 77.2286 79.6089 77.1875 80.2998 77.9776C81.282 79.1003 89.2785 75.6528 91.8656 75.2309C97.2446 74.3542 95.7809 81.1551 95.7809 81.1551C95.6064 80.9935 78.3473 83.1452 77.2081 83.3824C77.1059 83.4033 69.8495 84.6399 68.7623 85.2114Z" fill="#F29A31"/>
<path d="M89.792 75.7772C101.149 72.4797 106.229 68.9093 111.784 67.9521C114.557 67.4743 117.447 68.3329 119.658 70.0222C122.7 72.346 122.692 77.2221 119.449 79.0165C117.555 80.0653 104.344 80.6653 90.8623 81.6401L89.792 75.7772Z" fill="#9099B9"/>
<path d="M74.6261 32.1662L79.7426 53.3872L77.361 64.3678C77.361 64.3678 72.9992 63.0999 71.9092 62.0982L75.7415 53.3872L71.916 32.0364C71.916 32.0364 73.8922 31.7459 74.6261 32.1662Z" fill="#8E6ED9"/>
<path d="M84.464 35.6157C84.464 35.6157 80.3557 35.5127 76.3208 32.0186H78.292C78.292 32.0186 78.9304 34.1681 84.464 35.6157Z" fill="#DB7D0D"/>
<path d="M74.4126 63.3098C74.4126 63.3098 74.7146 63.4495 75.2588 63.6561C75.5303 63.7608 75.8633 63.8797 76.2477 64.0079C76.3443 64.0397 76.4436 64.072 76.5458 64.1054C76.6485 64.1372 76.7547 64.1701 76.863 64.2041C77.0798 64.2731 77.3101 64.3378 77.55 64.4079C78.0315 64.5411 78.5542 64.6813 79.1136 64.8041C79.3919 64.8704 79.681 64.9257 79.9756 64.9871C80.1229 65.0178 80.2731 65.0419 80.4238 65.0709C80.5751 65.0978 80.7264 65.1295 80.8811 65.1526C81.1898 65.2013 81.5026 65.2556 81.8221 65.295C81.9812 65.3158 82.1421 65.3372 82.303 65.3586C82.4644 65.3761 82.627 65.3937 82.7901 65.4112C82.872 65.42 82.9533 65.4287 83.0351 65.4375C83.117 65.4457 83.1994 65.4512 83.2818 65.4583C83.4466 65.4715 83.6115 65.4846 83.7774 65.4978C83.9428 65.5126 84.1094 65.5164 84.2753 65.5263C84.4418 65.5339 84.6078 65.5443 84.7743 65.5504C84.9408 65.5542 85.1074 65.5586 85.2739 65.5624C85.4404 65.5663 85.6069 65.5728 85.7729 65.5695C85.9389 65.5685 86.1048 65.5674 86.2696 65.5663C86.3521 65.5652 86.435 65.5657 86.5169 65.5641C86.5993 65.5608 86.6812 65.5575 86.763 65.5542C87.091 65.5405 87.4167 65.5328 87.7367 65.5043C87.8971 65.4928 88.0568 65.4808 88.2149 65.4693L88.3334 65.4605L88.4508 65.4479C88.5293 65.4391 88.6072 65.4309 88.6845 65.4222C88.995 65.3882 89.3009 65.358 89.5984 65.3115C89.7474 65.2901 89.8948 65.2693 90.0398 65.2485C90.1127 65.238 90.1849 65.2276 90.2566 65.2167C90.3277 65.2035 90.3989 65.1909 90.4694 65.1778C90.7511 65.1252 91.026 65.0797 91.2896 65.0254C91.5527 64.9668 91.8067 64.9104 92.0506 64.8561C92.1115 64.8419 92.1719 64.8298 92.2312 64.815C92.2905 64.7991 92.3486 64.7838 92.4062 64.7684C92.5219 64.7378 92.6348 64.7082 92.7449 64.6791C92.8549 64.6501 92.9622 64.6221 93.0666 64.5947C93.1186 64.581 93.1705 64.5679 93.2207 64.5537C93.271 64.5383 93.3201 64.5235 93.3686 64.5082C93.5628 64.4484 93.744 64.3931 93.9122 64.3416C94.0799 64.2901 94.2351 64.2446 94.3712 64.1937C94.921 64.0008 95.2348 63.8901 95.2348 63.8901C95.2348 63.8901 94.9232 64.0079 94.3785 64.2134C94.243 64.2671 94.0889 64.3153 93.9218 64.3701C93.7547 64.4249 93.5741 64.4841 93.381 64.5471C93.3325 64.563 93.284 64.5789 93.2337 64.5953C93.1835 64.6106 93.1321 64.6243 93.0802 64.6391C92.9763 64.6687 92.8691 64.6983 92.7595 64.7295C92.6495 64.7602 92.5371 64.7915 92.4214 64.8238C92.3638 64.8397 92.3051 64.8561 92.2464 64.8726C92.1872 64.8885 92.1268 64.901 92.0658 64.9158C91.8219 64.9728 91.5679 65.0326 91.3049 65.0945C91.0407 65.1515 90.7658 65.2002 90.4841 65.2561C90.4135 65.2698 90.3424 65.2835 90.2713 65.2972C90.1996 65.3087 90.1268 65.3197 90.054 65.3312C89.9083 65.3537 89.7604 65.3767 89.6114 65.3997C89.3139 65.4512 89.0068 65.4797 88.6952 65.5164C88.6173 65.5252 88.5389 65.5339 88.4604 65.5427L88.3424 65.5558L88.2233 65.5652C88.0647 65.5772 87.9044 65.5898 87.7435 65.6024C87.4218 65.632 87.0949 65.6413 86.7658 65.6561C86.6834 65.66 86.601 65.6632 86.5186 65.6671C86.4362 65.6693 86.3532 65.6693 86.2702 65.6704C86.1043 65.672 85.9377 65.6737 85.7712 65.6758C85.6047 65.6797 85.4376 65.6737 85.2705 65.6709C85.1034 65.6676 84.9358 65.6638 84.7687 65.6605C84.6016 65.6539 84.4345 65.643 84.2674 65.6342C84.1003 65.6238 83.9332 65.6189 83.7673 65.6035C83.6013 65.5898 83.4354 65.5756 83.27 65.5619C83.1875 65.5548 83.1046 65.5487 83.0227 65.5405C82.9403 65.5312 82.8585 65.5224 82.7766 65.5131C82.6129 65.495 82.4498 65.4769 82.2878 65.4589C82.1263 65.4369 81.9654 65.415 81.8057 65.3931C81.4856 65.3526 81.1718 65.2967 80.8624 65.2468C80.7072 65.2232 80.5553 65.1904 80.4041 65.163C80.2528 65.1339 80.1026 65.1076 79.9553 65.0753C79.6606 65.0106 79.3716 64.952 79.0933 64.8824C78.5339 64.7526 78.0118 64.6063 77.5308 64.4676C77.051 64.3246 76.6152 64.1832 76.2325 64.0468C75.8498 63.9115 75.519 63.786 75.2492 63.6764C74.9788 63.5684 74.7699 63.4753 74.6277 63.4117C74.4871 63.3471 74.4126 63.3098 74.4126 63.3098Z" fill="#333242"/>
<path d="M87.1836 76.7061C87.1836 76.7061 87.4687 76.6102 87.9677 76.4425C88.4661 76.2732 89.1779 76.031 90.0326 75.7406C90.4593 75.5938 90.9211 75.4343 91.4099 75.2661C91.8976 75.0957 92.4124 74.9165 92.9447 74.7308C93.4776 74.5461 94.0263 74.3505 94.584 74.1527C95.1423 73.9555 95.7062 73.7478 96.2718 73.544C96.8363 73.3374 97.4008 73.1314 97.9568 72.9281C98.5106 72.7193 99.0564 72.5177 99.5825 72.316C100.108 72.1139 100.617 71.9182 101.099 71.7325C101.579 71.5429 102.033 71.3632 102.452 71.1972C102.869 71.0267 103.251 70.8706 103.59 70.732C103.675 70.6974 103.757 70.664 103.837 70.6322C103.915 70.5988 103.991 70.5665 104.064 70.5353C104.21 70.4733 104.343 70.4158 104.464 70.3643C104.949 70.1594 105.225 70.0421 105.225 70.0421C105.225 70.0421 104.951 70.1665 104.473 70.3835C104.354 70.4377 104.221 70.4974 104.076 70.5627C104.004 70.595 103.929 70.629 103.851 70.664C103.773 70.698 103.691 70.7331 103.607 70.7692C103.271 70.9133 102.891 71.0761 102.477 71.2536C102.06 71.4246 101.608 71.6098 101.13 71.8059C100.651 72.0004 100.144 72.1988 99.6187 72.4037C99.0931 72.6075 98.5473 72.8119 97.9946 73.0229C97.4392 73.2284 96.8753 73.4371 96.3113 73.6459C95.7446 73.8475 95.179 74.053 94.6201 74.2481C94.0613 74.4437 93.5115 74.6376 92.9781 74.8201C92.711 74.9116 92.4486 75.0015 92.1923 75.0891C91.9349 75.1752 91.6831 75.2595 91.4376 75.3412C90.9465 75.5034 90.4825 75.6568 90.054 75.7987C89.196 76.0798 88.478 76.3045 87.9756 76.4623C87.7238 76.5401 87.5262 76.6009 87.3913 76.6425C87.2553 76.6842 87.1836 76.7061 87.1836 76.7061Z" fill="#333242"/>
<path d="M44.4038 78.714C44.4038 78.714 44.4416 78.7962 44.5359 78.9364C44.6302 79.0767 44.782 79.275 45.0112 79.4948C45.2392 79.7145 45.548 79.9534 45.9409 80.161C46.1379 80.2635 46.353 80.3638 46.5901 80.4443C46.826 80.526 47.0789 80.601 47.3487 80.6525C47.4825 80.6832 47.6225 80.6997 47.7636 80.7232C47.8348 80.7309 47.9064 80.7391 47.9787 80.7468C48.0148 80.7506 48.0515 80.7544 48.0877 80.7583C48.1243 80.7605 48.161 80.7627 48.1983 80.7654C48.2722 80.7698 48.3467 80.7742 48.4224 80.7791C48.498 80.7802 48.5737 80.7813 48.6504 80.7829C48.8034 80.7884 48.9592 80.7786 49.1167 80.7753C49.1957 80.7736 49.2748 80.7649 49.3544 80.7599C49.434 80.7533 49.5141 80.7501 49.5948 80.7413C49.675 80.732 49.7563 80.7232 49.8376 80.7139C49.9188 80.7051 50.0007 80.6953 50.0825 80.6816C50.1644 80.669 50.2468 80.6564 50.3292 80.6438L50.3913 80.6344L50.4246 80.6301L50.4562 80.6262C50.498 80.6208 50.5403 80.6158 50.5821 80.6103C50.7503 80.589 50.9208 80.5676 51.0918 80.5462C52.4636 80.3736 53.9261 80.1901 55.3893 80.006C56.853 79.8268 58.3167 79.6482 59.6884 79.4805C61.0613 79.3167 62.3421 79.1633 63.4406 79.0323C64.5391 78.9046 65.4547 78.7983 66.0953 78.7238C66.7366 78.651 67.103 78.6099 67.103 78.6099C67.103 78.6099 66.7377 78.6592 66.0982 78.7452C65.4586 78.8296 64.5447 78.9496 63.4485 79.0937C62.3517 79.2345 61.072 79.3989 59.7008 79.5748C58.3291 79.7468 56.8665 79.9309 55.4034 80.1145C53.9397 80.2931 52.476 80.4723 51.1037 80.6399C50.9321 80.6608 50.7622 80.6816 50.5934 80.7024C50.5511 80.7073 50.5093 80.7128 50.4675 80.7177L50.4359 80.7216L50.4066 80.7254L50.3439 80.7342C50.2604 80.7462 50.1774 80.7583 50.0944 80.7698C50.012 80.7829 49.9296 80.7917 49.8472 80.7999C49.7647 80.8081 49.6835 80.8169 49.6022 80.8251C49.5209 80.8334 49.4396 80.8361 49.3594 80.8416C49.2787 80.8459 49.1991 80.8536 49.1195 80.8542C48.9603 80.8558 48.8034 80.864 48.6488 80.8569C48.5714 80.8547 48.4946 80.8531 48.4184 80.8509C48.3422 80.8454 48.2672 80.8399 48.1921 80.835C48.1548 80.8323 48.1176 80.8295 48.0803 80.8268C48.0436 80.8224 48.0069 80.818 47.9702 80.8136C47.8974 80.8049 47.8246 80.7961 47.7529 80.7879C47.6107 80.7627 47.4695 80.7446 47.3346 80.7123C46.7905 80.5994 46.3112 80.4131 45.9195 80.1967C45.526 79.9802 45.2201 79.7348 44.9943 79.5101C44.7668 79.286 44.6206 79.0822 44.5291 78.9403C44.4394 78.7967 44.4038 78.714 44.4038 78.714Z" fill="#333242"/>
<path d="M106.359 65.1027C106.359 65.1027 106.756 65.2117 107.451 65.4024C107.799 65.4939 108.222 65.6051 108.707 65.7322C109.192 65.8599 109.741 65.9963 110.336 66.164C110.932 66.3267 111.574 66.5103 112.255 66.7032C112.935 66.8971 113.653 67.1048 114.385 67.3486C115.119 67.5914 115.869 67.8648 116.613 68.1881C117.357 68.5114 118.094 68.8856 118.785 69.3349C119.472 69.787 120.112 70.3179 120.631 70.9371C120.76 71.091 120.884 71.2516 120.996 71.4149C121.109 71.5803 121.213 71.7491 121.308 71.9217C121.497 72.2669 121.649 72.6253 121.764 72.9885C121.995 73.714 122.071 74.4603 121.99 75.1529C121.949 75.5003 121.871 75.8285 121.781 76.1425C121.687 76.4553 121.578 76.7534 121.448 77.0285C121.319 77.3041 121.171 77.5594 120.993 77.7775C120.815 77.9917 120.631 78.1846 120.446 78.3512C120.076 78.6871 119.695 78.9145 119.367 79.0608C119.286 79.0991 119.205 79.1276 119.131 79.1588C119.055 79.1846 118.984 79.2098 118.917 79.2312C118.85 79.2503 118.787 79.2684 118.73 79.2843C118.673 79.298 118.62 79.3106 118.573 79.3216C118.479 79.3451 118.405 79.3545 118.356 79.3649C118.307 79.3742 118.282 79.3786 118.282 79.3786C118.282 79.3786 118.307 79.3731 118.356 79.3627C118.404 79.3506 118.478 79.3397 118.57 79.3134C118.757 79.2668 119.03 79.1862 119.353 79.0328C119.675 78.8799 120.045 78.6471 120.403 78.3079C120.582 78.1386 120.758 77.9457 120.929 77.7298C121.013 77.6235 121.089 77.5046 121.162 77.3824C121.232 77.2575 121.301 77.1282 121.361 76.9912C121.485 76.7194 121.588 76.4241 121.676 76.1145C121.76 75.8049 121.833 75.4773 121.868 75.1403C121.937 74.4641 121.85 73.7387 121.624 73.0307C121.396 72.3223 121.022 71.634 120.508 71.0341C119.998 70.4313 119.368 69.9135 118.689 69.4708C118.011 69.0253 117.284 68.6511 116.548 68.3273C115.811 68.0029 115.065 67.7278 114.337 67.4829C113.607 67.2391 112.896 67.0193 112.218 66.8172C111.541 66.6155 110.9 66.4226 110.308 66.2522C110.16 66.2089 110.015 66.1673 109.873 66.1257C109.731 66.0857 109.592 66.0462 109.457 66.0084C109.187 65.9317 108.93 65.8588 108.689 65.7903C108.207 65.6522 107.786 65.5317 107.44 65.432C106.753 65.2227 106.359 65.1027 106.359 65.1027Z" fill="#333242"/>
<path d="M81.5972 44.8827C81.6977 45.3205 82.0223 45.755 82.4851 45.8745C83.2359 46.069 83.9624 45.7742 84.6545 45.5205C85.1467 45.3397 85.7129 45.2191 86.1029 44.8684C86.401 45.1649 86.5777 45.5895 86.6798 45.9906C86.7628 46.3177 86.8243 46.6755 86.826 47.0279C86.681 46.6679 86.4653 46.3298 86.1289 46.1161C85.9189 45.9824 85.6372 45.8821 85.3826 45.9062C85.1501 45.9282 84.9316 46.0728 84.8932 46.3106C84.8294 46.7062 85.0169 47.1402 85.2398 47.4657C85.386 47.6782 85.5819 47.864 85.784 48.0262C85.9895 48.1906 86.2079 48.344 86.4512 48.4492C86.0397 49.2092 85.3341 49.836 84.5387 50.1741C84.4044 50.2311 84.3745 50.4196 84.4422 50.5313C84.5229 50.665 84.6759 50.682 84.8103 50.625C84.9124 50.5817 85.0129 50.5352 85.11 50.4826C85.4588 50.2941 85.7919 50.053 86.0894 49.7719C86.095 49.7779 86.1007 49.7834 86.1069 49.7883C86.6917 50.2667 87.522 50.3209 88.253 50.2272C88.6758 50.173 89.2144 50.0804 89.4701 49.7089C89.6072 49.51 89.5971 49.2585 89.491 49.0492C89.3713 48.8119 89.1122 48.6711 88.852 48.624C88.3992 48.5418 87.9059 48.5851 87.4509 48.6404C87.2714 48.6623 87.0908 48.6864 86.9135 48.7226C87.1495 48.3002 87.3036 47.8404 87.342 47.3659C87.3871 46.8109 87.316 46.2191 87.15 45.6865C86.9993 45.2027 86.7594 44.7457 86.3744 44.4087C86.6781 44.1819 86.983 43.9534 87.2432 43.6816C87.6169 43.2915 87.9702 42.7748 88.0583 42.2389C88.113 41.9074 88.108 41.4817 87.8376 41.2302C87.6231 41.0302 87.3239 40.9792 87.036 41.0055C86.7701 41.0296 86.5037 41.0751 86.2734 41.2148C86.0713 41.337 85.902 41.5047 85.7795 41.703C85.5367 42.0965 85.4509 42.566 85.4255 43.0197C85.2319 42.617 85.0163 42.2269 84.729 41.8724C84.3903 41.4548 83.7643 40.8154 83.149 41.0318C82.6443 41.2094 82.4406 41.8636 82.5089 42.3364C82.5693 42.7534 82.8662 43.1129 83.1896 43.3759C83.3432 43.5014 83.5046 43.6137 83.6711 43.7167C83.429 43.6685 83.1823 43.6312 82.9362 43.6219C82.6867 43.6126 82.405 43.6186 82.1707 43.714C81.9184 43.817 81.7361 43.9748 81.6316 44.223C81.547 44.4274 81.5481 44.6674 81.5972 44.8827ZM86.4885 49.4179L86.4868 49.4168C86.5133 49.401 86.5398 49.3862 86.5681 49.373C86.5844 49.3653 86.6002 49.3577 86.6166 49.3505C86.5946 49.3593 86.5991 49.3571 86.6296 49.3456C86.7747 49.2919 86.9248 49.253 87.0767 49.2229C87.5079 49.1374 87.9674 49.0968 88.4263 49.1045C88.5646 49.1067 88.6527 49.11 88.7673 49.139C88.9406 49.1829 89.1353 49.3494 88.9355 49.5072C88.7797 49.6305 88.4738 49.67 88.2841 49.7018C88.1926 49.7171 88.0978 49.7297 88.0007 49.739C87.478 49.79 86.8949 49.744 86.4885 49.4179ZM86.4236 47.5018C86.4331 47.5352 86.4896 47.8821 86.5127 47.8925C86.1825 47.7467 85.8845 47.4722 85.675 47.1895C85.5915 47.0766 85.1727 46.3402 85.5802 46.4454C85.6982 46.4761 85.7529 46.4969 85.8574 46.567C86.0103 46.6695 86.1362 46.8328 86.2356 47.0218C86.3163 47.1742 86.3756 47.3369 86.4236 47.5018ZM85.9629 43.0773C85.9866 42.6143 86.0566 42.0893 86.4219 41.7545C86.6234 41.5699 87.3945 41.285 87.5147 41.6937C87.5576 41.8395 87.5666 41.9918 87.5333 42.1408C87.4594 42.4696 87.294 42.7792 87.0896 43.0499C86.7938 43.4427 86.3914 43.7424 85.9945 44.0389C85.9624 43.7194 85.9466 43.3978 85.9629 43.0773ZM85.2664 43.9419C85.2212 43.8405 84.7572 43.7068 84.6353 43.6487C84.4428 43.5567 84.2509 43.4641 84.0657 43.3594C83.6982 43.1518 83.3178 42.8899 83.127 42.5085C83.0129 42.2817 82.9887 41.9337 83.1213 41.708C83.3561 41.3096 83.8687 41.7299 84.0719 41.9321C84.2672 42.126 84.4354 42.3386 84.5816 42.5704C84.856 43.0049 85.0586 43.4745 85.2664 43.9419ZM82.1329 44.4098C82.326 44.0038 83.0186 44.1293 83.3691 44.1896C83.7321 44.2515 84.0894 44.3424 84.4512 44.4104C84.8069 44.4767 85.1631 44.5441 85.5091 44.6487C85.4103 44.7024 85.3047 44.7457 85.2031 44.7824C84.7103 44.9605 84.213 45.1517 83.7112 45.3041C83.2884 45.4328 82.7488 45.5435 82.3762 45.2356C82.2339 45.1178 82.1165 44.8849 82.0962 44.6712C82.0872 44.5764 82.0973 44.4854 82.1329 44.4098Z" fill="#FDC6D4"/>
<path d="M86.4242 89.5194C84.5591 88.7216 82.4197 88.6526 80.4129 88.5846C78.0703 88.5052 75.7141 88.6646 73.3777 88.4405C72.2075 88.3282 71.043 88.1655 69.8881 87.9529C69.5223 87.8855 68.426 89.2334 68.4531 89.7496C68.491 90.4487 77.7361 91.3654 78.3853 91.8958C79.092 92.4733 80.5038 92.1336 81.3308 92.0777C82.1657 92.0218 83.0005 91.9632 83.8371 91.9254C84.5309 91.8942 85.2833 91.8136 85.9686 91.9774C86.6263 91.0613 86.5664 90.1112 86.4242 89.5194Z" fill="#F59D0E"/>
<path d="M87.1096 89.8532C86.8861 89.7293 86.6569 89.6186 86.4238 89.5189C86.566 90.1112 86.6259 91.0608 85.9683 91.977C86.0208 91.9896 86.0727 92.0033 86.1241 92.0181C86.7235 92.1989 87.3834 92.6274 87.7943 91.9057C88.2025 91.189 87.8186 90.246 87.1096 89.8532Z" fill="#FBD89F"/>
<path d="M44.0148 98.6086C44.0791 99.7428 44.2846 100.832 44.8621 101.938C46.6639 105.391 50.1666 107.839 54.0807 108.509C57.5297 109.1 61.0205 108.746 64.0541 106.964C65.3733 106.19 70.5474 102.17 71.9456 101.52C74.8154 100.187 80.1103 95.8875 76.0048 92.8186C75.1451 92.1764 75.3681 90.5128 74.6738 89.6964C73.5978 88.4312 71.3478 88.085 69.7898 87.7633C64.9222 86.76 59.9017 85.9661 54.9224 86.5737C53.4852 86.7491 52.0689 87.0554 50.7028 87.5288C49.2069 88.0471 47.6552 88.8674 46.4511 89.8844C43.8172 92.1117 43.837 95.4947 44.0148 98.6086Z" fill="#F59D0E"/>
<path d="M74.5985 89.9275C76.0735 90.6333 77.6885 91.3955 78.7232 92.682C80.8609 95.3406 78.6599 98.8638 76.2394 100.436C75.4999 100.916 74.6645 101.338 73.8358 101.653C72.6002 102.123 71.4074 102.511 70.2451 103.136C68.7509 103.94 67.3245 104.86 65.933 105.82C65.933 105.82 68.0713 97.9455 59.9585 94.0135C59.9585 94.0135 65.2009 91.4782 62.4174 86.9714C62.4174 86.9714 72.9242 89.1265 74.5985 89.9275Z" fill="#F59D0E"/>
<path d="M69.7456 103.41C72.625 102.104 74.1237 102.414 74.6363 102.452C76.8366 102.615 79.2148 102.716 81.2125 101.632C82.3014 101.041 83.1662 99.9179 83.462 98.7317C84.022 96.4868 82.8004 94.386 81.0279 93.0189C80.061 92.2726 78.9568 91.6584 77.8595 91.1121C76.6136 90.4912 73.5976 89.3236 71.2115 88.4453C71.0631 88.3905 73.2138 89.5428 73.1014 89.6513C72.8756 89.8699 72.8514 90.2776 73.1014 90.4923C74.7136 91.8786 72.9084 94.1756 72.0899 95.4638C71.2646 96.7629 70.5358 98.1602 69.9736 99.5859C69.7506 100.15 69.5723 100.765 69.5915 101.375C69.6202 102.276 68.6956 103.887 69.7456 103.41Z" fill="#F59D0E"/>
<path d="M81.5198 102.043C81.6282 102.071 81.7388 102.094 81.8489 102.114C82.064 102.155 82.2948 102.197 82.5054 102.115C82.7199 102.031 82.6239 101.75 82.5827 101.596C82.5155 101.344 82.4512 101.093 82.3592 100.848C82.3112 100.721 82.257 100.596 82.1977 100.473C82.1537 100.383 82.1108 100.265 82.0143 100.217C81.9353 100.178 81.8523 100.219 81.7823 100.256C81.596 100.353 81.4267 100.476 81.2788 100.623C81.2223 100.679 81.1636 100.735 81.1094 100.793C80.9604 100.954 80.5224 101.386 80.5314 101.459C80.5624 101.702 80.8831 101.824 81.0823 101.903C81.2246 101.96 81.3708 102.005 81.5198 102.043Z" fill="#F59D0E"/>
<path d="M83.5329 94.5966C83.6413 94.6245 83.7497 94.6563 83.8558 94.6908C84.0635 94.7582 84.286 94.8311 84.4276 95.0031C84.5721 95.1785 84.3463 95.3779 84.2323 95.493C84.0466 95.6798 83.8637 95.8683 83.6599 96.0376C83.5538 96.1259 83.4437 96.2091 83.3297 96.2869C83.2467 96.3445 83.1485 96.4272 83.0401 96.4228C82.9521 96.419 82.9002 96.3439 82.8578 96.2782C82.7444 96.105 82.6597 95.9171 82.6049 95.7187C82.584 95.6431 82.5609 95.5659 82.5434 95.4897C82.4943 95.2787 82.3317 94.6935 82.3763 94.6344C82.5265 94.4371 82.8669 94.4842 83.0814 94.5094C83.2338 94.5281 83.3839 94.5588 83.5329 94.5966Z" fill="#F59D0E"/>
<path d="M77.9178 97.3939C77.9731 97.3522 77.985 97.2651 78.0002 97.2043C78.0347 97.069 78.1154 96.9024 77.9556 96.8109C77.8721 96.7632 77.7682 96.7742 77.6807 96.8016C77.5977 96.8273 77.4736 96.9983 77.2624 96.8295C77.2246 96.7994 77.2788 96.9462 77.2743 96.9829C77.2658 96.9988 77.1851 97.0476 77.2083 97.0459C77.4803 97.0279 77.5238 97.3358 77.6779 97.4005C77.7626 97.4361 77.841 97.452 77.9178 97.3939ZM77.7389 97.247L77.7298 97.2421L77.7428 97.2432V97.2487L77.7389 97.247Z" fill="black"/>
<path d="M76.9903 97.6952C76.9079 97.5247 76.8921 97.3565 76.9909 97.2026C77.0654 97.0853 77.2071 97.0272 77.3764 97.0102L77.3849 97.0086C77.4843 97.0283 77.5842 97.0447 77.683 97.0645C77.7518 97.0782 77.7693 96.9982 77.7005 96.9845C77.6022 96.9647 77.5034 96.9483 77.4052 96.9291C77.0852 96.7943 77.171 96.4234 77.263 96.2305C77.2861 96.1828 77.1879 96.1401 77.1648 96.1883C77.0643 96.3993 76.992 96.7565 77.2562 96.9434C77.1027 96.9746 76.9802 97.0382 76.9 97.15C76.7781 97.3204 76.7973 97.5242 76.8898 97.7165C76.9147 97.768 77.0152 97.7467 76.9903 97.6952Z" fill="black"/>
<path d="M51.2293 106.148C51.7786 104.719 50.4899 103.819 49.331 103.26C47.4061 102.331 44.3917 96.3462 44.0039 98.4009C43.8137 99.4097 42.6576 99.4113 41.8402 99.299C40.7423 99.1478 39.6489 98.8207 38.7102 98.2382C37.9611 97.773 37.4954 97.1714 37.1189 96.4004C36.9778 96.1117 36.7356 95.6109 36.376 95.5331C36.192 95.4931 35.9526 95.6092 35.82 95.7298C35.5948 95.9352 35.4305 95.984 35.1291 95.9895C34.8062 95.9955 34.6476 96.1939 34.4528 96.4213C34.2761 96.6273 33.934 96.498 33.7557 96.71C33.592 96.9056 33.6315 97.2311 33.6162 97.4634C33.4847 99.4387 35.4164 100.988 36.9857 101.852C38.1287 102.482 39.2425 103.162 40.4155 103.738C41.2091 104.129 42.0068 104.51 42.8117 104.877C45.6065 106.151 48.4876 107.248 51.4783 108.007C53.3247 108.476 55.24 108.795 57.1553 108.774C57.6752 108.767 50.9968 106.753 51.2293 106.148Z" fill="#F59D0E"/>
<path d="M56.6947 95.2969C57.2439 93.8679 55.9552 92.9681 54.7963 92.4092C52.872 91.4805 57.1943 86.3666 56.3718 86.4356C51.2417 86.8668 45.6426 88.5945 44.1755 87.3874C43.4975 86.829 42.9607 86.3206 42.5836 85.5491C42.4425 85.2603 42.2009 84.7595 41.8413 84.6817C41.6573 84.6422 41.418 84.7584 41.2859 84.8784C41.0601 85.0839 40.8964 85.1326 40.595 85.1381C40.2721 85.1441 40.1134 85.3425 39.9187 85.5693C39.742 85.7759 39.3999 85.646 39.2216 85.8586C39.0579 86.0537 39.0974 86.3797 39.0816 86.6121C38.95 88.5874 40.8823 90.1369 42.451 91.001C43.5935 91.6306 44.7078 92.3106 45.8808 92.887C46.6745 93.2772 47.4721 93.6585 48.2771 94.0257C51.0718 95.3007 53.953 96.3971 56.9436 97.1566C58.7906 97.6256 60.7054 97.9445 62.6207 97.9226C63.1406 97.9166 56.4621 95.9018 56.6947 95.2969Z" fill="#F59D0E"/>
<path d="M77.5599 99.6284C77.4887 99.2548 77.4786 98.8652 77.3307 98.5085C77.32 98.4833 77.2963 98.4658 77.2669 98.474C77.2421 98.4805 77.2206 98.5101 77.2313 98.5359C77.3792 98.892 77.3888 99.2822 77.4605 99.6558C77.4718 99.7194 77.5717 99.692 77.5599 99.6284Z" fill="black"/>
<path d="M77.0898 99.7161C77.1129 99.3265 77.0836 98.9331 77.1468 98.5463C77.1513 98.5194 77.1394 98.4926 77.1101 98.4849C77.0847 98.4783 77.0508 98.4937 77.0469 98.5205C76.9825 98.9161 77.0102 99.3177 76.9865 99.7166C76.982 99.7818 77.0858 99.7807 77.0898 99.7161Z" fill="black"/>
<path d="M76.405 99.5461C76.5478 99.1718 76.7296 98.8074 76.9542 98.4726C76.9904 98.4184 76.9012 98.3685 76.8645 98.4222C76.6347 98.7652 76.4507 99.1378 76.3051 99.5208C76.2955 99.5466 76.3169 99.5756 76.3423 99.5822C76.3711 99.5893 76.3954 99.5718 76.405 99.5461Z" fill="black"/>
<path d="M78.8652 94.7967C78.614 95.0882 78.4085 95.4236 78.0992 95.6636C78.0772 95.6806 78.0478 95.6844 78.0258 95.6636C78.0077 95.6455 78.0038 95.6099 78.0258 95.5924C78.3352 95.3524 78.5406 95.0176 78.7918 94.7255C78.8347 94.6756 78.9076 94.7474 78.8652 94.7967Z" fill="black"/>
<path d="M78.5001 94.4968C78.3234 94.847 78.0988 95.1763 77.9588 95.5429C77.9486 95.5686 77.9249 95.5861 77.8956 95.5785C77.8701 95.5719 77.8487 95.5428 77.8583 95.5171C78.0022 95.1412 78.2297 94.8048 78.4104 94.4459C78.4403 94.3878 78.5295 94.4382 78.5001 94.4968Z" fill="black"/>
<path d="M77.818 94.3188C77.7531 94.7133 77.7271 95.1166 77.7531 95.516C77.7576 95.5807 77.6537 95.5818 77.6498 95.5171C77.6227 95.1095 77.6515 94.6969 77.7181 94.2936C77.7226 94.2668 77.7559 94.2514 77.7813 94.258C77.8101 94.2646 77.8225 94.292 77.818 94.3188Z" fill="black"/>
<path d="M33.0979 92.9731C33.7161 90.2433 33.7104 86.8987 30.9851 85.3387C28.669 84.0138 25.8838 85.273 24.5042 87.2126C23.7675 88.2471 23.2522 89.4422 22.8672 90.6882C24.5606 89.9364 28.6086 88.8745 33.0979 92.9731Z" fill="#FBD89F"/>
<path d="M51.7387 102.661C51.5733 102.469 51.3892 102.326 51.1905 102.225C49.2555 101.242 45.9256 104.3 44.4652 104.973C40.3812 106.854 33.9968 107.845 31.4979 103.127C29.8134 99.9464 31.9449 97.0193 32.8357 93.9827C32.9305 93.6594 33.0191 93.3213 33.0976 92.9734C28.6082 88.8748 24.5603 89.9367 22.8663 90.689C22.4361 92.0824 22.1708 93.5388 21.9456 94.907C21.5121 97.5431 21.4991 100.263 22.5513 102.772C26.0229 111.048 37.5898 113.199 45.1855 109.444C46.7683 108.661 53.79 105.049 51.7387 102.661Z" fill="#F59D0E"/>
<path d="M81.3557 104.896C80.6721 104.745 80.0404 104.35 79.4381 104.025C78.7065 103.629 77.9857 103.215 77.2643 102.804C76.5496 102.396 74.0038 100.595 73.1052 100.806C72.281 101 63.7228 98.895 63.3678 99.5048C63.1059 99.9547 62.2964 107.89 62.6379 107.745C71.9688 103.784 74.6699 105.657 75.5048 105.896C76.4616 106.172 77.424 106.432 78.369 106.745C78.9115 106.924 79.4669 107.09 80.0291 107.193C81.0175 106.436 81.2941 105.517 81.3557 104.896Z" fill="#F59D0E"/>
<path d="M81.528 104.93C81.4699 104.92 81.4129 104.909 81.3558 104.896C81.2943 105.517 81.0177 106.435 80.0293 107.193C80.4882 107.277 80.9517 107.32 81.4162 107.294C82.2314 107.25 83.0081 106.572 82.972 105.753C82.9353 104.929 82.1478 105.027 81.528 104.93Z" fill="#FBD89F"/>
<path d="M75.0308 92.8817C73.4581 91.3907 71.2126 90.9721 69.1183 90.6724C66.4133 90.2845 63.6547 90.1206 60.9271 90.3738C58.2458 90.6225 55.1326 91.2625 52.9814 92.931C50.7691 94.6465 49.3195 97.9352 51.0773 100.449C52.055 101.847 53.8326 101.917 55.3968 101.741C59.2206 101.312 62.8051 99.6903 66.6662 99.4881C68.6735 99.3834 70.6176 100.008 72.6131 99.9209C73.2589 99.8919 73.2165 98.8667 73.2092 98.4443C73.1934 97.5857 73.0285 96.7194 73.2899 95.8789C73.4711 95.2964 73.8239 94.7835 74.2348 94.3298C74.5013 94.0378 75.5123 93.3386 75.0308 92.8817Z" fill="#FBD89F"/>
<path d="M80.104 96.2112C80.1017 96.2084 80.0504 96.146 80.0047 96.0495C79.9595 95.9525 79.9177 95.8199 79.9454 95.6769C79.9595 95.6057 79.9922 95.5328 80.0481 95.4649C80.1046 95.3975 80.1836 95.335 80.2903 95.2819L80.3529 95.3986C80.2598 95.4457 80.1966 95.4967 80.1537 95.5476C80.1113 95.5986 80.0888 95.6501 80.0786 95.7016C80.0577 95.8046 80.0888 95.912 80.1277 95.9947C80.1469 96.0358 80.1678 96.0703 80.1842 96.0939C80.1921 96.1054 80.1988 96.1147 80.2033 96.1208L80.2084 96.1273L80.2095 96.129L80.1921 96.1427L80.2095 96.129L80.1921 96.1427L80.2095 96.129L80.104 96.2112Z" fill="black"/>
<path d="M79.7175 99.6931C79.7153 99.6904 79.6639 99.6279 79.6182 99.5315C79.573 99.4351 79.5312 99.3019 79.5595 99.1589C79.5736 99.0877 79.6058 99.0148 79.6622 98.9469C79.7187 98.8795 79.7977 98.817 79.9044 98.7633L79.9671 98.88C79.8739 98.9271 79.8107 98.9781 79.7678 99.0291C79.7254 99.08 79.7029 99.1315 79.6927 99.183C79.6718 99.2855 79.7023 99.3934 79.7418 99.4756C79.761 99.5167 79.7819 99.5512 79.7983 99.5748C79.8062 99.5868 79.8129 99.5956 79.8175 99.6016L79.8225 99.6082L79.8237 99.6099V99.6104L79.8062 99.6241L79.8237 99.6104L79.8062 99.6241L79.8237 99.6104L79.7175 99.6931Z" fill="black"/>
<path d="M90.2262 103.296C90.4757 103.422 90.706 103.582 90.9577 103.705C91.8237 104.126 92.7946 104.395 93.752 104.52C94.4192 104.606 95.1034 104.608 95.761 104.452C96.3825 104.305 96.9509 104.014 97.4962 103.695C98.4304 103.149 99.2089 102.448 99.8608 101.601C100.186 101.179 100.505 100.747 100.793 100.3C101.058 99.8914 101.307 99.4624 101.651 99.1101C101.826 98.9304 102.029 98.7693 102.247 98.6296C102.274 98.9501 102.365 99.2652 102.53 99.5561C102.712 99.8783 102.966 100.202 103.304 100.379C103.621 100.545 104 100.539 104.335 100.423C104.671 100.307 105.015 100.093 105.175 99.7714C105.352 99.4191 105.279 98.9879 105.109 98.646C104.724 97.8685 103.805 97.6636 103.011 97.9189C102.864 97.9666 102.722 98.0225 102.585 98.0855C102.623 97.8433 102.701 97.606 102.818 97.3836C103.442 96.2 104.873 95.4362 106.189 95.2318C106.394 95.2 106.368 94.8877 106.162 94.9195C105.358 95.0439 104.573 95.3524 103.902 95.8C103.249 96.2351 102.642 96.8334 102.384 97.577C102.306 97.8005 102.259 98.0312 102.243 98.2624C101.717 98.5715 101.272 99 100.93 99.5046C100.341 100.376 99.7846 101.275 99.0644 102.055C98.3525 102.826 97.4358 103.468 96.4468 103.862C95.9789 104.048 95.4996 104.188 94.9905 104.19C94.5022 104.191 94.015 104.123 93.5397 104.015C93.3376 103.969 90.0422 103.204 90.2262 103.296ZM102.56 98.4493C102.624 98.4164 102.688 98.3852 102.753 98.3556C103.119 98.1918 103.536 98.0641 103.942 98.1403C104.386 98.2241 104.749 98.5145 104.887 98.9397C105.015 99.3326 104.956 99.7019 104.593 99.9462C104.315 100.133 103.885 100.288 103.551 100.147C103.2 99.9983 102.933 99.6597 102.771 99.3315C102.632 99.052 102.565 98.7512 102.56 98.4493Z" fill="#565D70"/>
<path d="M90.2261 103.296C93.2675 105.031 97.1822 104.044 98.9688 101.091C100.756 98.139 99.7388 94.3396 96.6974 92.6048C93.6553 90.8706 89.7412 91.8574 87.954 94.8103C86.1668 97.762 87.184 101.562 90.2261 103.296Z" fill="#565D70"/>
<path d="M94.5505 100.303C94.4839 100.758 94.3964 101.211 94.2931 101.655C94.2519 101.666 94.2106 101.678 94.1694 101.689C94.2637 101.247 94.3433 100.798 94.4037 100.348C94.4522 100.333 94.5014 100.318 94.5505 100.303Z" fill="#9099B9"/>
<path d="M90.6929 92.3621C90.7059 92.356 90.7188 92.35 90.7318 92.344C93.8777 93.3078 94.7962 96.0053 94.6861 98.8661C94.6325 98.883 94.5783 98.9 94.5247 98.9165C94.6133 96.1001 93.7361 93.4552 90.6929 92.3621Z" fill="#9099B9"/>
<path d="M93.5215 104.151C93.5108 104.151 93.5001 104.151 93.4888 104.151C93.7287 103.439 93.9511 102.668 94.1289 101.871C94.169 101.86 94.2091 101.848 94.2491 101.837C94.0493 102.654 93.797 103.439 93.5215 104.151Z" fill="#9099B9"/>
<path d="M94.6782 99.0352C94.659 99.3984 94.624 99.7639 94.5749 100.128C94.5252 100.144 94.4755 100.16 94.4253 100.175C94.4699 99.8116 94.5015 99.4483 94.5179 99.0872C94.5715 99.0697 94.6251 99.0527 94.6782 99.0352Z" fill="#9099B9"/>
<path d="M94.8249 104.007L94.8057 104.012C95.089 103.202 95.3555 102.308 95.5587 101.379C95.601 101.362 95.6428 101.344 95.6846 101.327C95.4559 102.284 95.1534 103.199 94.8249 104.007Z" fill="#9099B9"/>
<path d="M92.0278 91.9085C92.0448 91.9047 92.0617 91.9014 92.0786 91.8976C95.2358 92.8302 96.1864 95.4849 96.1051 98.3221C96.0509 98.3462 95.9967 98.3698 95.9425 98.3928C96.0074 95.589 95.0986 92.9715 92.0278 91.9085Z" fill="#9099B9"/>
<path d="M95.9373 98.5505C95.9909 98.5264 96.0451 98.5023 96.0993 98.4777C96.084 98.8475 96.0513 99.2196 96.0045 99.5905C95.9537 99.6124 95.9029 99.6338 95.8521 99.6557C95.895 99.287 95.9237 98.9177 95.9373 98.5505Z" fill="#9099B9"/>
<path d="M95.831 99.8196C95.8818 99.7977 95.9321 99.7758 95.9829 99.7533C95.9179 100.224 95.8305 100.692 95.7255 101.152C95.6826 101.17 95.6397 101.188 95.5962 101.205C95.6916 100.748 95.7718 100.285 95.831 99.8196Z" fill="#9099B9"/>
<path d="M93.1187 101.923C93.0775 101.93 93.0363 101.936 92.9951 101.943C93.0837 101.513 93.1577 101.077 93.213 100.64C93.2616 100.631 93.3107 100.623 93.3592 100.613C93.2971 101.053 93.2158 101.493 93.1187 101.923Z" fill="#9099B9"/>
<path d="M89.7891 92.8753C89.8049 92.8649 89.8207 92.8545 89.8359 92.8435C92.7058 93.8758 93.5718 96.4484 93.4843 99.1842C93.4301 99.1957 93.3764 99.2067 93.3223 99.2165C93.386 96.5322 92.5557 94.0177 89.7891 92.8753Z" fill="#9099B9"/>
<path d="M92.4914 104.08C92.4739 104.078 92.457 104.075 92.4395 104.072C92.6342 103.452 92.812 102.796 92.9571 102.122C92.9966 102.116 93.0367 102.11 93.0762 102.104C92.9136 102.792 92.7127 103.459 92.4914 104.08Z" fill="#9099B9"/>
<path d="M93.3823 100.434C93.3327 100.444 93.2836 100.453 93.2339 100.462C93.2751 100.104 93.3033 99.746 93.3169 99.391C93.3705 99.3806 93.4235 99.3701 93.4772 99.3586C93.4608 99.7164 93.4281 100.075 93.3823 100.434Z" fill="#9099B9"/>
<path d="M94.5503 100.303C94.5012 100.319 94.4521 100.333 94.403 100.349C94.0558 100.454 93.707 100.543 93.3592 100.612C93.3107 100.622 93.2622 100.63 93.213 100.639C90.8795 101.062 88.6046 100.559 87.0788 98.1976L87.0776 98.1784C88.6932 100.412 90.9382 100.876 93.2345 100.462C93.2836 100.453 93.3333 100.444 93.383 100.434C93.7295 100.365 94.0784 100.278 94.425 100.174C94.4747 100.159 94.5249 100.143 94.5746 100.127C95.0036 99.9926 95.4309 99.8331 95.852 99.6551C95.9028 99.6331 95.9536 99.6118 96.0044 99.5899C97.3931 98.9855 98.7123 98.1833 99.8243 97.3954C99.8249 97.4052 99.826 97.4151 99.8271 97.4244C98.7433 98.2666 97.4055 99.1186 95.9835 99.7531C95.9333 99.7756 95.8825 99.7981 95.8317 99.8194C95.41 100.002 94.981 100.165 94.5503 100.303Z" fill="#9099B9"/>
<path d="M93.0764 102.103C93.0368 102.11 92.9973 102.116 92.9573 102.122C90.9274 102.428 88.9635 102.001 87.5207 100.228C87.5032 100.184 87.4857 100.14 87.4688 100.096C88.9838 101.845 90.9612 102.252 92.9951 101.942C93.0363 101.936 93.0775 101.93 93.1187 101.922C93.4681 101.864 93.8187 101.786 94.1686 101.69C94.2098 101.678 94.2511 101.667 94.2923 101.655C94.7297 101.53 95.1655 101.378 95.5957 101.205C95.6386 101.187 95.682 101.17 95.7249 101.152C97.1966 100.546 98.601 99.7045 99.7791 98.8749C99.7768 98.888 99.7751 98.9012 99.7729 98.9149C98.6219 99.8009 97.1932 100.693 95.6843 101.326C95.6425 101.344 95.6007 101.361 95.5584 101.378C95.1266 101.555 94.6885 101.709 94.2488 101.836C94.2087 101.848 94.1686 101.859 94.1286 101.87C93.778 101.967 93.4269 102.046 93.0764 102.103Z" fill="#9099B9"/>
<path d="M94.6773 99.0353C94.6242 99.0528 94.5706 99.0698 94.517 99.0868C94.1709 99.1947 93.8238 99.2868 93.4772 99.3591C93.4235 99.37 93.3705 99.381 93.3169 99.3914C90.9765 99.8369 88.6864 99.3624 87.1431 97.0304L87.1459 97.0107C88.7733 99.2106 91.025 99.6484 93.3225 99.2172C93.3761 99.2073 93.4303 99.1964 93.4845 99.1848C93.8311 99.1142 94.1783 99.0238 94.5243 98.9175C94.5779 98.901 94.6315 98.8846 94.6857 98.867C95.108 98.7312 95.528 98.5706 95.9417 98.3936C95.9959 98.3701 96.0507 98.3465 96.1043 98.323C97.3733 97.763 98.5813 97.0408 99.6227 96.3192C99.6261 96.3318 99.6295 96.3444 99.6335 96.357C98.6146 97.1258 97.3936 97.8907 96.0987 98.4786C96.045 98.5032 95.9908 98.5273 95.9366 98.5514C95.5223 98.7323 95.1012 98.8961 94.6773 99.0353Z" fill="#9099B9"/>
<path d="M136.143 78.7604C133.01 76.8723 128.893 77.807 126.948 80.848C125.003 83.8891 125.966 87.8846 129.099 89.7728C132.232 91.6604 136.348 90.7256 138.293 87.6846C140.239 84.6441 139.276 80.6486 136.143 78.7604Z" fill="#6C67B7"/>
<path d="M131.546 81.7811C131.628 81.3071 131.732 80.8359 131.851 80.374C131.895 80.363 131.938 80.3515 131.982 80.3406C131.872 80.8003 131.777 81.2671 131.702 81.7362C131.65 81.7515 131.598 81.7658 131.546 81.7811Z" fill="#8AA3D9"/>
<path d="M135.368 90.1751C135.355 90.1811 135.341 90.1866 135.327 90.1932C132.066 89.1083 131.176 86.2667 131.367 83.2799C131.423 83.2635 131.48 83.247 131.537 83.2317C131.37 86.1719 132.217 88.9576 135.368 90.1751Z" fill="#8AA3D9"/>
<path d="M132.722 77.7855C132.734 77.7861 132.745 77.7861 132.756 77.7866C132.487 78.5247 132.234 79.3252 132.027 80.1537C131.985 80.1641 131.943 80.1751 131.901 80.186C132.131 79.3367 132.416 78.523 132.722 77.7855Z" fill="#8AA3D9"/>
<path d="M131.379 83.1028C131.408 82.7237 131.455 82.3429 131.516 81.9631C131.568 81.9478 131.621 81.9325 131.673 81.9182C131.617 82.2963 131.574 82.6755 131.548 83.053C131.492 83.0694 131.435 83.0859 131.379 83.1028Z" fill="#8AA3D9"/>
<path d="M131.356 77.9031L131.376 77.8993C131.058 78.7376 130.757 79.6658 130.52 80.6318C130.475 80.6488 130.431 80.6658 130.387 80.6833C130.652 79.6883 130.992 78.7398 131.356 77.9031Z" fill="#8AA3D9"/>
<path d="M133.961 90.6159C133.944 90.6192 133.926 90.623 133.908 90.6263C130.633 89.5737 129.71 86.776 129.87 83.8133C129.927 83.7897 129.984 83.7662 130.042 83.7432C129.899 86.6713 130.78 89.4291 133.961 90.6159Z" fill="#8AA3D9"/>
<path d="M130.05 83.5793C129.993 83.6029 129.936 83.627 129.879 83.6511C129.905 83.2653 129.949 82.8774 130.008 82.4906C130.061 82.4686 130.115 82.4478 130.169 82.4259C130.114 82.8106 130.074 83.1957 130.05 83.5793Z" fill="#8AA3D9"/>
<path d="M130.194 82.254C130.14 82.2754 130.087 82.2973 130.034 82.3197C130.114 81.8293 130.218 81.3422 130.34 80.8644C130.385 80.8469 130.431 80.8294 130.476 80.8124C130.364 81.2869 130.269 81.7696 130.194 82.254Z" fill="#8AA3D9"/>
<path d="M133.085 80.1237C133.128 80.1177 133.171 80.1122 133.214 80.1062C133.11 80.5533 133.021 81.007 132.952 81.4623C132.901 81.47 132.85 81.4782 132.798 81.4875C132.875 81.0289 132.972 80.5719 133.085 80.1237Z" fill="#8AA3D9"/>
<path d="M136.325 89.6607C136.309 89.6717 136.292 89.6821 136.275 89.6925C133.304 88.543 132.466 85.8329 132.63 82.9765C132.687 82.9661 132.743 82.9557 132.8 82.9469C132.663 85.7507 133.464 88.3988 136.325 89.6607Z" fill="#8AA3D9"/>
<path d="M133.796 77.8855C133.814 77.8882 133.832 77.8921 133.85 77.8954C133.63 78.5381 133.427 79.2192 133.258 79.92C133.216 79.9249 133.174 79.9309 133.133 79.9364C133.321 79.2208 133.548 78.5293 133.796 77.8855Z" fill="#8AA3D9"/>
<path d="M132.769 81.6731C132.821 81.6643 132.872 81.6556 132.924 81.6473C132.872 82.0205 132.833 82.3936 132.81 82.7651C132.753 82.7744 132.697 82.7843 132.642 82.7947C132.668 82.4216 132.712 82.0468 132.769 81.6731Z" fill="#8AA3D9"/>
<path d="M131.546 81.7817C131.597 81.7664 131.649 81.7516 131.701 81.7374C132.067 81.6354 132.434 81.5516 132.799 81.4886C132.851 81.4793 132.901 81.4716 132.953 81.4634C135.402 81.0793 137.766 81.6617 139.299 84.1664L139.299 84.1866C137.67 81.8124 135.336 81.2721 132.925 81.648C132.873 81.6563 132.821 81.6645 132.769 81.6738C132.405 81.7368 132.039 81.819 131.674 81.9193C131.621 81.9335 131.569 81.9489 131.516 81.9642C131.064 82.0946 130.614 82.2502 130.169 82.4261C130.116 82.4475 130.061 82.4689 130.008 82.4908C128.541 83.088 127.141 83.8935 125.959 84.6897C125.958 84.6792 125.958 84.6688 125.957 84.659C127.111 83.8058 128.531 82.9483 130.034 82.3209C130.088 82.2984 130.141 82.2765 130.195 82.2552C130.64 82.0743 131.092 81.9143 131.546 81.7817Z" fill="#8AA3D9"/>
<path d="M133.133 79.936C133.175 79.93 133.216 79.9245 133.258 79.9196C135.386 79.6506 137.428 80.1442 138.889 82.033C138.906 82.0796 138.923 82.1261 138.94 82.1722C137.402 80.3075 135.347 79.8336 133.214 80.1064C133.171 80.1125 133.127 80.118 133.084 80.124C132.718 80.176 132.349 80.2495 131.981 80.341C131.937 80.3519 131.894 80.3629 131.85 80.3744C131.39 80.4949 130.931 80.6423 130.476 80.8127C130.431 80.8297 130.385 80.8473 130.34 80.8648C128.786 81.462 127.297 82.3064 126.043 83.1442C126.046 83.1305 126.048 83.1163 126.051 83.1026C127.277 82.205 128.793 81.3075 130.387 80.6834C130.431 80.6659 130.475 80.6489 130.519 80.6319C130.975 80.4582 131.437 80.3075 131.9 80.1859C131.942 80.1749 131.984 80.164 132.026 80.1536C132.396 80.061 132.766 79.9875 133.133 79.936Z" fill="#8AA3D9"/>
<path d="M131.379 83.103C131.435 83.086 131.491 83.069 131.547 83.0531C131.912 82.9485 132.277 82.8613 132.641 82.7945C132.697 82.7841 132.753 82.7742 132.81 82.7649C135.267 82.3572 137.647 82.9096 139.199 85.3852L139.196 85.4055C137.552 83.0663 135.212 82.5534 132.799 82.9463C132.743 82.9556 132.687 82.9655 132.63 82.9759C132.266 83.0411 131.9 83.1271 131.536 83.2296C131.48 83.2455 131.423 83.2613 131.366 83.2778C130.921 83.4098 130.478 83.5666 130.041 83.7413C129.983 83.7644 129.926 83.7879 129.869 83.8115C128.528 84.3655 127.247 85.0898 126.139 85.8186C126.136 85.8055 126.132 85.7923 126.129 85.7786C127.214 85.0005 128.51 84.2312 129.878 83.6493C129.935 83.6252 129.992 83.6011 130.049 83.5775C130.488 83.3989 130.932 83.2383 131.379 83.103Z" fill="#8AA3D9"/>
<path d="M118.747 89.4582C119.339 92.2516 122.153 94.0499 125.031 93.4741C127.909 92.8987 129.762 90.1673 129.169 87.3739C128.576 84.5805 125.762 82.7822 122.884 83.3581C120.006 83.9334 118.154 86.6649 118.747 89.4582Z" fill="#F59D0E"/>
<path d="M123.067 90.3829C122.74 90.5971 122.402 90.7971 122.061 90.9834C122.031 90.9654 122 90.9473 121.97 90.9286C122.304 90.7385 122.634 90.5358 122.955 90.3204C122.992 90.3413 123.029 90.3621 123.067 90.3829Z" fill="#FBD89F"/>
<path d="M125.971 83.636C125.982 83.6404 125.993 83.6453 126.004 83.6491C127.146 86.0749 125.941 88.1318 124.056 89.6627C124.015 89.6403 123.975 89.6167 123.935 89.5942C125.778 88.0754 126.973 86.0721 125.971 83.636Z" fill="#FBD89F"/>
<path d="M120.041 91.9131C120.036 91.9066 120.03 91.9 120.023 91.8934C120.611 91.6397 121.226 91.3433 121.833 91.0046C121.863 91.0227 121.892 91.0403 121.922 91.0578C121.29 91.3948 120.649 91.6808 120.041 91.9131Z" fill="#FBD89F"/>
<path d="M123.946 89.752C123.703 89.9432 123.451 90.1262 123.192 90.2999C123.154 90.2791 123.116 90.2577 123.079 90.2363C123.335 90.0604 123.584 89.8763 123.824 89.6846C123.864 89.7076 123.904 89.73 123.946 89.752Z" fill="#FBD89F"/>
<path d="M120.861 92.6152L120.847 92.6059C121.521 92.3248 122.239 91.9845 122.944 91.5884C122.979 91.6043 123.013 91.6196 123.048 91.635C122.31 92.0322 121.558 92.361 120.861 92.6152Z" fill="#FBD89F"/>
<path d="M127.005 84.1833C127.017 84.191 127.029 84.1992 127.04 84.2075C128.209 86.6228 127.048 88.6748 125.196 90.2095C125.15 90.1904 125.105 90.1712 125.06 90.1515C126.882 88.626 128.042 86.62 127.005 84.1833Z" fill="#FBD89F"/>
<path d="M124.957 90.2372C125.002 90.2564 125.048 90.2755 125.094 90.2942C124.85 90.4914 124.595 90.6794 124.332 90.8585C124.289 90.8405 124.247 90.8218 124.205 90.8032C124.464 90.6224 124.716 90.4339 124.957 90.2372Z" fill="#FBD89F"/>
<path d="M124.089 90.8827C124.132 90.9008 124.174 90.9189 124.217 90.9364C123.881 91.1599 123.533 91.3687 123.182 91.5627C123.146 91.5468 123.111 91.5309 123.076 91.5145C123.42 91.3178 123.76 91.1068 124.089 90.8827Z" fill="#FBD89F"/>
<path d="M121.236 90.428C121.208 90.4072 121.181 90.3858 121.154 90.365C121.477 90.1782 121.797 89.9793 122.106 89.7683C122.139 89.7924 122.171 89.8171 122.205 89.8406C121.889 90.0499 121.564 90.2461 121.236 90.428Z" fill="#FBD89F"/>
<path d="M125.14 83.38C125.156 83.3833 125.171 83.3871 125.186 83.3904C126.13 85.689 124.975 87.6446 123.184 89.1185C123.147 89.0922 123.109 89.0665 123.073 89.0396C124.819 87.5794 125.957 85.678 125.14 83.38Z" fill="#FBD89F"/>
<path d="M119.512 91.2556C119.504 91.2441 119.496 91.2321 119.488 91.22C119.992 90.991 120.509 90.7313 121.019 90.4425C121.045 90.4633 121.071 90.4836 121.098 90.5039C120.568 90.7899 120.031 91.0414 119.512 91.2556Z" fill="#FBD89F"/>
<path d="M122.331 89.7556C122.298 89.7315 122.264 89.7069 122.231 89.6828C122.482 89.5074 122.726 89.325 122.96 89.1343C122.996 89.1606 123.033 89.1869 123.07 89.2126C122.833 89.4022 122.585 89.583 122.331 89.7556Z" fill="#FBD89F"/>
<path d="M123.067 90.3826C123.029 90.3617 122.992 90.3409 122.955 90.3201C122.694 90.1705 122.443 90.0111 122.205 89.8407C122.172 89.8171 122.139 89.7924 122.106 89.7683C120.534 88.604 119.585 86.9574 120.237 84.724L120.249 84.7125C119.728 86.9289 120.686 88.5349 122.231 89.6823C122.264 89.707 122.298 89.7311 122.332 89.7552C122.569 89.9256 122.819 90.0856 123.079 90.2357C123.116 90.2571 123.154 90.2785 123.192 90.2993C123.517 90.4817 123.857 90.6489 124.206 90.8023C124.248 90.8209 124.29 90.8395 124.333 90.8576C125.493 91.3535 126.74 91.6976 127.862 91.925C127.856 91.931 127.851 91.9371 127.845 91.9425C126.704 91.7623 125.415 91.4351 124.217 90.9354C124.175 90.9179 124.132 90.8998 124.09 90.8817C123.738 90.7311 123.394 90.565 123.067 90.3826Z" fill="#FBD89F"/>
<path d="M121.096 90.5033C121.07 90.483 121.044 90.4627 121.018 90.4419C119.69 89.3948 118.866 87.9778 119.19 86.122C119.208 86.0869 119.226 86.0519 119.245 86.0173C118.977 87.9028 119.821 89.3164 121.153 90.3641C121.181 90.3849 121.208 90.4063 121.235 90.4271C121.467 90.6041 121.712 90.7712 121.969 90.9274C122 90.946 122.03 90.9641 122.061 90.9822C122.385 91.1745 122.724 91.3515 123.075 91.5131C123.11 91.5296 123.146 91.5454 123.181 91.5613C124.389 92.106 125.708 92.4791 126.894 92.723C126.885 92.729 126.875 92.7356 126.866 92.7416C125.659 92.5454 124.293 92.1865 123.047 91.6342C123.013 91.6189 122.978 91.6035 122.944 91.5876C122.591 91.4271 122.247 91.2507 121.921 91.0572C121.892 91.0397 121.862 91.0222 121.833 91.0041C121.575 90.8479 121.328 90.6808 121.096 90.5033Z" fill="#FBD89F"/>
<path d="M123.945 89.7519C123.904 89.73 123.864 89.7075 123.823 89.6845C123.561 89.5371 123.309 89.3804 123.069 89.2122C123.033 89.1864 122.996 89.1601 122.959 89.1338C121.369 87.9777 120.393 86.3388 121.017 84.1109L121.032 84.1016C120.539 86.3065 121.516 87.9015 123.073 89.0401C123.109 89.067 123.147 89.0927 123.184 89.119C123.422 89.2872 123.673 89.4456 123.935 89.5935C123.975 89.6165 124.016 89.6395 124.057 89.662C124.379 89.8395 124.715 90.0023 125.06 90.1519C125.105 90.1716 125.15 90.1908 125.196 90.2099C126.26 90.6587 127.395 90.9809 128.436 91.2034C128.43 91.2127 128.425 91.2214 128.418 91.2307C127.361 91.0483 126.192 90.7425 125.094 90.2932C125.048 90.2746 125.003 90.2554 124.958 90.2363C124.61 90.09 124.271 89.9289 123.945 89.7519Z" fill="#FBD89F"/>
<path d="M117.714 93.3273C116.784 91.9185 115.33 90.7525 113.652 90.3076C112.811 90.0846 111.931 90.0638 111.086 90.2758C110.692 90.3745 110.309 90.5142 109.917 90.6188C109.52 90.7251 109.095 90.8029 108.685 90.7246C108.668 90.7213 108.651 90.7175 108.634 90.7136C108.821 90.5438 108.985 90.3542 109.103 90.1405C109.208 89.9493 109.252 89.7257 109.172 89.518C109.08 89.278 108.824 89.0846 108.574 89.0243C107.987 88.883 107.641 89.5219 107.704 90.0062C107.744 90.3109 107.937 90.5734 108.206 90.729C108.231 90.7432 108.256 90.7564 108.281 90.769C108.239 90.8013 108.197 90.8331 108.155 90.8643C107.696 91.2018 107.181 91.4955 106.643 91.6972C106.1 91.901 105.445 91.8632 104.878 91.7054C104.221 91.5224 103.588 91.1503 103.223 90.5761C103.104 90.3887 103.026 90.1816 102.988 89.9673C103.239 89.9224 103.483 89.8473 103.712 89.735C103.96 89.6134 104.184 89.4375 104.37 89.2375C104.545 89.0495 104.705 88.7997 104.674 88.5361C104.639 88.2452 104.325 88.0178 104.04 87.9904C103.694 87.957 103.396 88.2063 103.197 88.4523C102.885 88.8391 102.745 89.3378 102.788 89.8232C102.225 89.8934 101.637 89.8073 101.103 89.6528C100.476 89.4709 99.8794 89.1778 99.3595 88.7915C98.8938 88.4452 98.4722 88.0046 98.2514 87.4704C98.208 87.3657 98.0403 87.4298 98.0838 87.5345C98.3514 88.1822 98.8904 88.6978 99.473 89.0879C100.122 89.5219 100.873 89.8249 101.65 89.9575C102.029 90.0221 102.425 90.0419 102.81 89.9947C102.834 90.1279 102.871 90.2583 102.923 90.3843C103.181 91.0101 103.765 91.4577 104.386 91.7202C105.014 91.9854 105.747 92.0901 106.42 91.9465C106.625 91.9027 106.82 91.8205 107.01 91.7344C107.282 91.6112 107.545 91.4687 107.799 91.3142C108.025 91.1766 108.261 91.0238 108.477 90.849C108.758 90.9394 109.06 90.946 109.357 90.9103C109.781 90.8594 110.19 90.7268 110.595 90.6008C110.992 90.4769 111.389 90.369 111.806 90.3246C113.568 90.1383 115.275 90.9871 116.505 92.1574C116.908 92.541 117.265 92.9711 117.569 93.4314C117.633 93.5256 117.777 93.4215 117.714 93.3273ZM103.252 88.6797C103.418 88.4309 103.696 88.1328 104.033 88.1652C104.303 88.1909 104.54 88.4326 104.487 88.6978C104.438 88.9504 104.211 89.1673 104.017 89.3263C103.803 89.501 103.564 89.6249 103.299 89.7109C103.19 89.7465 103.078 89.7745 102.965 89.7958C102.935 89.4073 103.032 89.0095 103.252 88.6797ZM107.927 90.1542C107.836 89.9213 107.865 89.6369 108.002 89.4265C108.132 89.2287 108.355 89.1284 108.589 89.2101C108.802 89.2841 109.006 89.4704 109.032 89.6967C109.056 89.9082 108.926 90.1131 108.799 90.2731C108.691 90.4101 108.565 90.5328 108.431 90.6468C108.206 90.5498 108.017 90.3838 107.927 90.1542Z" fill="#8AA3D9"/>
<path d="M30.45 65.7836C26.5183 66.1699 23.6541 69.577 24.0526 73.3933C24.4512 77.2097 27.9606 79.9899 31.8922 79.603C35.8239 79.2162 38.6881 75.8091 38.2896 71.9928C37.8916 68.177 34.3816 65.3968 30.45 65.7836Z" fill="#8E97FD"/>
<path d="M28.5828 71.2676C28.3322 70.8133 28.103 70.3476 27.8936 69.8797C27.9229 69.8424 27.9523 69.8057 27.9816 69.7684C28.1978 70.2287 28.4321 70.6851 28.6844 71.1312C28.65 71.1766 28.6161 71.2216 28.5828 71.2676Z" fill="#A9B0FF"/>
<path d="M37.4834 75.9642C37.4755 75.9779 37.4676 75.9916 37.4602 76.0058C33.9604 77.1559 31.2904 75.3083 29.4395 72.652C29.4761 72.6016 29.514 72.5522 29.5512 72.5029C31.392 75.105 33.9887 76.9318 37.4834 75.9642Z" fill="#A9B0FF"/>
<path d="M26.8887 67.1284C26.8988 67.1218 26.9084 67.1147 26.9186 67.1075C27.1873 67.9053 27.5119 68.7453 27.8952 69.5798C27.8664 69.6154 27.8381 69.6516 27.8099 69.6872C27.4323 68.8204 27.1258 67.9486 26.8887 67.1284Z" fill="#A9B0FF"/>
<path d="M29.3322 72.4943C29.1013 72.1535 28.8845 71.8012 28.6802 71.4401C28.7146 71.3941 28.7485 71.3475 28.7835 71.302C28.9906 71.6587 29.2097 72.0077 29.4417 72.3447C29.405 72.3946 29.3683 72.4444 29.3322 72.4943Z" fill="#A9B0FF"/>
<path d="M25.8091 68.0953L25.8238 68.0789C26.119 68.9923 26.4887 69.9714 26.9381 70.9418C26.9115 70.9846 26.8856 71.0267 26.8602 71.0695C26.4142 70.0574 26.0637 69.0366 25.8091 68.0953Z" fill="#A9B0FF"/>
<path d="M36.5863 77.2323C36.5739 77.2466 36.5609 77.2608 36.5479 77.2751C33.0594 78.4608 30.3894 76.6723 28.5288 74.056C28.5615 73.9995 28.5943 73.9436 28.6276 73.8872C30.4802 76.463 33.0859 78.2449 36.5863 77.2323Z" fill="#A9B0FF"/>
<path d="M28.5249 73.7423C28.4927 73.7988 28.46 73.8552 28.4278 73.9122C28.1896 73.5681 27.9655 73.2114 27.7544 72.8454C27.7854 72.7928 27.8165 72.7407 27.8481 72.6881C28.0609 73.0497 28.2867 73.4021 28.5249 73.7423Z" fill="#A9B0FF"/>
<path d="M27.7547 72.5258C27.7236 72.5778 27.6932 72.6304 27.6632 72.6836C27.4013 72.2167 27.1608 71.7367 26.9424 71.254C26.9695 71.2107 26.996 71.1663 27.0231 71.123C27.2478 71.597 27.4911 72.0677 27.7547 72.5258Z" fill="#A9B0FF"/>
<path d="M28.7725 68.883C28.8052 68.8501 28.8379 68.8183 28.8707 68.786C29.0841 69.2315 29.3144 69.6726 29.5622 70.1032C29.5244 70.1427 29.486 70.1816 29.4487 70.2222C29.2043 69.7844 28.9785 69.335 28.7725 68.883Z" fill="#A9B0FF"/>
<path d="M37.95 74.9196C37.9432 74.9394 37.9359 74.9585 37.9291 74.9783C34.6319 75.8895 32.0951 74.1207 30.3091 71.592C30.3503 71.5471 30.3915 71.5027 30.4333 71.4589C32.2069 73.9262 34.6709 75.6654 37.95 74.9196Z" fill="#A9B0FF"/>
<path d="M27.8677 66.5309C27.8852 66.5216 27.9027 66.5134 27.9202 66.5046C28.1669 67.1901 28.453 67.8975 28.7816 68.5988C28.7494 68.6295 28.7178 68.6608 28.6867 68.692C28.3639 67.9665 28.0912 67.235 27.8677 66.5309Z" fill="#A9B0FF"/>
<path d="M29.5488 70.398C29.5866 70.3575 29.625 70.3175 29.6634 70.2775C29.87 70.6276 30.089 70.9695 30.3194 71.2988C30.2781 71.3426 30.2369 71.3865 30.1963 71.4309C29.9677 71.0977 29.752 70.752 29.5488 70.398Z" fill="#A9B0FF"/>
<path d="M28.5828 71.2668C28.6161 71.2208 28.65 71.1759 28.6845 71.1309C28.9261 70.812 29.1812 70.5079 29.4482 70.2225C29.4855 70.1825 29.5233 70.143 29.5617 70.1035C31.3821 68.2219 33.7812 67.2154 36.7702 68.3688L36.7843 68.3852C33.801 67.4044 31.4561 68.428 29.6633 70.2772C29.6249 70.3172 29.5865 70.3572 29.5487 70.3978C29.2817 70.6827 29.0265 70.9852 28.7844 71.3019C28.7494 71.3474 28.7149 71.3939 28.6811 71.44C28.3853 71.8378 28.1081 72.2558 27.849 72.6871C27.818 72.7397 27.7864 72.7917 27.7553 72.8443C26.9125 74.2827 26.2673 75.8552 25.7999 77.2815C25.7926 77.2727 25.7852 77.2651 25.7773 77.2569C26.1826 75.7999 26.8104 74.1703 27.6633 72.6827C27.6938 72.6301 27.7243 72.5775 27.7547 72.5249C28.0105 72.0904 28.2865 71.6674 28.5828 71.2668Z" fill="#A9B0FF"/>
<path d="M28.687 68.6923C28.718 68.661 28.7496 68.6298 28.7818 68.5991C30.4075 67.0189 32.473 66.1416 34.9861 66.8178C35.0323 66.8463 35.0775 66.8748 35.1232 66.9038C32.5616 66.2973 30.4978 67.1997 28.8704 68.786C28.8377 68.8183 28.8049 68.8501 28.7722 68.883C28.4962 69.1597 28.2325 69.4561 27.9819 69.7679C27.952 69.8046 27.9232 69.8418 27.8938 69.8791C27.5845 70.2731 27.2938 70.6906 27.0228 71.1235C26.9958 71.1668 26.9692 71.2106 26.9421 71.2544C26.026 72.7481 25.33 74.4105 24.8315 75.9168C24.8242 75.9037 24.8168 75.8905 24.8101 75.8768C25.2464 74.3366 25.9283 72.6122 26.8603 71.0703C26.8862 71.0276 26.9122 70.9848 26.9382 70.9426C27.208 70.5054 27.4987 70.0846 27.8092 69.6873C27.8374 69.6517 27.8662 69.6155 27.8944 69.5799C28.1462 69.2665 28.4098 68.9695 28.687 68.6923Z" fill="#A9B0FF"/>
<path d="M29.3327 72.4949C29.3688 72.4445 29.4055 72.3946 29.4422 72.3453C29.681 72.0253 29.9322 71.7195 30.1964 71.4313C30.237 71.3869 30.2777 71.3431 30.3194 71.2993C32.1309 69.3924 34.5232 68.3503 37.5087 69.4664L37.5195 69.4856C34.5486 68.5431 32.2155 69.5941 30.4329 71.4598C30.3911 71.5036 30.3499 71.548 30.3087 71.593C30.044 71.8795 29.7916 72.1842 29.5517 72.5025C29.5145 72.5519 29.4772 72.6012 29.44 72.6516C29.1515 73.0461 28.8811 73.4603 28.6277 73.8866C28.5944 73.9431 28.5616 73.999 28.5289 74.0554C27.764 75.3765 27.1645 76.8055 26.7157 78.1271C26.7039 78.1178 26.6926 78.109 26.6802 78.0997C27.0764 76.7501 27.6584 75.2746 28.4278 73.9113C28.46 73.8543 28.4922 73.7979 28.5249 73.7414C28.7756 73.3113 29.0442 72.8932 29.3327 72.4949Z" fill="#A9B0FF"/>
<path d="M45.0674 63.0109C45.0606 62.8405 44.7874 62.84 44.7942 63.0109C44.8196 63.6268 44.6119 64.257 44.3607 64.8153C44.0677 65.4663 43.6669 66.0931 43.1284 66.5797C42.9167 66.7709 42.6706 66.9397 42.4042 67.0487C42.4228 67.0213 42.4403 66.9928 42.4567 66.9643C42.6012 66.7117 42.6362 66.4284 42.595 66.1457C42.508 65.5485 41.9701 65.1753 41.3729 65.1621C40.871 65.1512 40.2924 65.3824 40.0943 65.8586C39.8414 66.4662 40.5289 67.0361 41.0201 67.2679C41.2018 67.3534 41.3813 67.406 41.5574 67.4295C41.4999 67.4619 41.4417 67.492 41.3836 67.5199C40.8101 67.7961 40.1615 67.9314 39.5315 68.0197C39.1787 68.069 38.8157 68.1013 38.4573 68.1018C38.2812 68.1018 38.2812 68.3671 38.4573 68.3671C38.9913 68.3665 39.5298 68.3002 40.0537 68.2016C40.6808 68.0838 41.3311 67.904 41.8668 67.5556C41.93 67.5145 41.9915 67.4706 42.0502 67.4235C43.0127 67.2728 43.8239 66.338 44.2918 65.5375C44.5374 65.1172 44.7361 64.6679 44.8789 64.2049C44.9985 63.8219 45.0838 63.4131 45.0674 63.0109ZM41.4784 67.1462C41.1397 67.0723 40.8281 66.8816 40.5882 66.6416C40.4923 66.5457 40.4014 66.4224 40.3579 66.3079C40.3404 66.2624 40.3246 66.1873 40.3223 66.1665C40.3201 66.1408 40.3201 66.1145 40.3207 66.0887C40.3223 66.0454 40.3201 66.0663 40.3291 66.0241C40.3483 65.932 40.398 65.8465 40.4522 65.7841C40.5318 65.6926 40.6023 65.6438 40.7068 65.5852C40.9156 65.4701 41.1612 65.4202 41.405 65.4279C41.641 65.4356 41.8837 65.5167 42.0587 65.6767C42.2602 65.8608 42.3472 66.1309 42.3415 66.3983C42.3347 66.7123 42.1665 66.9676 41.9323 67.1703C41.7838 67.1862 41.632 67.1797 41.4784 67.1462Z" fill="#F59D0E"/>
<path d="M109.919 9.70155H109.835C109.835 10.1563 109.645 10.5673 109.338 10.8654C109.031 11.1634 108.607 11.3475 108.139 11.3475C107.67 11.3475 107.247 11.1634 106.94 10.8654C106.633 10.5673 106.443 10.1563 106.443 9.70155C106.443 9.24676 106.633 8.83581 106.94 8.53774C107.247 8.23966 107.67 8.05556 108.139 8.05556C108.607 8.05556 109.031 8.23966 109.338 8.53774C109.645 8.83581 109.835 9.24676 109.835 9.70155H109.919H110.004C110.004 8.70157 109.169 7.89172 108.139 7.89172C107.109 7.89172 106.275 8.70212 106.275 9.70155C106.275 10.701 107.11 11.5114 108.139 11.5114C109.17 11.5114 110.004 10.701 110.004 9.70155H109.919Z" fill="#F59D0E"/>
<path d="M125.401 54.213H125.316C125.316 54.6596 125.13 55.0634 124.829 55.356C124.527 55.6486 124.111 55.8295 123.651 55.8295C123.191 55.8295 122.775 55.6486 122.473 55.356C122.172 55.0634 121.986 54.6596 121.986 54.213C121.986 53.7665 122.172 53.3626 122.473 53.07C122.775 52.7775 123.191 52.5966 123.651 52.5966C124.111 52.5966 124.527 52.7775 124.829 53.07C125.13 53.3626 125.316 53.7665 125.316 54.213H125.401H125.486C125.486 53.2295 124.664 52.4323 123.651 52.4323C122.638 52.4323 121.816 53.2295 121.816 54.213C121.816 55.1966 122.638 55.9938 123.651 55.9938C124.664 55.9938 125.486 55.1966 125.486 54.213H125.401Z" fill="#F59D0E"/>
<path d="M87.5983 3.2418H87.5137C87.5137 3.5333 87.3923 3.79686 87.1953 3.98808C86.9983 4.17931 86.7273 4.29712 86.4265 4.29712C86.1262 4.29712 85.8546 4.17931 85.6576 3.98808C85.4606 3.79686 85.3393 3.5333 85.3393 3.2418C85.3393 2.9503 85.4606 2.68674 85.6576 2.49551C85.8546 2.30428 86.1256 2.18648 86.4265 2.18648C86.7268 2.18648 86.9983 2.30428 87.1953 2.49551C87.3923 2.68674 87.5137 2.9503 87.5137 3.2418H87.5983H87.683C87.683 2.56839 87.1202 2.02209 86.4265 2.02209C85.7327 2.02209 85.1699 2.56839 85.1699 3.2418C85.1699 3.91521 85.7327 4.4615 86.4265 4.4615C87.1202 4.4615 87.683 3.91521 87.683 3.2418H87.5983Z" fill="#F59D0E"/>
<path d="M127.804 66.5833H127.719C127.719 67.1724 127.473 67.7049 127.075 68.0912C126.678 68.4775 126.129 68.7159 125.522 68.7159C124.915 68.7159 124.367 68.4775 123.969 68.0912C123.571 67.7049 123.325 67.1724 123.325 66.5833C123.325 65.9943 123.571 65.4612 123.969 65.0754C124.367 64.6891 124.915 64.4508 125.522 64.4508C126.129 64.4508 126.678 64.6891 127.075 65.0754C127.473 65.4617 127.719 65.9943 127.719 66.5833H127.804H127.888C127.888 65.3149 126.829 64.2864 125.522 64.2864C124.215 64.2864 123.156 65.3149 123.156 66.5833C123.156 67.8518 124.215 68.8803 125.522 68.8803C126.829 68.8803 127.888 67.8518 127.888 66.5833H127.804Z" fill="#F59D0E"/>
<path d="M112.985 107.362H112.9C112.9 108.021 112.625 108.617 112.181 109.048C111.736 109.48 111.122 109.746 110.444 109.746C109.766 109.746 109.152 109.479 108.708 109.048C108.263 108.616 107.989 108.02 107.989 107.362C107.989 106.704 108.264 106.108 108.708 105.677C109.153 105.245 109.766 104.979 110.444 104.979C111.123 104.979 111.737 105.246 112.181 105.677C112.626 106.109 112.9 106.704 112.9 107.362H112.985H113.069C113.069 105.955 111.894 104.814 110.444 104.814C108.994 104.814 107.818 105.955 107.818 107.362C107.818 108.77 108.994 109.911 110.444 109.911C111.894 109.911 113.069 108.77 113.069 107.362H112.985Z" fill="#F59D0E"/>
<path d="M84.8688 22.6807C84.8011 22.6238 84.7441 22.5761 84.7085 22.5366C85.0207 22.061 85.2222 21.5334 85.3447 21.0046C85.4745 20.4457 85.5186 19.8863 85.5186 19.3816C85.5186 18.2863 85.1483 17.5088 85.1483 17.5088L85.1488 17.5104C85.1595 17.5537 85.3492 18.3543 85.3492 19.3816C85.3492 19.8698 85.3063 20.409 85.1827 20.9427C85.0585 21.4764 84.8542 22.0035 84.5296 22.4731L84.4805 22.5443L84.529 22.6161C84.5335 22.6227 84.6176 22.746 84.7847 22.8687C84.9512 22.9914 85.2007 23.1131 85.5304 23.1125C85.6388 23.1125 85.7562 23.0994 85.8815 23.0692C85.881 23.0692 85.3724 23.1032 84.8688 22.6807Z" fill="#333242"/>
<path d="M91.1903 22.505C91.1903 23.1312 90.3639 23.6392 89.3444 23.6392C88.325 23.6392 87.4985 23.1312 87.4985 22.505C87.4985 21.8787 88.325 21.3707 89.3444 21.3707C90.3639 21.3707 91.1903 21.8781 91.1903 22.505Z" fill="#F67E31"/>
<path d="M83.3778 22.505C83.3778 23.1312 82.5514 23.6392 81.5319 23.6392C80.5124 23.6392 79.686 23.1312 79.686 22.505C79.686 21.8787 80.5124 21.3707 81.5319 21.3707C82.5514 21.3707 83.3778 21.8781 83.3778 22.505Z" fill="#F67E31"/>
<path d="M147.431 38.2046H147.346C147.346 39.2704 146.902 40.2342 146.183 40.9328C145.463 41.6309 144.47 42.0626 143.372 42.0626C142.274 42.0626 141.281 41.6309 140.561 40.9328C139.842 40.2342 139.397 39.2704 139.397 38.2046C139.397 37.1389 139.842 36.1751 140.561 35.4765C141.281 34.7784 142.274 34.3466 143.372 34.3466C144.47 34.3466 145.463 34.7784 146.183 35.4765C146.902 36.1751 147.346 37.1389 147.346 38.2046H147.431H147.516C147.516 35.9833 145.66 34.1823 143.372 34.1823C141.083 34.1823 139.228 35.9833 139.228 38.2046C139.228 40.426 141.083 42.227 143.372 42.227C145.66 42.227 147.516 40.426 147.516 38.2046H147.431Z" fill="#F59D0E"/>
<path d="M143.251 36.905C143.251 37.5254 142.738 38.0283 142.104 38.0283C141.471 38.0283 140.958 37.5254 140.958 36.905" stroke="#5B5C6C" stroke-width="0.2"/>
<path d="M145.808 36.905C145.808 37.5254 145.295 38.0283 144.662 38.0283C144.029 38.0283 143.515 37.5254 143.515 36.905" stroke="#5B5C6C" stroke-width="0.2"/>
<path d="M146.523 38.0286C145.966 39.1537 144.789 39.9294 143.427 39.9294C142.065 39.9294 140.889 39.1537 140.332 38.0286" stroke="#5B5C6C" stroke-width="0.2"/>
<path d="M65.011 54.5802H64.9466C64.9466 55.3898 64.6087 56.122 64.0624 56.6527C63.5156 57.183 62.7613 57.511 61.9273 57.511C61.0932 57.511 60.3389 57.183 59.7922 56.6527C59.2459 56.122 58.9079 55.3898 58.9079 54.5802C58.9079 53.7706 59.2459 53.0384 59.7922 52.5077C60.3389 51.9774 61.0932 51.6494 61.9273 51.6494C62.7613 51.6494 63.5156 51.9774 64.0624 52.5077C64.6087 53.0384 64.9466 53.7706 64.9466 54.5802H65.011H65.0753C65.0753 52.8927 63.6657 51.5245 61.9273 51.5245C60.1888 51.5245 58.7793 52.8927 58.7793 54.5802C58.7793 56.2677 60.1888 57.6359 61.9273 57.6359C63.6657 57.6359 65.0753 56.2677 65.0753 54.5802H65.011Z" fill="#F59D0E"/>
<path d="M61.835 53.5929C61.835 54.0642 61.4452 54.4462 60.9643 54.4462C60.4834 54.4462 60.0935 54.0642 60.0935 53.5929" stroke="#5B5C6C" stroke-width="0.2"/>
<path d="M63.7774 53.5929C63.7774 54.0642 63.3875 54.4462 62.9066 54.4462C62.4257 54.4462 62.0359 54.0642 62.0359 53.5929" stroke="#5B5C6C" stroke-width="0.2"/>
<path d="M64.321 54.4463C63.8979 55.301 63.0039 55.8903 61.9694 55.8903C60.9348 55.8903 60.0408 55.301 59.6177 54.4463" stroke="#5B5C6C" stroke-width="0.2"/>
<path d="M65.9645 41.4798C65.9645 40.6844 65.6326 39.965 65.0954 39.4431C64.5578 38.9217 63.8159 38.5989 62.9952 38.5989C62.1744 38.5989 61.4325 38.9217 60.8949 39.4431C60.3577 39.965 60.0258 40.6844 60.0258 41.4798C60.0258 42.2751 60.3577 42.9945 60.8949 43.5164C61.4325 44.0379 62.1744 44.3606 62.9952 44.3606C63.8159 44.3606 64.5578 44.0379 65.0954 43.5164L65.9645 41.4798ZM65.9645 41.4798C65.9645 42.275 65.6326 42.9945 65.0955 43.5164L65.9645 41.4798ZM66.1927 41.5298H66.1931V41.4798V41.4298H66.1927C66.1652 39.7364 64.7426 38.3741 62.9952 38.3741C61.2305 38.3741 59.7972 39.7633 59.7972 41.4798C59.7972 43.1962 61.2305 44.5854 62.9952 44.5854C64.7426 44.5854 66.1652 43.2231 66.1927 41.5298Z" fill="#9099B9" stroke="#9099B9" stroke-width="0.1"/>
<path d="M62.9029 40.493C62.9029 40.9643 62.513 41.3463 62.0321 41.3463C61.5512 41.3463 61.1614 40.9643 61.1614 40.493" stroke="#5B5C6C" stroke-width="0.2"/>
<path d="M64.8457 40.493C64.8457 40.9643 64.4559 41.3463 63.975 41.3463C63.4941 41.3463 63.1042 40.9643 63.1042 40.493" stroke="#5B5C6C" stroke-width="0.2"/>
<path d="M65.3889 41.3461C64.9658 42.2008 64.0717 42.7901 63.0372 42.7901C62.0027 42.7901 61.1087 42.2008 60.6855 41.3461" stroke="#5B5C6C" stroke-width="0.2"/>
<path d="M74.3092 30.3122H74.2661C74.2661 30.8539 74.04 31.3438 73.6745 31.6989C73.3087 32.0537 72.804 32.2732 72.2459 32.2732C71.6879 32.2732 71.1832 32.0537 70.8174 31.6989C70.4518 31.3438 70.2257 30.8539 70.2257 30.3122C70.2257 29.7705 70.4518 29.2806 70.8174 28.9255C71.1832 28.5707 71.6879 28.3513 72.2459 28.3513C72.804 28.3513 73.3087 28.5707 73.6745 28.9255C74.04 29.2806 74.2661 29.7705 74.2661 30.3122H74.3092H74.3522C74.3522 29.1832 73.4091 28.2677 72.2459 28.2677C71.0828 28.2677 70.1396 29.1832 70.1396 30.3122C70.1396 31.4413 71.0828 32.3567 72.2459 32.3567C73.4091 32.3567 74.3522 31.4413 74.3522 30.3122H74.3092Z" fill="#F59D0E"/>
<path d="M72.1843 29.6515C72.1843 29.9668 71.9234 30.2224 71.6017 30.2224C71.2799 30.2224 71.019 29.9668 71.019 29.6515" stroke="#5B5C6C" stroke-width="0.1"/>
<path d="M73.4843 29.6515C73.4843 29.9668 73.2235 30.2224 72.9017 30.2224C72.5799 30.2224 72.3191 29.9668 72.3191 29.6515" stroke="#5B5C6C" stroke-width="0.1"/>
<path d="M73.8476 30.2224C73.5645 30.7943 72.9663 31.1886 72.2742 31.1886C71.582 31.1886 70.9838 30.7943 70.7007 30.2224" stroke="#5B5C6C" stroke-width="0.1"/>
</svg>
