<svg width="45" height="46" viewBox="0 0 45 46" fill="none" xmlns="http://www.w3.org/2000/svg">
<g clip-path="url(#clip0_443_1954)">
<mask id="mask0_443_1954" style="mask-type:luminance" maskUnits="userSpaceOnUse" x="9" y="-4" width="28" height="45">
<path d="M9.01953 -3.91345H36.8627V40.2157H9.01953V-3.91345Z" fill="white"/>
</mask>
<g mask="url(#mask0_443_1954)">
<path d="M23.0361 27.286L22.4188 -0.511185C22.562 -0.526503 22.6999 -0.559438 22.8316 -0.60616L36.0547 26.9674L23.0361 27.286ZM10.2788 27.5977L21.7256 -0.572459C21.852 -0.536461 21.9837 -0.515014 22.1193 -0.506589L22.7374 27.2929L10.2788 27.5977ZM36.7072 26.9513L36.3825 26.9597L23.1035 -0.728709C23.632 -1.02283 23.9889 -1.5743 23.9889 -2.20696C23.9889 -3.14982 23.2008 -3.91345 22.2296 -3.91345C21.2569 -3.91345 20.4695 -3.14982 20.4695 -2.20696C20.4695 -1.53753 20.8685 -0.960021 21.4476 -0.680455L9.95325 27.6054L9.47608 27.6176C9.2103 28.3514 9.0686 29.1196 9.0686 29.9101C9.0686 35.1391 14.9096 40.136 22.5115 40.1919C32.6202 40.2655 37.2449 34.2001 36.7072 26.9513Z" fill="#BBCB97"/>
</g>
<path d="M22.5115 40.1919C20.2689 40.1751 18.1802 39.7286 16.3496 38.9734C16.7755 39.0086 17.209 39.0293 17.6479 39.0323C27.1561 39.102 31.8115 33.739 31.8835 27.0692L36.7073 26.9513C37.245 34.2001 32.6203 40.2655 22.5115 40.1919Z" fill="#95A86A"/>
<path d="M30.5637 34.8587L27.8646 31.6526L24.7809 34.9024L21.9018 32.4238L19.0563 35.5971L16.2056 32.4062L13.3532 35.2118L10.1003 30.9893L9.39106 32.0455C9.48987 32.3725 9.61012 32.6958 9.75105 33.0136L10.1394 32.4338L13.2812 36.5109L16.1734 33.6662L19.0548 36.8915L21.9638 33.6486L24.8292 36.1141L27.8332 32.9477L30.5346 36.1578L33.7975 32.682L35.0459 34.462C35.2091 34.1954 35.3607 33.9228 35.5001 33.644L33.8771 31.3293L30.5637 34.8587ZM36.2829 31.6035C36.1887 31.9413 36.0807 32.2722 35.9582 32.5969L33.8358 29.6565L30.4955 32.8306L27.3047 30.2471L24.7533 32.8436L21.8819 30.3719L18.8028 33.5291L16.0822 30.3849L13.2261 32.8436L9.84373 29.3908L9.09771 30.5435C9.07933 30.3329 9.0686 30.1215 9.0686 29.9101C9.0686 29.5815 9.09465 29.2575 9.14213 28.9373L9.73037 28.0289L13.2659 31.6388L16.1535 29.1526L18.8335 32.2492L21.8413 29.1656L24.7143 31.6388L27.2518 29.056L30.4603 31.6526L33.9346 28.3506L36.2829 31.6035Z" fill="#E2E8D3"/>
<mask id="mask1_443_1954" style="mask-type:luminance" maskUnits="userSpaceOnUse" x="0" y="12" width="42" height="34">
<path d="M0.0114746 12.3726H41.9393V45.9395H0.0114746V12.3726Z" fill="white"/>
</mask>
<g mask="url(#mask1_443_1954)">
<path d="M28.8014 22.2554C30.5447 21.5124 29.8952 20.2885 30.1556 19.5532C28.708 20.0571 25.9667 20.1981 28.8014 22.2554ZM8.82516 20.7748C8.58465 20.5435 7.61575 20.7764 7.20674 20.7679C6.69127 21.5009 5.11192 22.4101 5.11192 22.4101C5.11192 22.4101 7.15466 22.5058 8.30049 22.9179C8.72559 22.4423 9.55356 21.4757 8.82516 20.7748ZM16.3788 22.8245C14.922 21.4619 13.3319 20.2325 11.6032 19.2261C10.3754 18.5184 9.07255 17.924 7.71379 17.5097C7.70919 17.4821 7.70613 17.4553 7.7023 17.4277C7.68545 17.3266 7.67703 17.224 7.65252 17.1236C7.60503 16.9237 7.56826 16.7207 7.50469 16.5254C7.47482 16.4259 7.44648 16.3271 7.41508 16.229L7.30555 15.9395C7.27185 15.8422 7.22896 15.748 7.1853 15.6538C7.14164 15.5604 7.10258 15.4646 7.05432 15.3735C6.8682 15.0043 6.64685 14.6527 6.39179 14.3264C6.26618 14.1625 6.12755 14.0078 5.98508 13.8577C5.83649 13.7122 5.68943 13.5712 5.51327 13.4456C5.47191 13.4158 5.4137 13.4211 5.37847 13.4594C5.34017 13.5008 5.34323 13.5659 5.38459 13.6042L5.38995 13.6088C5.52935 13.7374 5.66875 13.883 5.79743 14.0323C5.92611 14.1825 6.05172 14.3356 6.16584 14.498C6.39639 14.8197 6.60855 15.156 6.78855 15.509C6.8368 15.5964 6.8751 15.6875 6.91952 15.7771L6.98386 15.9112L7.15619 16.3232L7.2573 16.6043C7.33082 16.7897 7.37755 16.9842 7.43729 17.1749C7.4641 17.2653 7.48631 17.3565 7.50852 17.4484C7.01909 17.3059 6.52277 17.188 6.02032 17.0961C5.03533 16.9176 4.03043 16.8387 3.03012 16.8778C2.95199 16.8801 2.87464 16.8854 2.79651 16.89C2.76894 16.8433 2.70919 16.8257 2.66094 16.8517C2.62954 16.8686 2.60043 16.887 2.56979 16.9046C2.22436 16.9321 1.87969 16.9743 1.53732 17.0241C1.04253 17.0984 0.554629 17.2109 0.0720925 17.3358C0.0292004 17.3465 0.00392469 17.3902 0.0138817 17.4331C0.0253708 17.476 0.0682629 17.502 0.111155 17.4913L0.111921 17.4905C0.801259 17.3182 1.50362 17.2041 2.20904 17.1443C2.11253 17.2171 2.01832 17.2937 1.92641 17.3733C1.6997 17.5709 1.49519 17.7946 1.3129 18.0374C1.13367 18.281 0.985083 18.5506 0.87632 18.8355C0.766792 19.1212 0.716241 19.4275 0.711645 19.7301C0.710879 19.7669 0.736155 19.8006 0.773686 19.8097C0.816578 19.8189 0.85947 19.7921 0.869427 19.7492L0.870959 19.7408C0.887044 19.6711 0.902362 19.6022 0.915383 19.5325C0.922276 19.498 0.927638 19.4635 0.937595 19.4298L0.969764 19.3287C0.992742 19.2621 1.00729 19.1932 1.03487 19.1288L1.11606 18.9351C1.23861 18.6831 1.37954 18.4395 1.55264 18.2158C1.72344 17.9907 1.91492 17.7816 2.1179 17.5817C2.21976 17.4821 2.32546 17.3863 2.43499 17.2944C2.50546 17.2316 2.58052 17.1719 2.65481 17.1137C3.76541 17.057 4.88214 17.1382 5.97206 17.3519C6.4546 17.4484 6.93331 17.5633 7.40512 17.7034C7.46639 17.7218 7.52614 17.741 7.58665 17.7594L7.58818 17.7639C7.59813 17.8015 7.6349 17.8268 7.67549 17.8214C7.69234 17.8199 7.70613 17.8114 7.71839 17.8007C8.08297 17.9164 8.44449 18.045 8.80141 18.1844C9.71593 18.549 10.6029 18.9856 11.4538 19.4842C12.3078 19.9783 13.1266 20.5328 13.9155 21.1264C14.7037 21.7223 15.4574 22.3634 16.1858 23.032C16.9126 23.7022 17.6089 24.4076 18.2737 25.1406C18.9393 25.8706 19.5819 26.6304 20.1648 27.4246L20.1671 27.4277C20.2 27.4729 20.2636 27.4829 20.3088 27.4499C20.3547 27.417 20.3654 27.3534 20.3325 27.3075C19.1691 25.6791 17.831 24.1932 16.3788 22.8245ZM41.6974 29.4574C41.5917 29.1924 41.4561 28.9419 41.306 28.7037C41.1513 28.4663 40.9805 28.2427 40.7951 28.0328C40.6496 27.8673 40.4964 27.7126 40.331 27.5663C40.3509 27.0256 40.282 26.4787 40.1119 25.964C39.9105 25.3459 39.5765 24.7822 39.179 24.2813C38.7945 23.7696 38.2875 23.3254 37.7061 23.0359C37.1271 22.7417 36.4898 22.5794 35.8526 22.5211C35.2138 22.4576 34.5727 22.4913 33.9439 22.5748C32.6839 22.7486 31.4676 23.1224 30.295 23.5835C29.1216 24.0469 27.9872 24.5991 26.8851 25.205C25.8043 25.8062 24.7512 26.4511 23.7363 27.1589C23.3924 27.1458 23.0493 27.1543 22.7031 27.1895C21.9563 26.7008 21.2401 26.1532 20.5738 25.5596C20.2582 25.2785 19.9518 24.9851 19.6654 24.6765C19.8224 24.4536 19.9924 24.233 20.1717 24.0247C20.3808 23.7765 20.6006 23.5383 20.8311 23.3124C21.293 22.8597 21.7893 22.4415 22.3331 22.0961C22.87 21.7399 23.4529 21.4557 24.0626 21.2512C24.2143 21.1953 24.3705 21.1578 24.5245 21.1118C24.6822 21.0781 24.8377 21.0345 24.997 21.0107C25.3134 20.9441 25.6358 20.9211 25.9598 20.8966H25.9629C26.0027 20.8935 26.0356 20.8598 26.0364 20.8177C26.0372 20.7741 26.0019 20.7373 25.9583 20.7365C25.295 20.7235 24.6233 20.807 23.9845 21.0038C23.662 21.0942 23.3526 21.2229 23.0493 21.3623C22.7452 21.5017 22.4541 21.6671 22.1715 21.8448C21.8904 22.0248 21.6216 22.224 21.365 22.4361C21.1084 22.6491 20.8602 22.8719 20.6305 23.1124C20.2153 23.5429 19.8362 24.0025 19.516 24.511C19.2472 24.2085 18.999 23.8914 18.783 23.5529C18.5456 23.1776 18.3495 22.7754 18.2515 22.3534C18.1534 21.9321 18.1741 21.491 18.3403 21.1003C18.5042 20.7067 18.8014 20.3781 19.1468 20.1046C19.4938 19.8189 19.8676 19.5662 20.2467 19.3219C20.6259 19.0775 21.0188 18.8523 21.4171 18.6363C21.8161 18.4204 22.2205 18.2135 22.6272 18.0106C23.4407 17.6023 24.2671 17.2109 25.0637 16.7544C25.462 16.5254 25.8549 16.2842 26.2264 16.0084C26.5978 15.7335 26.9509 15.4271 27.2542 15.0709C27.5552 14.7148 27.8057 14.3065 27.9543 13.86C28.1059 13.415 28.158 12.9409 28.1335 12.4775C28.1305 12.4338 28.0937 12.4001 28.0508 12.4017C28.0064 12.4032 27.9719 12.44 27.9734 12.4844C27.9872 12.9317 27.9267 13.3798 27.7743 13.7964C27.6242 14.2146 27.3806 14.593 27.0857 14.9254C26.4944 15.5948 25.7247 16.0896 24.9365 16.5277C23.3503 17.4009 21.6468 18.0872 20.0874 19.0699C19.6991 19.318 19.3176 19.5792 18.9607 19.8741C18.5954 20.1644 18.2576 20.532 18.0692 20.9862C17.8769 21.4381 17.8563 21.9528 17.9673 22.4185C18.0202 22.6452 18.0983 22.8628 18.1933 23.0711C17.9826 22.8528 17.798 22.61 17.6403 22.3503C17.3806 21.926 17.1738 21.4672 17.0168 20.9908C16.8491 20.5175 16.7288 20.0265 16.6285 19.5325C16.5771 19.2851 16.5343 19.0362 16.499 18.7857C16.46 18.5368 16.4301 18.2825 16.4063 18.0343V18.0305C16.401 17.9784 16.3573 17.9378 16.3037 17.9378C16.247 17.9386 16.2018 17.9845 16.2018 18.042C16.2057 18.5628 16.2631 19.0737 16.3497 19.5846C16.4385 20.0939 16.5657 20.5979 16.7349 21.0889C16.8222 21.334 16.9211 21.5752 17.0352 21.8104C17.1485 22.0447 17.2718 22.2768 17.422 22.4913C17.5713 22.7073 17.7314 22.9164 17.9191 23.1017C18.0761 23.2549 18.2446 23.3951 18.4269 23.5169C18.4652 23.5804 18.5035 23.644 18.5441 23.7068C18.7983 24.0982 19.0925 24.4582 19.4073 24.7967C19.7228 25.1345 20.0575 25.4516 20.4045 25.7526C21.0992 26.3477 21.833 26.887 22.6081 27.3726C22.6089 27.3733 22.6104 27.3741 22.6112 27.3749C22.615 27.3772 22.6188 27.3795 22.6219 27.3817C22.6242 27.3825 22.6265 27.3833 22.628 27.384C22.6357 27.3879 22.6441 27.3917 22.6525 27.3932C22.6594 27.3948 22.6663 27.3955 22.674 27.3955C22.677 27.3955 22.6801 27.3971 22.6832 27.3971L22.6885 27.3963C23.1779 27.3519 23.6842 27.3626 24.1775 27.4185C24.6715 27.4729 25.1586 27.5832 25.6197 27.7555C26.077 27.9332 26.5105 28.1783 26.8598 28.5146C27.2075 28.8516 27.4687 29.2705 27.6211 29.7316C27.7751 30.1919 27.8249 30.6867 27.8118 31.1792C27.8111 31.2405 27.8118 31.3018 27.808 31.3638L27.7743 31.733L27.7659 31.8257L27.7513 31.9184L27.6916 32.286C27.6717 32.4086 27.6456 32.5349 27.6234 32.659C27.435 33.657 27.2918 34.665 27.196 35.6776C27.1095 36.6909 27.0666 37.7103 27.1125 38.7298C27.1202 38.9848 27.1432 39.2391 27.1608 39.4934C27.1884 39.7477 27.2098 40.002 27.2489 40.2548C27.3186 40.761 27.4166 41.2643 27.5598 41.7575C27.6992 42.25 27.8769 42.7348 28.1067 43.1959C28.1649 43.3139 28.2277 43.4303 28.2944 43.5444C28.2921 43.5582 28.2928 43.572 28.2982 43.585C28.3074 43.608 28.3265 43.6226 28.348 43.6302C28.5287 43.9297 28.7363 44.2146 28.9722 44.4743C29.3207 44.8565 29.732 45.182 30.1855 45.4271C30.6396 45.6737 31.1321 45.8399 31.6354 45.9395C31.6783 45.9479 31.7196 45.9204 31.7288 45.8775C31.7388 45.8346 31.7112 45.7917 31.6683 45.7825L31.6668 45.7817C31.1804 45.6753 30.7086 45.5052 30.2781 45.2601C29.8484 45.0158 29.4624 44.6979 29.1369 44.3264C28.927 44.0882 28.7417 43.8286 28.5778 43.5552C28.6145 43.5398 28.6521 43.5245 28.6888 43.5084L28.8275 43.4487L28.9714 43.4004C29.0672 43.3683 29.1614 43.3323 29.2571 43.3009L29.549 43.222C29.9396 43.127 30.3363 43.0504 30.7385 43.019C31.1398 42.9807 31.545 42.97 31.9494 42.9815C32.1516 42.9876 32.3538 42.9991 32.5552 43.019C32.7567 43.0328 32.9604 43.0611 33.1557 43.0895L33.1611 43.0902C33.2124 43.0979 33.2622 43.0665 33.2752 43.0159C33.2898 42.9608 33.2576 42.9049 33.2025 42.8903C32.7927 42.7808 32.3806 42.7272 31.9632 42.6981C31.5457 42.669 31.126 42.6797 30.7093 42.7211C30.2919 42.7609 29.8783 42.8474 29.4777 42.9723C29.1308 43.0734 28.7991 43.225 28.4843 43.3997C28.4276 43.2978 28.3733 43.1944 28.3227 43.0887C28.1067 42.6414 27.9405 42.1696 27.8095 41.6878C27.677 41.2068 27.5874 40.7128 27.5208 40.2172C27.4832 39.9691 27.4633 39.7194 27.4381 39.4697C27.422 39.2192 27.4005 38.9695 27.3944 38.7183C27.3538 37.7149 27.4013 36.707 27.4924 35.7051C27.5882 34.7033 27.7268 33.7037 27.9122 32.7134C27.9344 32.5886 27.9597 32.4668 27.9803 32.3396L28.0408 31.9582L28.0562 31.8624L28.0646 31.7659L28.0998 31.3799C28.1029 31.3156 28.1021 31.2505 28.1036 31.1854C28.1167 30.6676 28.0623 30.1399 27.89 29.6405C27.7199 29.1419 27.4281 28.6815 27.0459 28.3185C26.6614 27.9554 26.1942 27.6973 25.7093 27.515C25.2207 27.3412 24.7121 27.237 24.2012 27.1887C24.1354 27.1826 24.0703 27.1795 24.0044 27.1749C24.9679 26.5346 25.9698 25.9464 26.9908 25.4003C28.0929 24.8105 29.2234 24.2721 30.3884 23.8255C30.4137 23.8163 30.4382 23.8079 30.4635 23.7987L31.1812 24.2261C31.4515 24.3916 31.7242 24.5547 31.9892 24.727C32.255 24.8978 32.5185 25.0725 32.7735 25.2571C32.8386 25.3015 32.8999 25.3505 32.962 25.398C33.0248 25.4455 33.0876 25.493 33.1473 25.5435C33.2071 25.5933 33.2706 25.6408 33.3288 25.6936C33.3855 25.7465 33.4445 25.7986 33.5035 25.8507L33.5065 25.8529C33.5349 25.8782 33.5778 25.8798 33.6084 25.856C33.6436 25.8292 33.6498 25.7779 33.6222 25.7434C33.4207 25.4838 33.1802 25.2617 32.9321 25.0518C32.6847 24.8412 32.4189 24.6566 32.1508 24.4766C31.8812 24.2989 31.6055 24.1334 31.3221 23.9802C31.1804 23.9037 31.0379 23.8294 30.8939 23.7566C30.848 23.7344 30.8013 23.7129 30.7553 23.6907C31.8039 23.3101 32.8808 23.0006 33.9806 22.8543C34.5934 22.7754 35.2138 22.7471 35.8242 22.8099C36.4339 22.8681 37.0321 23.0251 37.5713 23.3016C37.8409 23.438 38.0945 23.6057 38.3235 23.8026C38.554 23.9994 38.7624 24.2169 38.9469 24.4651C39.3276 24.9446 39.6439 25.4776 39.8324 26.0559C39.9832 26.5109 40.0499 26.9904 40.0415 27.4698C40.02 27.5028 40.0192 27.5434 40.0392 27.5778C40.0353 27.6697 40.03 27.7617 40.02 27.8536C39.961 28.4609 39.7918 29.0576 39.5673 29.6351C39.4295 29.9913 39.2717 30.3405 39.1047 30.6875C38.8481 30.7442 38.6069 30.8407 38.3733 30.9479C38.1136 31.0674 37.8639 31.2045 37.6203 31.3493C37.3775 31.4963 37.1393 31.6488 36.9088 31.8127C36.6767 31.9743 36.4523 32.1458 36.2348 32.3297C36.1972 32.3618 36.1873 32.4185 36.2141 32.4622C36.244 32.5104 36.3068 32.5257 36.355 32.4959L36.3566 32.4951C36.5932 32.3488 36.8322 32.2002 37.0666 32.0493C37.3025 31.9 37.5376 31.7506 37.7751 31.6051C38.011 31.4573 38.2499 31.3163 38.4912 31.1815C38.6567 31.0912 38.8229 31.0008 38.9921 30.9234C38.649 31.6204 38.2767 32.3098 37.9528 33.0274C37.6985 33.6057 37.4764 34.2108 37.3752 34.848C37.2726 35.483 37.3423 36.1578 37.6004 36.7529C37.6234 36.8042 37.6824 36.828 37.7337 36.8065C37.7866 36.7851 37.8111 36.7246 37.7896 36.6725L37.7889 36.671C37.5552 36.1095 37.4978 35.4853 37.6035 34.884C37.7069 34.2805 37.9283 33.6976 38.1871 33.1331C38.7064 32.0018 39.3628 30.9226 39.8316 29.7378C40.0652 29.1511 40.246 28.5322 40.3095 27.8926C40.3999 27.9991 40.4895 28.1079 40.5768 28.2158C40.7453 28.428 40.9077 28.6432 41.0563 28.8669C41.2041 29.0913 41.3397 29.3219 41.4577 29.5608C41.5687 29.8029 41.6637 30.0503 41.7265 30.3114L41.7273 30.3145C41.7365 30.3513 41.7709 30.3781 41.81 30.375C41.8544 30.3727 41.8881 30.3352 41.8858 30.2908C41.8682 30.0051 41.7993 29.724 41.6974 29.4574ZM19.0703 27.371C19.107 27.3955 19.1162 27.4453 19.0917 27.4821C19.0672 27.5181 19.0182 27.528 18.9814 27.5043L18.9799 27.5028C18.4996 27.188 17.998 26.8977 17.4886 26.6281C16.9785 26.3585 16.4577 26.1103 15.9261 25.8905C15.3946 25.6699 14.853 25.4753 14.2993 25.326C13.747 25.1782 13.1818 25.0725 12.6158 25.0464C12.0505 25.0211 11.4806 25.0786 10.956 25.267C10.4313 25.4531 9.96946 25.7901 9.62479 26.226C9.45092 26.4427 9.3054 26.6825 9.18285 26.9352L9.09476 27.1267L9.01894 27.3258C8.96992 27.4591 8.91247 27.5893 8.87647 27.7272C8.83665 27.8635 8.78992 27.9976 8.75699 28.137L8.66048 28.5529L8.58772 28.9749C8.56474 29.1158 8.55249 29.2583 8.53334 29.4C8.40772 30.5397 8.45981 31.6962 8.4644 32.8605C8.46517 33.4433 8.45138 34.0308 8.37402 34.6167C8.2982 35.2019 8.1496 35.7901 7.87234 36.324C7.5989 36.8601 7.19602 37.3266 6.72267 37.6897C6.60089 37.7754 6.48294 37.8666 6.35733 37.947L5.97206 38.1699C5.84109 38.2396 5.70475 38.2955 5.57148 38.3598C5.50408 38.3889 5.43821 38.4242 5.36927 38.4495L5.16247 38.5253C4.05647 38.9335 2.89532 39.125 1.73876 39.2391C1.68208 39.2445 1.63229 39.2039 1.62693 39.1472C1.62157 39.0913 1.66217 39.0415 1.71731 39.0354C2.86161 38.9052 4.00515 38.6969 5.07056 38.2855L5.27047 38.2097C5.33787 38.1852 5.39991 38.1507 5.46502 38.1224C5.59216 38.0596 5.7239 38.0037 5.84798 37.9363L6.2141 37.7218C6.33205 37.6445 6.44234 37.5579 6.55723 37.476C7.00071 37.1305 7.36836 36.6962 7.61958 36.1953C7.8731 35.6959 8.01174 35.1422 8.08527 34.5784C8.1588 34.0139 8.17182 33.438 8.17029 32.8612C8.16492 31.707 8.10824 30.5374 8.23769 29.367C8.25683 29.2207 8.27139 29.0745 8.29513 28.9297L8.37173 28.4939L8.47436 28.0627C8.50883 27.9194 8.55861 27.78 8.59997 27.6383C8.63904 27.4951 8.69954 27.3588 8.75086 27.2209L8.83128 27.0133L8.92549 26.8104C9.05723 26.5415 9.21578 26.2842 9.40497 26.049C9.47313 25.9632 9.54666 25.8828 9.62326 25.8047C9.62019 25.8016 9.61713 25.8009 9.61407 25.7986L9.60487 25.7894C9.52522 25.7166 9.42948 25.637 9.3322 25.5703C9.28395 25.5359 9.23493 25.5022 9.18438 25.4715C9.13459 25.4378 9.08328 25.4079 9.03119 25.3781C8.82439 25.2594 8.6061 25.159 8.38245 25.0725C8.26909 25.0326 8.1565 24.9905 8.04008 24.9583C7.92519 24.92 7.80647 24.8948 7.68928 24.8641C7.57209 24.8335 7.45108 24.8159 7.33159 24.7891C7.21134 24.7653 7.08956 24.7515 6.96777 24.727L6.96241 24.7255C6.91875 24.7171 6.89118 24.6742 6.89961 24.6313C6.90726 24.5938 6.93943 24.5677 6.9762 24.5662C7.10334 24.5639 7.22972 24.5654 7.35763 24.5685C7.48401 24.58 7.61192 24.5853 7.7383 24.6075C7.99182 24.6435 8.24152 24.7079 8.48508 24.7929C8.72712 24.8825 8.96226 24.9928 9.18055 25.1353C9.39884 25.2785 9.59798 25.4409 9.76495 25.6615C9.76572 25.663 9.76572 25.6645 9.76649 25.6661C10.0851 25.3781 10.4589 25.1498 10.8633 25.0089C11.4324 24.8052 12.039 24.7538 12.628 24.7868C13.2193 24.8205 13.7999 24.9354 14.3636 25.0939C14.9273 25.2525 15.4765 25.4547 16.0127 25.686C16.548 25.9188 17.0696 26.1785 17.5798 26.4596C18.0899 26.7422 18.5877 27.0409 19.0703 27.371Z" fill="#698A50"/>
</g>
<mask id="mask2_443_1954" style="mask-type:luminance" maskUnits="userSpaceOnUse" x="0" y="10" width="45" height="36">
<path d="M0.111084 10.2479H44.2226V45.0526H0.111084V10.2479Z" fill="white"/>
</mask>
<g mask="url(#mask2_443_1954)">
<path d="M32.4662 27.0555C33.586 27.7111 35.3316 28.2763 35.3316 28.2763C35.3316 28.2763 35.7567 27.7103 36.0079 26.9681C36.0148 26.949 36.0209 26.9298 36.0271 26.9099C36.0745 26.7644 36.1136 26.612 36.1419 26.4573C36.1542 26.3868 36.1649 26.3163 36.1726 26.2451C36.2308 25.699 35.8363 24.9468 35.2879 24.6765C35.1677 24.6175 35.0398 24.5815 34.908 24.5754C34.4822 24.5577 34.0111 24.8572 33.6006 25.7174C33.5876 25.7434 33.5753 25.7695 33.5631 25.7963C33.5631 25.7963 33.475 25.7534 33.3356 25.6998C32.889 25.5282 31.9102 25.2524 31.5808 25.9747C31.4284 26.3102 31.8535 26.6962 32.4662 27.0555ZM36.5226 32.3902C36.4973 32.3817 36.4744 32.3725 36.4483 32.3634C36.4483 32.3634 36.5893 32.1941 36.6758 31.9827C36.783 31.7215 36.806 31.3952 36.3779 31.2397C36.374 31.2374 36.3702 31.2359 36.3656 31.2344C36.2607 31.1976 36.1465 31.2076 36.0278 31.2505C35.8095 31.3286 35.5759 31.5201 35.3523 31.7575C35.1248 31.998 34.9088 32.2845 34.7288 32.5433C34.4523 32.9432 34.2639 33.2771 34.2639 33.2771C34.2639 33.2771 34.7817 33.5643 35.4549 33.7305C35.4549 33.7313 35.4557 33.7313 35.4564 33.7313C35.6203 33.7719 35.795 33.8056 35.9727 33.8255C36.8665 33.9251 38.4719 33.1063 36.5226 32.3902ZM11.3242 34.8197C11.2775 34.367 11.1159 33.863 10.8861 33.4027C10.5238 32.6766 9.99075 32.0608 9.46915 31.9291C9.42933 31.9199 9.39026 31.913 9.3512 31.9084C9.03104 31.8739 8.72084 32.0332 8.46119 32.4752C8.35396 32.6582 8.25592 32.8903 8.1686 33.176C8.05448 33.5513 7.96103 34.0193 7.8944 34.5968C7.8944 34.5968 5.68698 33.4939 5.4641 35.4278C5.38827 36.0865 6.00025 36.7039 6.83971 37.2324C6.9186 37.2822 6.99979 37.3312 7.08251 37.3794C8.70246 38.3223 10.9505 38.9458 10.9505 38.9458C10.9505 38.9458 11.4162 37.3251 11.3671 35.5029C11.3618 35.277 11.348 35.0487 11.3242 34.8197ZM33.056 42.8559C33.0537 42.8918 33.0522 42.9271 33.0507 42.9638C33.0507 42.9638 32.6922 42.898 32.3383 43.0014C32.0067 43.0986 31.6773 43.3453 31.6513 43.9366C31.5984 45.159 35.0275 45.0319 35.0275 45.0319C35.0275 45.0319 35.2925 43.67 35.0811 42.443C34.8728 41.2298 33.2283 39.8197 33.056 42.8559ZM27.5459 35.2027C27.4417 35.2823 27.3314 35.3804 27.215 35.4983C26.9822 35.7342 26.7256 36.049 26.443 36.4588C26.443 36.4588 25.7215 35.6048 24.9808 35.954C24.9157 35.9847 24.8498 36.026 24.7847 36.0766C24.676 36.1616 24.5687 36.2757 24.4646 36.4274C24.1934 36.8203 24.3236 37.3312 24.6338 37.849C25.101 38.631 25.975 39.4283 26.4943 39.8641C26.7447 40.074 26.9125 40.2004 26.9125 40.2004C26.9125 40.2004 27.0251 40.0793 27.1997 39.868C27.2725 39.7799 27.3552 39.6757 27.4463 39.5585C27.8377 39.0507 28.3609 38.2909 28.7139 37.4614C29.0219 36.7384 29.031 35.6952 28.6956 35.1996C28.4711 34.8695 28.0928 34.7837 27.5459 35.2027ZM41.8443 29.9782C41.7838 30.0089 41.7225 30.0426 41.6597 30.077C41.6298 30.0939 41.6 30.1108 41.5686 30.1276C41.5686 30.1276 40.9566 29.0162 40.0612 29.0882C39.9563 29.0967 39.8468 29.1227 39.7342 29.1671C39.676 29.1901 39.6185 29.2169 39.5595 29.2514C39.2677 29.4183 39.2302 29.763 39.3367 30.185C39.3681 30.3091 39.4117 30.4393 39.4653 30.5741C39.9555 31.8104 41.2607 33.3974 41.2607 33.3974C41.2607 33.3974 42.7182 32.8689 43.6718 31.9268C44.5955 31.0138 44.5886 28.5582 41.8443 29.9782ZM39.9984 26.7675C40.1187 26.8303 40.2251 26.8846 40.3132 26.9291C40.4832 27.0149 40.5844 27.0631 40.5844 27.0631C40.5844 27.0631 41.9278 25.9364 42.4754 24.5807C43.0215 23.2258 41.5395 20.5611 39.1099 23.5536C39.1099 23.5536 38.3478 23.0244 37.5566 22.9646C37.3468 22.9493 37.1338 22.9669 36.9332 23.0374C36.7248 23.1101 36.5295 23.2373 36.3625 23.4433C35.6257 24.3509 38.6749 26.0774 39.9984 26.7675ZM28.4673 20.6017C28.4673 20.6009 28.4681 20.6002 28.4688 20.5994C28.5385 20.5129 28.6205 20.4294 28.7109 20.349C28.7139 20.3467 28.7162 20.3436 28.7193 20.3413C28.8089 20.2624 28.9085 20.1866 29.0142 20.1138C29.0188 20.1108 29.0234 20.1077 29.0287 20.1046C29.0601 20.0832 29.0916 20.0625 29.1245 20.0418C29.1283 20.0388 29.1329 20.0365 29.1375 20.0334C29.211 19.9874 29.2869 19.943 29.365 19.9009C29.3703 19.8978 29.3765 19.8948 29.3818 19.8909C29.4155 19.8733 29.4492 19.8557 29.4837 19.8381C29.4906 19.835 29.4975 19.8312 29.5052 19.8274C29.5848 19.7875 29.6668 19.7485 29.7503 19.7117C29.7548 19.7102 29.7587 19.7086 29.7633 19.7063C29.8 19.691 29.8368 19.6749 29.8736 19.6596C29.882 19.6566 29.8904 19.6535 29.8988 19.6497C29.9356 19.6351 29.9731 19.6206 30.0099 19.6068C30.0145 19.6045 30.0199 19.6029 30.0245 19.6006C30.0681 19.5846 30.1118 19.5685 30.1554 19.5532C30.3002 19.1449 30.3791 18.8707 30.3791 18.8707C30.3791 18.8707 28.4934 18.2572 26.5992 18.2955C24.9134 18.3292 22.4877 19.8603 25.2228 20.7626C25.3806 20.8146 25.5575 20.8652 25.7529 20.9127C25.9727 20.9671 26.2155 21.0176 26.4851 21.0643C26.4851 21.0643 25.5353 22.7831 27.3077 23.0918C27.8599 23.1883 28.3662 22.8145 28.8013 22.2554C28.0445 21.6832 28.0652 21.0988 28.4673 20.6017ZM33.4865 21.6104L32.4302 19.4084C32.2556 19.3624 32.0726 19.3241 31.8811 19.2973C31.4261 19.233 30.7804 19.3356 30.1554 19.5532C29.895 20.2884 29.4201 21.4596 28.8013 22.2554C28.9583 22.3733 29.1459 22.4913 29.3726 22.6077C29.3726 22.6077 27.9135 23.8324 27.9419 24.6474C27.945 24.7301 27.9626 24.809 27.9993 24.881C28.0537 24.9905 28.1502 25.0862 28.2988 25.1628C28.7538 25.3972 29.7372 24.8166 30.7927 23.9948C30.8662 23.9373 30.9405 23.8791 31.0148 23.8194C31.1657 23.6984 31.3181 23.5735 31.4698 23.4456C31.6429 23.3001 31.8152 23.1515 31.9845 23.0021C32.5344 22.5173 33.0568 22.0263 33.4865 21.6104ZM34.5595 20.5389C34.5595 20.5389 33.9001 19.9055 32.8186 19.5271L33.7116 21.3906C34.2271 20.8859 34.5595 20.5389 34.5595 20.5389ZM5.06735 38.2871C4.65221 38.2204 3.93147 38.333 2.79176 38.7336C2.79176 38.7336 2.88827 37.1535 1.24228 37.731C-0.403702 38.31 0.374485 41.9398 0.374485 41.9398C0.374485 41.9398 2.24412 41.5162 3.84952 40.6507C4.86744 40.1016 5.88842 38.8745 5.41048 38.4318C5.33466 38.3621 5.22283 38.3116 5.06735 38.2871ZM27.8661 13.4977C27.9427 13.477 28.0124 13.4433 28.0752 13.3951C28.3409 13.1906 28.4604 12.7241 28.2613 11.8624C28.2613 11.8624 28.5048 11.867 28.7875 11.8134L28.069 10.316C26.9132 10.257 25.5353 10.4462 25.5353 10.4462C25.5353 10.4462 25.5583 11.5737 26.0876 12.5349C26.3978 13.0979 27.2962 13.6532 27.8661 13.4977ZM29.6131 10.9058C29.535 10.5688 29.0364 10.4079 28.4129 10.3428L29.0816 11.7353C29.4247 11.6127 29.7219 11.3738 29.6131 10.9058ZM11.6758 20.2724C11.6758 20.2724 11.8412 20.0885 12.0052 19.8151C12.0526 19.7354 12.1009 19.6474 12.1446 19.5532C12.4241 18.9527 12.5245 18.127 11.3334 17.6919C10.7804 17.4897 10.1562 17.7302 9.54115 18.1844C9.45537 18.248 9.3895 18.4219 9.28456 18.3859C9.08925 18.3192 8.92917 18.5521 7.20659 20.7679C7.6156 20.7763 7.9595 20.879 8.19924 21.1103C8.92841 21.8111 8.72543 22.4422 8.30034 22.9179C8.29958 22.9179 8.29958 22.9179 8.29958 22.9171C8.23371 22.8934 8.1686 22.8696 8.10426 22.8459C8.09048 22.8405 8.07592 22.8352 8.06214 22.8298C8.01082 22.8107 7.96103 22.7907 7.91125 22.7724C7.89746 22.7662 7.88291 22.7609 7.86912 22.7555C7.81551 22.7348 7.76266 22.7134 7.71134 22.6927C7.70445 22.6904 7.69755 22.6873 7.69066 22.685C7.57118 22.6368 7.45782 22.5893 7.35212 22.5433C7.34216 22.5388 7.33297 22.5349 7.32378 22.5303C7.28089 22.5119 7.23953 22.4943 7.19893 22.4759C7.18898 22.4714 7.17902 22.4668 7.16906 22.4629C7.12694 22.4438 7.08558 22.4254 7.04575 22.4078C7.04115 22.4047 7.03656 22.4032 7.03196 22.4009C6.94081 22.3595 6.85886 22.3212 6.78456 22.2852C6.7792 22.2829 6.77308 22.2799 6.76771 22.2776C6.73784 22.263 6.70874 22.2492 6.68193 22.2354C6.67504 22.2324 6.66891 22.2293 6.66355 22.227C6.63597 22.2132 6.60993 22.2002 6.58619 22.1887C6.58312 22.1872 6.5793 22.1849 6.57623 22.1841C6.52262 22.1566 6.47743 22.1336 6.44373 22.116C6.44066 22.1144 6.43836 22.1137 6.43607 22.1114C6.42151 22.1045 6.41002 22.0983 6.3993 22.093C6.39777 22.0922 6.39624 22.0907 6.39394 22.0899C6.37249 22.0784 6.36024 22.0723 6.36024 22.0723C6.36024 22.0723 6.36407 22.0662 6.3679 22.0585C6.36866 22.0577 6.36943 22.0562 6.3702 22.0547C6.37249 22.0509 6.37479 22.047 6.37862 22.0409C6.38092 22.0371 6.38398 22.0317 6.38705 22.0271C6.39088 22.021 6.39471 22.0141 6.39853 22.0064C6.40466 21.9972 6.41079 21.9873 6.41768 21.9758C6.41922 21.9727 6.42151 21.9689 6.42381 21.9651C6.43224 21.9513 6.44143 21.936 6.45138 21.9199C6.45215 21.9183 6.45292 21.9176 6.45368 21.9161C6.47743 21.8762 6.50577 21.8303 6.53793 21.7782C6.53793 21.7782 6.53793 21.7782 6.5387 21.7782C6.68576 21.5407 6.9163 21.18 7.20659 20.7679C4.95399 20.7197 0.709197 23.5329 0.709197 23.5329C0.709197 23.5329 2.08711 25.4355 4.12908 26.6556C5.9451 27.7402 10.0436 27.7348 8.06903 24.9683C7.98937 24.8557 7.89899 24.7393 7.79866 24.6175C7.59032 24.3663 7.3368 24.0951 7.03273 23.8018C7.03273 23.8018 7.81321 23.4632 8.30034 22.9179C8.99504 23.1676 9.81842 23.4089 10.6724 23.5398C10.9589 23.5835 11.2714 23.595 11.59 23.5766L12.7504 20.7212C12.4463 20.5734 12.0902 20.4233 11.6758 20.2724ZM13.0177 20.8583L11.9247 23.5475C13.7584 23.3307 15.5101 22.1987 13.0177 20.8583ZM6.06153 14.3594C6.07225 14.2368 6.07914 14.1051 6.07914 13.9611C6.07914 13.958 6.07914 13.955 6.07914 13.9519C6.07914 13.9519 7.74657 14.246 7.74887 13.1607C7.75117 12.0746 3.54314 12.0057 3.54314 12.0057C3.54314 12.0057 3.28809 13.2043 3.61054 14.3081C3.91692 15.3551 5.85472 16.6334 6.06153 14.3594ZM13.3609 19.22L14.653 16.0406C13.8334 15.9763 13.226 15.9663 13.226 15.9663C13.226 15.9663 12.8798 17.5939 13.318 19.0936C13.3302 19.135 13.3448 19.1771 13.3609 19.22ZM18.9391 17.5342C18.9353 19.0086 16.672 18.6095 16.672 18.6095C16.6712 18.9274 16.6498 19.2054 16.6122 19.449C16.5747 19.6941 16.5196 19.9032 16.4506 20.0801C15.8509 21.6104 14.1942 20.6729 13.537 19.5792L14.9639 16.0674C16.6459 16.2198 18.9407 16.5997 18.9391 17.5342Z" fill="#DD8A5B"/>
</g>
</g>
<defs>
<clipPath id="clip0_443_1954">
<rect width="44.2647" height="50" fill="white" transform="translate(0 -4)"/>
</clipPath>
</defs>
</svg>
