<svg width="41" height="73" viewBox="0 0 41 73" fill="none" xmlns="http://www.w3.org/2000/svg">
<g clip-path="url(#clip0_443_1988)">
<path d="M33.8998 36.2666V49.6092C33.8998 53.1005 31.0598 55.9303 27.5574 55.9303H12.1749C8.67158 55.9303 5.83252 53.1005 5.83252 49.6092V36.2666H33.8998Z" fill="#DD8A5B"/>
<path d="M31.662 48.3786C31.602 48.3195 31.4957 48.3195 31.4357 48.3786L29.2128 50.595L26.9891 48.3786C26.9263 48.3167 26.8256 48.3167 26.7627 48.3786L24.539 50.595L22.3161 48.3786C22.2533 48.3167 22.1517 48.3167 22.0898 48.3786L19.866 50.595L17.6423 48.3786C17.5794 48.3167 17.4787 48.3167 17.4159 48.3786L15.1921 50.595L12.9693 48.3786C12.9065 48.3167 12.8049 48.3167 12.743 48.3786L10.5183 50.595L8.29543 48.3786C8.23538 48.3195 8.12914 48.3195 8.06909 48.3786L5.73261 50.7077C5.66979 50.7705 5.66979 50.8712 5.73261 50.9341C5.79451 50.9969 5.89614 50.9969 5.95896 50.9341L8.1818 48.7177L10.4056 50.9341C10.4656 50.9941 10.5719 50.9941 10.6319 50.9341L12.8557 48.7177L15.0794 50.9341C15.1413 50.9969 15.243 50.9969 15.3058 50.9341L17.5286 48.7177L19.7524 50.9341C19.8152 50.9969 19.9159 50.9969 19.9787 50.9341L22.2025 48.7177L24.4263 50.9341C24.4891 50.9969 24.5898 50.9969 24.6526 50.9341L26.8764 48.7177L29.0992 50.9341C29.1288 50.9636 29.1703 50.9812 29.2128 50.9812C29.2553 50.9812 29.296 50.9636 29.3256 50.9341L31.5493 48.7177L33.7731 50.9341C33.8359 50.9969 33.9366 50.9969 33.9994 50.9341C34.0622 50.8712 34.0622 50.7705 33.9994 50.7077L31.662 48.3786ZM31.662 44.8254C31.602 44.7654 31.4957 44.7654 31.4357 44.8254L29.2128 47.0418L26.9891 44.8254C26.9263 44.7626 26.8256 44.7626 26.7627 44.8254L24.539 47.0418L22.3161 44.8254C22.2533 44.7626 22.1517 44.7626 22.0898 44.8254L19.866 47.0418L17.6423 44.8254C17.5794 44.7626 17.4787 44.7626 17.4159 44.8254L15.1921 47.0418L12.9693 44.8254C12.9065 44.7626 12.8049 44.7626 12.743 44.8254L10.5183 47.0418L8.29543 44.8254C8.23538 44.7654 8.12914 44.7654 8.06909 44.8254L5.73261 47.1545C5.66979 47.2173 5.66979 47.318 5.73261 47.3808C5.79451 47.4437 5.89614 47.4437 5.95896 47.3808L8.1818 45.1645L10.4056 47.3808C10.4656 47.4409 10.5719 47.4409 10.6319 47.3808L12.8557 45.1645L15.0794 47.3808C15.1413 47.4437 15.243 47.4437 15.3058 47.3808L17.5286 45.1645L19.7524 47.3808C19.8152 47.4437 19.9159 47.4437 19.9787 47.3808L22.2025 45.1645L24.4263 47.3808C24.4891 47.4437 24.5898 47.4437 24.6526 47.3808L26.8764 45.1645L29.0992 47.3808C29.1288 47.4104 29.1703 47.427 29.2128 47.427C29.2553 47.427 29.296 47.4104 29.3256 47.3808L31.5493 45.1645L33.7731 47.3808C33.8359 47.4437 33.9366 47.4437 33.9994 47.3808C34.0622 47.318 34.0622 47.2173 33.9994 47.1545L31.662 44.8254ZM6.32019 58.2853H33.4118V55.9304H6.32019V58.2853ZM31.662 41.2713C31.602 41.2112 31.4957 41.2112 31.4357 41.2713L29.2128 43.4886L26.9891 41.2713C26.9263 41.2094 26.8256 41.2094 26.7627 41.2713L24.539 43.4886L22.3161 41.2713C22.2533 41.2094 22.1517 41.2094 22.0898 41.2713L19.866 43.4886L17.6423 41.2713C17.5794 41.2094 17.4787 41.2094 17.4159 41.2713L15.1921 43.4886L12.9693 41.2713C12.9065 41.2094 12.8049 41.2094 12.743 41.2713L10.5183 43.4886L8.29543 41.2713C8.23538 41.2112 8.12914 41.2112 8.06909 41.2713L5.73261 43.6013C5.66979 43.6632 5.66979 43.7648 5.73261 43.8267C5.79451 43.8895 5.89614 43.8895 5.95896 43.8267L8.1818 41.6103L10.4056 43.8267C10.4656 43.8867 10.5719 43.8867 10.6319 43.8267L12.8557 41.6103L15.0794 43.8267C15.1413 43.8895 15.243 43.8895 15.3058 43.8267L17.5286 41.6103L19.7524 43.8267C19.8152 43.8895 19.9159 43.8895 19.9787 43.8267L22.2025 41.6103L24.4263 43.8267C24.4891 43.8895 24.5898 43.8895 24.6526 43.8267L26.8764 41.6103L29.0992 43.8267C29.1288 43.8572 29.1703 43.8738 29.2128 43.8738C29.2553 43.8738 29.296 43.8572 29.3256 43.8267L31.5493 41.6103L33.7731 43.8267C33.8359 43.8895 33.9366 43.8895 33.9994 43.8267C34.0622 43.7648 34.0622 43.6632 33.9994 43.6013L31.662 41.2713ZM34.5741 37.8271C34.5741 37.9158 34.502 37.9869 34.4133 37.9869H5.15612C5.06742 37.9869 4.99536 37.9158 4.99536 37.8271C4.99536 37.7393 5.06742 37.6672 5.15612 37.6672H34.4133C34.502 37.6672 34.5741 37.7393 34.5741 37.8271Z" fill="white"/>
<mask id="mask0_443_1988" style="mask-type:luminance" maskUnits="userSpaceOnUse" x="0" y="0" width="41" height="41">
<path d="M0.134033 0.085022H40.5664V40.0887H0.134033V0.085022Z" fill="white"/>
</mask>
<g mask="url(#mask0_443_1988)">
<path d="M32.2396 23.5948C32.2285 23.5958 32.2184 23.5976 32.2073 23.5995C32.223 23.5865 32.2378 23.5727 32.2535 23.5597L32.2396 23.5948ZM40.415 26.214C40.4067 26.2131 40.3974 26.2131 40.3891 26.2122C40.2237 25.1238 39.1862 23.9321 36.3074 23.5699C36.3148 23.5108 36.289 23.4498 36.2344 23.4156C36.1596 23.3694 36.0608 23.3916 36.0136 23.4664L35.9721 23.5329C35.232 23.459 34.3802 23.4378 33.4009 23.4821C33.1247 23.496 32.8503 23.5191 32.5796 23.5505C32.5731 23.4941 32.539 23.4433 32.4826 23.4212C32.4632 23.4128 32.4429 23.4091 32.4235 23.4091C32.4244 23.4091 32.4244 23.4082 32.4253 23.4073C33.0665 22.8382 33.655 22.27 34.1631 21.7129C34.1668 21.7083 34.1714 21.7037 34.1761 21.6981C34.3765 21.4792 34.565 21.2602 34.7378 21.045C34.7415 21.0413 34.7442 21.0376 34.7479 21.0339C34.9752 20.7512 35.1794 20.4722 35.354 20.1996C35.4335 20.0758 35.5092 19.9529 35.5822 19.831C35.6044 19.794 35.6247 19.7571 35.6469 19.7201C35.6977 19.6342 35.7466 19.5483 35.7956 19.4624C35.8169 19.4236 35.8381 19.3838 35.8594 19.345C35.9065 19.2591 35.9517 19.1741 35.9952 19.0891C36.0127 19.0559 36.0303 19.0226 36.0469 18.9884C36.0986 18.8868 36.1476 18.7852 36.1956 18.6845C36.2021 18.6706 36.2086 18.6567 36.215 18.6438C36.3287 18.399 36.4303 18.1588 36.5199 17.9241C36.5208 17.9223 36.5208 17.9213 36.5218 17.9204C36.5652 17.8049 36.6058 17.6904 36.6446 17.5777C36.6465 17.5712 36.6493 17.5656 36.6511 17.5592C36.7287 17.3328 36.7952 17.1102 36.8516 16.8931C36.9126 16.6593 36.9615 16.4321 37.0003 16.2085C37.0031 16.1974 37.005 16.1845 37.0068 16.1724C37.0244 16.0727 37.0391 15.9738 37.053 15.8759C37.0548 15.8657 37.0558 15.8565 37.0567 15.8472C37.0863 15.632 37.1057 15.4232 37.1167 15.2199C37.1177 15.2098 37.1177 15.1996 37.1177 15.1904C37.1232 15.1008 37.126 15.0121 37.1269 14.9252C37.1278 14.9095 37.1278 14.8929 37.1288 14.8772C37.1288 14.7857 37.1288 14.6942 37.1269 14.6056C37.1269 14.6019 37.1269 14.5991 37.1269 14.5963C37.1251 14.4975 37.1214 14.4014 37.1158 14.3053C37.1094 14.1972 37.1001 14.0919 37.09 13.9875C37.0567 13.6493 37.004 13.3315 36.9384 13.0331C36.9384 13.0322 36.9384 13.0313 36.9384 13.0304C36.907 12.8862 36.8728 12.7467 36.8368 12.6118C36.834 12.6044 36.8322 12.5961 36.8303 12.5887C36.7934 12.4539 36.7555 12.3227 36.7167 12.1979C36.6936 12.1287 36.6696 12.0594 36.6437 11.9919C36.6354 11.9716 36.6271 11.9513 36.6197 11.9319C36.6003 11.8838 36.58 11.8367 36.5587 11.7896C36.5495 11.7683 36.5393 11.7471 36.5292 11.7268C36.5061 11.6797 36.483 11.6335 36.458 11.5891C36.4497 11.5725 36.4405 11.5549 36.4312 11.5374C36.398 11.4801 36.3647 11.4219 36.3287 11.3665C36.3278 11.3646 36.3259 11.3618 36.3241 11.3591C36.2834 11.2962 36.2418 11.2353 36.1975 11.1761C36.1975 11.1752 36.1975 11.1752 36.1975 11.1752C36.155 11.1179 36.1106 11.0634 36.0663 11.0098C36.0598 11.0025 36.0534 10.9951 36.0469 10.9867C36.0063 10.9396 35.9638 10.8925 35.9203 10.8482C35.9148 10.8408 35.9083 10.8352 35.9019 10.8288C35.779 10.7013 35.6469 10.5849 35.5064 10.4795C35.2745 10.3049 35.0214 10.1608 34.7535 10.0499C34.7516 10.049 34.7498 10.0481 34.7479 10.0481C34.4819 9.93723 34.201 9.85962 33.9137 9.81805C33.9091 9.81712 33.9044 9.81712 33.8998 9.8162C33.8333 9.80604 33.7659 9.79865 33.6975 9.7931C33.692 9.79218 33.6873 9.79218 33.6818 9.79218C33.4647 9.77463 33.2439 9.7774 33.0221 9.80142C33.0175 9.80142 33.0138 9.80142 33.0101 9.80234C32.9418 9.80973 32.8734 9.81897 32.805 9.83098C32.7976 9.83283 32.7893 9.83375 32.781 9.8356C32.7117 9.84761 32.6424 9.86147 32.5741 9.8781C32.5704 9.87902 32.5685 9.87995 32.5648 9.87995C32.3671 9.92891 32.1694 9.99266 31.9745 10.0767C31.9237 10.098 31.8738 10.1238 31.823 10.1479C31.822 10.1479 31.822 10.1479 31.822 10.1479C31.4165 10.3373 31.0183 10.583 30.6265 10.8787C30.6247 10.8796 30.6228 10.8814 30.6201 10.8833C30.4981 10.9757 30.3762 11.0736 30.2551 11.1761C30.2459 11.1835 30.2376 11.1909 30.2293 11.1974C30.1692 11.2491 30.1092 11.3009 30.0491 11.3544C30.038 11.3646 30.0269 11.3738 30.0159 11.384C29.9124 11.4773 29.8108 11.5734 29.7091 11.6723C29.6851 11.6954 29.6602 11.7203 29.6362 11.7434C29.5844 11.7951 29.5327 11.8469 29.4809 11.8995C29.4541 11.9272 29.4274 11.9559 29.3996 11.9845C29.3183 12.0704 29.237 12.1573 29.1567 12.246C29.1234 12.2829 29.0892 12.3208 29.056 12.3578C29.0107 12.4095 28.9663 12.4603 28.9211 12.5121C28.8582 12.585 28.7954 12.659 28.7326 12.7338C27.8485 13.7999 27.016 15.0804 26.2437 16.4672C26.1753 16.59 26.107 16.7129 26.0404 16.8367C26.0404 16.8376 26.0395 16.8386 26.0395 16.8386C25.7429 17.3855 25.4547 17.9481 25.1775 18.5182C25.1757 18.5228 25.1729 18.5274 25.1711 18.532C25.0343 18.8138 24.8995 19.0984 24.7673 19.3829C24.7646 19.3894 24.7618 19.3949 24.759 19.4005C24.626 19.6878 24.4957 19.976 24.3682 20.2652C24.3682 20.2661 24.3673 20.2661 24.3673 20.2661C24.1567 20.7428 23.9525 21.2196 23.7566 21.6944C23.7548 21.6981 23.7529 21.7018 23.752 21.7055C23.6125 22.0437 23.4758 22.3799 23.3437 22.7135C23.6947 21.6261 24.0403 20.5396 24.3581 19.515L24.5456 19.3617C24.614 19.3053 24.6232 19.2046 24.5678 19.1362C24.5465 19.1113 24.5188 19.0965 24.4902 19.0882C24.7211 18.3371 24.9346 17.6257 25.1212 16.9827C25.2524 16.5281 25.391 16.069 25.5314 15.6052L25.6958 15.4934C25.7688 15.4444 25.7882 15.3447 25.7383 15.2717C25.7171 15.2403 25.6857 15.2218 25.6515 15.2107C26.0515 13.8997 26.4719 12.5481 26.8507 11.1651L27.0031 11.0653C27.077 11.0163 27.0973 10.9175 27.0484 10.8435C27.0262 10.8103 26.992 10.789 26.956 10.7789C27.2978 9.49562 27.599 8.18464 27.8115 6.85426L27.9261 6.78774C28.0018 6.7434 28.0268 6.64454 27.9824 6.56879C27.9565 6.52537 27.9141 6.50042 27.8669 6.49395C28.0268 5.40656 28.1238 4.3053 28.1321 3.19388L28.2734 3.13383C28.3557 3.0978 28.3926 3.00449 28.3575 2.92318C28.3224 2.84281 28.2282 2.80493 28.1469 2.84004L28.133 2.84558C28.1321 2.69499 28.1284 2.5444 28.1238 2.39288C28.0933 1.40619 27.4678 0.620894 26.6326 0.299386C26.6576 0.231019 26.6363 0.15249 26.5726 0.110916C26.4987 0.0628744 26.3998 0.0831994 26.3509 0.158033C26.3416 0.172815 26.3315 0.188521 26.3222 0.204227C25.9453 0.116459 25.5397 0.117383 25.1323 0.233791C24.6768 0.364057 24.1077 0.667087 23.5026 1.09761C23.4665 1.04772 23.4037 1.02093 23.34 1.03386C23.2531 1.05234 23.1977 1.13641 23.2162 1.22326L23.2309 1.29624C22.308 1.99839 21.3259 2.97492 20.5369 4.0808C20.4963 4.05308 20.4455 4.042 20.3956 4.05955C20.3115 4.08819 20.2681 4.17965 20.2967 4.26188L20.3346 4.37367C20.2043 4.56953 20.0796 4.76816 19.9641 4.96956C19.4107 5.92947 18.8333 7.10094 18.3363 8.50061C18.2965 8.48675 18.2513 8.48675 18.2097 8.508C18.1321 8.54865 18.1007 8.64473 18.1413 8.72326L18.2115 8.86184C17.7995 10.0924 17.4549 11.493 17.2424 13.0756C17.2064 13.0719 17.1676 13.0775 17.1343 13.0987C17.0604 13.1468 17.0391 13.2456 17.0881 13.3195L17.1916 13.4784C17.09 14.3432 17.029 15.2597 17.017 16.2306C17.016 16.2297 17.016 16.2279 17.016 16.2279C16.9514 16.0644 16.8876 15.9008 16.8211 15.7373C16.7481 15.5562 16.6733 15.3761 16.5975 15.1959C16.5476 15.0767 16.4959 14.9603 16.4432 14.8458C16.4266 14.8097 16.41 14.7746 16.3934 14.7386C16.3573 14.6601 16.3213 14.5825 16.2843 14.5076C16.2659 14.467 16.2455 14.4282 16.2261 14.3884C16.191 14.3182 16.155 14.248 16.1199 14.1787C16.0996 14.1399 16.0802 14.102 16.0598 14.0642C16.0229 13.9949 15.9859 13.9265 15.949 13.8591C15.9296 13.824 15.9102 13.7898 15.8908 13.7547C15.851 13.6835 15.8104 13.6142 15.7697 13.545C15.7531 13.5163 15.7365 13.4877 15.7189 13.46C15.6718 13.3805 15.6238 13.3029 15.5757 13.2262C15.5646 13.2105 15.5545 13.193 15.5443 13.1772C14.9142 12.1915 14.2195 11.4311 13.4989 10.8537C13.4924 10.8482 13.4859 10.8435 13.4795 10.838C13.291 10.6874 13.0997 10.5498 12.9085 10.4232C12.8965 10.4167 12.8863 10.4093 12.8752 10.4019C12.7801 10.34 12.684 10.2809 12.5879 10.2246C12.49 10.1663 12.3911 10.1118 12.2923 10.0592C11.9772 9.89381 11.6622 9.75707 11.349 9.64713C11.3472 9.64621 11.3453 9.64621 11.3435 9.64528C11.033 9.53627 10.7254 9.45312 10.4214 9.39214C10.4159 9.39122 10.4113 9.38937 10.4057 9.38937C10.0944 9.32655 9.78766 9.28867 9.49018 9.27019C9.49018 9.27019 9.49018 9.27019 9.48925 9.27019C8.30115 9.19905 7.2544 9.45219 6.55688 9.81066C6.40167 9.89011 6.26401 9.97511 6.14668 10.062C6.10418 10.0924 6.06353 10.1266 6.02381 10.1627C6.00995 10.1756 5.99701 10.1904 5.98316 10.2033C5.95821 10.2273 5.93419 10.2504 5.91109 10.2763C5.89446 10.2938 5.87876 10.3151 5.86213 10.3345C5.84365 10.3567 5.82425 10.3788 5.80485 10.4029C5.78822 10.425 5.77251 10.4481 5.75588 10.4712C5.73925 10.4943 5.72262 10.5174 5.70692 10.5424C5.69029 10.5673 5.67458 10.5941 5.65888 10.62C5.64409 10.6449 5.62931 10.6689 5.61638 10.6948C5.59975 10.7225 5.58497 10.7521 5.56926 10.7816C5.55725 10.8066 5.54432 10.8315 5.53231 10.8574C5.51752 10.8888 5.50366 10.9221 5.48888 10.9544C5.4778 10.9794 5.46763 11.0043 5.45747 11.0302C5.44269 11.0662 5.42976 11.1022 5.4159 11.1383C5.40758 11.1632 5.39834 11.1882 5.39095 11.214C5.37709 11.2528 5.36416 11.2925 5.35215 11.3332C5.34568 11.3563 5.33829 11.3803 5.33182 11.4043C5.31981 11.4487 5.3078 11.4921 5.29672 11.5374C5.29117 11.5586 5.28748 11.5808 5.28194 11.602C5.27085 11.651 5.26069 11.7009 5.25052 11.7517C5.24683 11.7683 5.24498 11.7859 5.24129 11.8016C5.23112 11.8589 5.22096 11.9162 5.21357 11.9744C5.21172 11.9818 5.21172 11.9891 5.20987 11.9956C5.14705 12.4465 5.13781 12.9444 5.1914 13.4738L5.19232 13.4747C5.20433 13.5985 5.22096 13.7251 5.24036 13.8526C5.24498 13.8812 5.25052 13.9108 5.25514 13.9404C5.27547 14.0669 5.29949 14.1954 5.32721 14.3247C5.32813 14.3247 5.32813 14.3256 5.32813 14.3265C5.35677 14.4587 5.39095 14.5917 5.42698 14.7266C5.43345 14.7534 5.44177 14.7811 5.44916 14.8079C5.52584 15.0786 5.6173 15.352 5.72539 15.6274C5.73556 15.6514 5.7448 15.6754 5.75496 15.7003C5.86767 15.9775 5.99701 16.2574 6.14483 16.5365C6.15684 16.5586 6.16793 16.5808 6.18086 16.6039C6.36656 16.9467 6.57721 17.2885 6.81834 17.6238C6.81926 17.6257 6.82111 17.6266 6.82111 17.6285C6.89502 17.731 6.97262 17.8336 7.05115 17.9352C7.053 17.9361 7.053 17.937 7.05392 17.938C7.05485 17.9389 7.05485 17.9389 7.05577 17.9407C7.10381 18.0026 7.15555 18.0673 7.21006 18.1338C7.22576 18.1542 7.24332 18.1745 7.25995 18.1948C7.3006 18.2456 7.34217 18.2955 7.38559 18.3482C7.40407 18.3703 7.42255 18.3925 7.44103 18.4156C7.49092 18.4757 7.54265 18.5366 7.59624 18.5995C7.60825 18.6133 7.61933 18.6263 7.63134 18.641C7.69971 18.7223 7.77177 18.8055 7.84568 18.8905C7.84753 18.8933 7.8503 18.896 7.85307 18.8988C7.92329 18.9801 7.9972 19.0642 8.07111 19.1492C8.08497 19.1649 8.09882 19.1806 8.11268 19.1963C8.18197 19.2739 8.25219 19.3543 8.32425 19.4346C8.33534 19.4467 8.3455 19.4577 8.35566 19.4697C8.5275 19.6619 8.70766 19.8624 8.89613 20.0684C8.89613 20.0693 8.89613 20.0693 8.89705 20.0693C8.98297 20.1645 9.07074 20.2606 9.16035 20.3567C9.16128 20.3576 9.16128 20.3585 9.1622 20.3585C9.30355 20.5128 9.4486 20.6699 9.59735 20.8297C9.59919 20.8325 9.60104 20.8343 9.60289 20.8362C9.74886 20.9932 9.89853 21.153 10.051 21.3156C10.0537 21.3175 10.0556 21.3203 10.0584 21.323C9.57055 21.0385 9.07351 20.778 8.56723 20.547L8.51457 20.4019C8.485 20.3179 8.39262 20.2754 8.31039 20.3049C8.26605 20.3206 8.23463 20.3539 8.21708 20.3936C7.45119 20.0684 6.66682 19.8116 5.86952 19.6481C5.24683 19.5196 4.5761 19.4984 3.91922 19.5797L3.89705 19.5316C3.85917 19.4522 3.76401 19.4171 3.68364 19.4559C3.61712 19.4864 3.58478 19.5584 3.59772 19.6277C2.44934 19.8328 1.38319 20.3622 0.751263 21.2094L0.732785 21.2002C0.654256 21.1595 0.557249 21.1891 0.516599 21.2676C0.477796 21.3415 0.503665 21.4311 0.572955 21.4746C0.403886 21.761 0.279163 22.0778 0.213569 22.4261C0.0611295 23.2308 0.112867 24.2379 0.493502 25.2033C0.42144 25.2329 0.378942 25.3086 0.397419 25.3862C0.415897 25.4592 0.480568 25.5073 0.553554 25.5073C0.565564 25.5073 0.578498 25.5063 0.590509 25.5036L0.620073 25.4962C1.07924 26.4755 1.89502 27.3836 3.20322 27.9574C3.51272 28.0932 3.82776 28.2244 4.14372 28.35C4.13079 28.3842 4.12617 28.4221 4.13818 28.46C4.16128 28.5265 4.2241 28.568 4.29062 28.568C4.30725 28.568 4.3248 28.5653 4.34236 28.5597L4.52344 28.4997C6.38966 29.2185 8.34273 29.7802 10.2154 30.2172C10.209 30.2458 10.2071 30.2754 10.2173 30.3049C10.2404 30.3714 10.3023 30.413 10.3688 30.413C10.3863 30.413 10.4039 30.4102 10.4205 30.4038L10.6653 30.3206C11.8682 30.5913 13.0314 30.8112 14.1095 30.9886C13.7243 31.0098 13.3279 31.044 12.9224 31.093C12.8974 31.0958 12.8734 31.0995 12.8485 31.1022C12.6341 31.129 12.417 31.1586 12.1971 31.1946C12.1962 31.1946 12.1962 31.1946 12.1944 31.1946C12.0613 31.2168 11.9283 31.2427 11.7962 31.2713C11.7795 31.2741 11.7638 31.2787 11.7472 31.2824C11.6289 31.3083 11.5125 31.3369 11.3952 31.3683C11.3897 31.3702 11.385 31.372 11.3804 31.3729C11.1199 31.4441 10.8631 31.5272 10.6118 31.6224C10.4769 31.6723 10.3438 31.7268 10.2117 31.784C10.1203 31.8247 10.0279 31.8654 9.93733 31.9088C9.87266 31.9393 9.80891 31.9707 9.74609 32.003C9.70359 32.0243 9.66202 32.0455 9.61952 32.0668C9.553 32.1019 9.48648 32.1379 9.42089 32.1748C9.3867 32.1933 9.35252 32.2118 9.31926 32.2312C9.2472 32.2728 9.17606 32.3134 9.10585 32.3559C9.08922 32.3661 9.07259 32.3763 9.05596 32.3864C8.39077 32.7957 7.79117 33.2798 7.28766 33.8101C7.28674 33.811 7.28582 33.8129 7.28397 33.8147C7.20451 33.8979 7.12783 33.9829 7.053 34.0697C7.04838 34.0743 7.04376 34.0799 7.03914 34.0854C6.96893 34.1686 6.89964 34.2517 6.83404 34.3349C6.8248 34.3459 6.81741 34.358 6.80817 34.369C6.7472 34.4476 6.68715 34.527 6.63079 34.6074C6.61786 34.6259 6.60677 34.6444 6.59384 34.6628C6.5421 34.7367 6.49221 34.8116 6.44417 34.8864C6.42846 34.9114 6.4146 34.9363 6.39982 34.9603C6.35732 35.0305 6.31483 35.1008 6.27602 35.1719C6.26124 35.1987 6.24831 35.2255 6.23445 35.2523C6.14576 35.4186 6.06538 35.5867 5.99794 35.7558C5.96283 35.8435 5.93142 35.9313 5.90278 36.02C5.89446 36.045 5.88615 36.0708 5.87876 36.0967C5.85474 36.1724 5.83349 36.2491 5.81501 36.3249C5.81131 36.3397 5.8067 36.3554 5.80392 36.3702C5.7836 36.4579 5.76605 36.5466 5.75219 36.6344C5.74849 36.6593 5.7448 36.6833 5.74202 36.7074C5.73186 36.7804 5.72355 36.8533 5.71893 36.9254C5.71708 36.9448 5.71523 36.9642 5.71338 36.9836C5.70876 37.0714 5.70692 37.1591 5.70877 37.246C5.70969 37.2682 5.71154 37.2894 5.71154 37.3116C5.71523 37.3827 5.72078 37.4539 5.72817 37.525C5.73094 37.5462 5.73279 37.5675 5.73556 37.5897C5.74664 37.6765 5.76143 37.7624 5.78083 37.8484C5.78545 37.865 5.79007 37.8825 5.79468 37.8992C5.81224 37.9712 5.83164 38.0424 5.85474 38.1135C5.86305 38.1357 5.86952 38.1578 5.87691 38.18C5.9074 38.2641 5.93973 38.3482 5.97761 38.4313C5.98223 38.4415 5.9887 38.4526 5.99332 38.4627C6.02842 38.5366 6.06723 38.6096 6.10788 38.6817C6.12081 38.7039 6.13282 38.7251 6.14668 38.7473C6.19565 38.8286 6.24738 38.909 6.30651 38.9884C6.31298 38.9977 6.32037 39.0069 6.32776 39.0161C6.42661 39.1492 6.53194 39.2674 6.64188 39.3727C6.6428 39.3737 6.64372 39.3746 6.64465 39.3755C6.68068 39.4097 6.71763 39.4439 6.75551 39.4753C6.75736 39.4771 6.75921 39.479 6.76198 39.4808C6.79801 39.5113 6.83404 39.5409 6.871 39.5686C6.87377 39.5714 6.87746 39.5732 6.88116 39.576C6.91627 39.6028 6.95322 39.6287 6.99018 39.6536C6.99387 39.6564 6.99849 39.6582 7.00219 39.6619C7.03914 39.685 7.0761 39.7081 7.11305 39.7294C7.11675 39.7321 7.12229 39.7349 7.12691 39.7377C7.16386 39.758 7.20082 39.7783 7.23777 39.7968C7.24332 39.8005 7.24886 39.8023 7.25348 39.8051C7.29044 39.8236 7.32831 39.8411 7.36527 39.8568C7.37174 39.8596 7.37728 39.8624 7.38282 39.8642C7.41978 39.8799 7.45766 39.8947 7.49553 39.9086C7.502 39.9104 7.50847 39.9132 7.51401 39.9151C7.55189 39.9289 7.59069 39.9409 7.6295 39.952C7.63596 39.9548 7.64151 39.9566 7.64797 39.9585C7.68678 39.9696 7.72558 39.9797 7.76438 39.989C7.77177 39.9908 7.77824 39.9917 7.78378 39.9936C7.82351 40.0028 7.86324 40.0102 7.90296 40.0176C7.90943 40.0195 7.9159 40.0204 7.92144 40.0213C7.96209 40.0287 8.00367 40.0342 8.04432 40.0398C8.04986 40.0407 8.0554 40.0407 8.06187 40.0416C8.10344 40.0472 8.14502 40.0509 8.18752 40.0546C8.19213 40.0546 8.19768 40.0555 8.20322 40.0564C8.24664 40.0592 8.28914 40.061 8.33349 40.062C8.33811 40.062 8.3418 40.0629 8.34642 40.0629C8.39169 40.0638 8.43696 40.0638 8.48223 40.0629C8.485 40.0629 8.48777 40.0629 8.49147 40.0629C8.53859 40.062 8.58663 40.0601 8.63467 40.0583C8.63559 40.0583 8.63652 40.0583 8.63744 40.0583C8.74184 40.0509 8.84809 40.0407 8.95525 40.0259C9.05873 40.0102 9.16405 39.9917 9.2703 39.9686H9.27122C9.37562 39.9465 9.47909 39.9197 9.58441 39.891C9.58996 39.8892 9.5955 39.8873 9.60104 39.8864C9.70082 39.8578 9.80152 39.8273 9.90222 39.7931C9.91054 39.7894 9.91978 39.7866 9.92809 39.7839C10.0269 39.7506 10.1258 39.7136 10.2247 39.6748C10.2348 39.6712 10.2441 39.6675 10.2542 39.6638C10.3521 39.625 10.451 39.5834 10.5489 39.54C10.5591 39.5353 10.5693 39.5307 10.5794 39.527C10.6783 39.4827 10.7771 39.4365 10.8769 39.3884C10.8843 39.3838 10.8935 39.3801 10.9019 39.3764C11.0044 39.3256 11.106 39.2739 11.2077 39.2203C11.2132 39.2175 11.2169 39.2157 11.2224 39.2129C11.4285 39.1039 11.6336 38.9875 11.8368 38.8655C11.956 38.7935 12.0742 38.7205 12.1916 38.6466C12.198 38.642 12.2045 38.6383 12.211 38.6336C12.3246 38.5616 12.4383 38.4877 12.551 38.4128C12.5537 38.411 12.5565 38.4091 12.5602 38.4073C12.6748 38.3297 12.7884 38.2521 12.9002 38.1736C12.9039 38.1717 12.9076 38.1689 12.9113 38.1662C13.0212 38.0895 13.1293 38.0128 13.2356 37.9352C13.2402 37.9324 13.2448 37.9297 13.2494 37.926C13.4665 37.768 13.6772 37.6109 13.8786 37.4566C13.8823 37.4529 13.8869 37.4502 13.8915 37.4465C14.286 37.1425 14.6454 36.8533 14.953 36.603C15.1415 36.4496 15.3263 36.2972 15.5083 36.1466C15.5129 36.142 15.5175 36.1383 15.5231 36.1346C15.7023 35.9849 15.8788 35.8371 16.0506 35.6911C16.0552 35.6865 16.0608 35.6828 16.0654 35.6782C16.2391 35.5313 16.4091 35.3853 16.5744 35.2412C16.5763 35.2403 16.5781 35.2384 16.58 35.2366C16.9699 34.8993 17.3366 34.5751 17.6757 34.2683C17.6905 34.2545 17.7062 34.2416 17.721 34.2277C17.7939 34.1621 17.8651 34.0974 17.9353 34.0328C17.951 34.018 17.9676 34.0032 17.9843 33.9884C18.0563 33.9228 18.1256 33.8581 18.1958 33.7944C18.206 33.7842 18.2171 33.7741 18.2282 33.7648C18.3917 33.6142 18.5469 33.4692 18.6938 33.3315C18.6947 33.3306 18.6956 33.3297 18.6956 33.3297C18.7659 33.2641 18.8342 33.1994 18.9007 33.1366C18.9109 33.1264 18.922 33.1163 18.9322 33.1061C18.9904 33.0516 19.0458 32.998 19.1012 32.9463C19.1114 32.937 19.1216 32.9269 19.1308 32.9176C19.1899 32.8613 19.2472 32.8068 19.3017 32.7541C19.3045 32.7523 19.3063 32.7504 19.3082 32.7486L18.3898 36.2667H18.7206L19.7516 32.3162C19.796 32.2719 19.8385 32.2303 19.8782 32.1915C19.8801 32.1896 19.8819 32.1878 19.8837 32.1859C19.9207 32.1499 19.9549 32.1157 19.9863 32.0834C19.9918 32.0788 19.9965 32.0732 20.002 32.0686C20.0325 32.0381 20.0621 32.0086 20.0888 31.9818C20.0898 31.9799 20.0916 31.979 20.0925 31.9771C20.1535 31.9162 20.2053 31.8635 20.245 31.8229C20.2487 31.8201 20.2524 31.8164 20.2542 31.8127C20.3133 31.7545 20.3448 31.7212 20.3521 31.7148C20.3651 31.7249 20.3669 31.7249 20.3549 31.7111L20.3873 31.7092C20.4057 31.7369 20.4298 31.7757 20.4602 31.8219C20.4723 31.8404 20.4861 31.8607 20.5 31.8829C20.5 31.8838 20.5018 31.8848 20.5018 31.8857C20.5157 31.9069 20.5305 31.93 20.5462 31.954C20.5526 31.9633 20.5591 31.9725 20.5656 31.9827C20.6219 32.0704 20.6903 32.1721 20.767 32.2885C20.7679 32.2894 20.7679 32.2903 20.7688 32.2913C20.7697 32.2922 20.7697 32.2922 20.7707 32.294C20.815 32.3596 20.8612 32.4289 20.9111 32.5037C20.912 32.5047 20.9129 32.5056 20.9139 32.5065C20.9638 32.5804 21.0164 32.659 21.0709 32.7403C21.0718 32.7412 21.0728 32.7421 21.0728 32.743C21.0746 32.744 21.0755 32.7458 21.0765 32.7477C21.1467 32.8502 21.2197 32.9574 21.2973 33.0701L21.7417 36.2667H22.0659L21.7019 33.6484C21.7019 33.6493 21.7019 33.6493 21.7019 33.6493C21.7306 33.69 21.7611 33.7316 21.7906 33.7731C21.8276 33.8249 21.8636 33.8757 21.9015 33.9293C21.9477 33.993 21.9948 34.0577 22.0419 34.1233C22.0632 34.1529 22.0844 34.1824 22.1066 34.212C22.1639 34.2914 22.2221 34.3709 22.2821 34.4513C22.2941 34.4679 22.3052 34.4845 22.3172 34.5002C22.3837 34.5899 22.4503 34.6804 22.5186 34.7709C22.5233 34.7783 22.5288 34.7848 22.5343 34.7922C22.6073 34.8883 22.6803 34.9862 22.7542 35.0832C22.7551 35.085 22.757 35.0869 22.7579 35.0887C23.0822 35.5146 23.424 35.9479 23.7751 36.3711C23.9497 36.5808 24.1252 36.7868 24.3026 36.9882C24.31 36.9965 24.3165 37.0049 24.3239 37.0132C24.4976 37.21 24.6713 37.4003 24.8449 37.585C24.8542 37.5943 24.8625 37.6026 24.8708 37.6118C25.0454 37.7966 25.22 37.9721 25.3928 38.1394C25.3993 38.1449 25.4057 38.1514 25.4122 38.1569C25.5868 38.3241 25.7587 38.4803 25.9286 38.6244C25.9342 38.629 25.9397 38.6336 25.9453 38.6392C26.1134 38.7805 26.2788 38.909 26.4405 39.0244C26.4488 39.03 26.4562 39.0355 26.4645 39.0411C26.5791 39.1214 26.6918 39.1972 26.8017 39.2619C27.0244 39.3912 27.2609 39.5012 27.5075 39.5926C27.5085 39.5926 27.5094 39.5926 27.5103 39.5935C27.7062 39.6656 27.9085 39.7247 28.1136 39.7709C28.1145 39.7709 28.1145 39.7719 28.1155 39.7719C28.6328 39.8873 29.1714 39.9197 29.6934 39.8596C29.6944 39.8596 29.6944 39.8596 29.6953 39.8596C29.7978 39.8476 29.9004 39.831 30.002 39.8116C30.0149 39.8097 30.0279 39.8079 30.0408 39.8051C30.1424 39.7848 30.2422 39.7617 30.342 39.734C30.3503 39.7312 30.3595 39.7294 30.3679 39.7266C30.4676 39.6979 30.5665 39.6656 30.6635 39.6305C30.6653 39.6296 30.6672 39.6287 30.669 39.6287C30.7679 39.5908 30.8649 39.5501 30.961 39.5039C30.9684 39.5002 30.9767 39.4965 30.9859 39.4928C31.1762 39.4005 31.3592 39.2905 31.5301 39.1649C31.5356 39.1612 31.5403 39.1575 31.5449 39.1547C31.7204 39.0235 31.8839 38.8748 32.0336 38.7076C32.1038 38.6281 32.1703 38.545 32.2341 38.4572C32.2747 38.4008 32.3135 38.3445 32.3505 38.2853C32.3874 38.2271 32.4226 38.168 32.4567 38.1061C32.4632 38.0932 32.4687 38.0812 32.4761 38.0682C32.5029 38.0183 32.5297 37.9675 32.5547 37.9139C32.5842 37.8502 32.6129 37.7855 32.6387 37.7181C32.6406 37.7144 32.6424 37.7116 32.6443 37.7079C32.6775 37.622 32.708 37.5342 32.7367 37.4455C32.745 37.4188 32.7533 37.392 32.7607 37.3652C32.7801 37.3005 32.7995 37.2349 32.8161 37.1675C32.8235 37.1388 32.8309 37.1102 32.8374 37.0815C32.8549 37.0076 32.8697 36.9337 32.8845 36.8598C32.8882 36.8395 32.8919 36.8201 32.8956 36.7998C32.9122 36.7018 32.9279 36.602 32.939 36.5013C32.939 36.5004 32.939 36.4995 32.939 36.4977C32.9501 36.4006 32.9575 36.3018 32.963 36.2029C32.9639 36.1835 32.9649 36.1641 32.9649 36.1457C32.9686 36.0607 32.9704 35.9738 32.9695 35.8879C32.9695 35.8713 32.9695 35.8537 32.9686 35.8362C32.9649 35.6255 32.9492 35.4149 32.9205 35.2042C32.9048 35.0998 32.8863 34.9945 32.8651 34.8901C32.8466 34.8014 32.8263 34.7146 32.8032 34.6268C32.8032 34.625 32.8023 34.6222 32.8013 34.6194C32.7792 34.5344 32.7551 34.4503 32.7274 34.3672C32.7265 34.3626 32.7247 34.358 32.7237 34.3533C32.6969 34.2711 32.6674 34.1898 32.6369 34.1085C32.635 34.103 32.6323 34.0984 32.6304 34.0937C32.599 34.0124 32.5667 33.9339 32.5306 33.8545C32.5279 33.8489 32.5251 33.8434 32.5233 33.8378C32.4872 33.7593 32.4493 33.6817 32.4087 33.605C32.4059 33.6004 32.4031 33.5948 32.4004 33.5893C32.3597 33.5126 32.3154 33.435 32.2701 33.3602C32.2673 33.3565 32.2646 33.3528 32.2627 33.3482C32.2156 33.2715 32.1657 33.1957 32.114 33.1209C32.1131 33.119 32.1112 33.1163 32.1094 33.1144C32.0558 33.0377 32.0003 32.9629 31.9412 32.889H31.9403C31.8682 32.7975 31.7925 32.7079 31.7121 32.622H31.7112C31.6354 32.5407 31.555 32.4631 31.4719 32.3873C31.4497 32.367 31.4275 32.3476 31.4044 32.3282C31.337 32.2691 31.2668 32.2109 31.1938 32.1545C31.1735 32.1379 31.1531 32.1222 31.1319 32.1056C30.937 31.9605 30.7254 31.8284 30.4981 31.7101C30.4898 31.7055 30.4824 31.7018 30.4741 31.6981C30.3623 31.6408 30.2459 31.5863 30.1258 31.5365C30.1193 31.5337 30.1129 31.5309 30.1073 31.5281C29.7202 31.3683 29.2906 31.2464 28.8167 31.1697C28.8167 31.1697 28.8167 31.1697 28.8158 31.1697C28.7631 31.1623 28.7123 31.1521 28.6587 31.1447C28.6402 31.142 28.6199 31.1401 28.6005 31.1373L30.6312 30.996C30.6506 30.9941 30.669 30.9914 30.6884 30.9886L30.852 31.093C30.8788 31.1105 30.9083 31.1179 30.9379 31.1179C30.9915 31.1179 31.0423 31.093 31.0737 31.045C31.0949 31.0117 31.1005 30.9738 31.0949 30.9387C32.6378 30.741 33.9479 30.4971 35.0547 30.2236L35.1803 30.304C35.2071 30.3216 35.2376 30.3299 35.2662 30.3299C35.3189 30.3299 35.3716 30.304 35.402 30.2569C35.427 30.2172 35.4316 30.1719 35.4205 30.1303C36.6899 29.795 37.6701 29.4199 38.4102 29.0337L38.5109 29.0845C38.534 29.0956 38.558 29.1011 38.582 29.1011C38.6411 29.1011 38.6975 29.0688 38.7252 29.0134C38.7502 28.9635 38.7446 28.908 38.7187 28.8637C39.4061 28.4636 39.8486 28.0562 40.0916 27.671C40.2856 27.367 40.4141 26.9651 40.4131 26.5309C40.4963 26.5291 40.5628 26.4644 40.5665 26.3812C40.5711 26.2925 40.5037 26.2177 40.415 26.214Z" fill="#95A86A"/>
</g>
<mask id="mask1_443_1988" style="mask-type:luminance" maskUnits="userSpaceOnUse" x="0" y="0" width="41" height="41">
<path d="M0 0.118225H40.607V40.3252H0V0.118225Z" fill="white"/>
</mask>
<g mask="url(#mask1_443_1988)">
<path d="M20.5792 31.0504L20.6392 30.9682L20.8259 30.7104L20.9543 30.5339L22.7771 28.021L22.5156 25.2568C21.7506 27.5822 21.0504 29.6609 20.6651 30.7982C20.6337 30.8887 20.606 30.9728 20.5792 31.0504ZM21.7996 29.9149C22.3087 29.3431 22.9434 28.6834 23.6899 28.0071L23.0404 28.2039L21.7996 29.9149ZM19.2765 31.6352C18.251 31.5493 16.5686 31.3793 14.5491 31.0596L17.9378 31.9336C18.458 31.7969 18.9097 31.7017 19.2765 31.6352ZM19.5795 29.6969C18.9818 28.0496 18.5051 26.4865 18.1328 25.0055L17.8593 26.4144C18.5661 27.7087 19.1462 28.8312 19.5795 29.6969ZM33.0542 35.0277C33.0644 35.1136 33.0043 35.1903 32.9203 35.2041C32.9175 35.2041 32.9166 35.206 32.9147 35.206L29.4899 35.6254C30.4434 36.4144 31.3765 37.3484 32.2338 38.4571C32.2421 38.4682 32.2514 38.4802 32.2606 38.4913C32.3142 38.5606 32.3013 38.6613 32.2301 38.7148C32.2015 38.7379 32.1673 38.7481 32.1331 38.7481C32.0962 38.7481 32.062 38.7324 32.0333 38.7074C32.0241 38.7001 32.0139 38.6954 32.0066 38.6862C31.1621 37.5886 30.242 36.6648 29.3015 35.885L29.6932 39.8595L29.695 39.8743C29.7033 39.9621 29.6387 40.0406 29.5509 40.0489C29.5454 40.0489 29.5407 40.0498 29.5352 40.0498C29.4539 40.0498 29.3837 39.9879 29.3763 39.9057L29.3735 39.8845L28.9513 35.6005C28.02 34.8678 27.0758 34.2729 26.1705 33.7915L26.9604 39.2387C26.965 39.2747 26.9557 39.308 26.9391 39.3366C26.916 39.3791 26.8763 39.4114 26.8246 39.4188C26.8172 39.4207 26.8089 39.4207 26.8015 39.4207C26.7229 39.4207 26.6546 39.3634 26.6426 39.2839L26.6232 39.1491L25.8203 33.6086C24.8715 33.1282 23.9735 32.7716 23.19 32.5073L23.8331 36.2222C23.8432 36.2804 23.8183 36.3359 23.7749 36.371C23.7545 36.3885 23.7305 36.4024 23.7019 36.407C23.6926 36.4089 23.6834 36.4098 23.6742 36.4098C23.5984 36.4098 23.53 36.3553 23.5162 36.2767L23.4681 35.995L22.8454 32.3955C22.3207 32.2302 21.8569 32.1073 21.4744 32.0186C21.3552 31.9918 21.2434 31.9669 21.1409 31.9456C21.127 31.9428 21.115 31.9401 21.1021 31.9373C20.9838 31.9124 20.8767 31.892 20.7834 31.8754C20.6725 31.8551 20.5792 31.8394 20.508 31.8283C20.4914 31.8264 20.4748 31.8237 20.46 31.8218C20.472 31.8403 20.4859 31.8606 20.4997 31.8828L19.8327 36.2666H19.5075L20.1736 31.8957C20.2041 31.8643 20.2318 31.8366 20.254 31.8126C20.2346 31.8154 20.2106 31.8181 20.1847 31.82C20.1062 31.8292 19.9999 31.8421 19.8706 31.8606C19.7699 31.8754 19.6535 31.893 19.525 31.9142C19.1435 31.9798 18.6427 32.0796 18.0478 32.2339L17.4094 34.5075L17.3419 34.7477C17.3225 34.8179 17.2579 34.8641 17.1876 34.8641C17.1729 34.8641 17.159 34.8623 17.1442 34.8586C17.1128 34.8503 17.0897 34.8309 17.0703 34.8087C17.0352 34.769 17.0176 34.7154 17.0334 34.6609L17.6875 32.3309C16.9003 32.5498 15.9737 32.8584 14.9574 33.2908L14.7597 36.759L14.7514 36.9031C14.7468 36.9881 14.6766 37.0546 14.5916 37.0546C14.5888 37.0546 14.586 37.0537 14.5823 37.0537C14.5352 37.0519 14.4955 37.0278 14.4678 36.9937C14.4437 36.9641 14.429 36.9262 14.4317 36.8856L14.6285 33.434C13.7324 33.8312 12.7715 34.3255 11.7784 34.938L11.8366 38.8654L11.8384 38.9569C11.8393 39.0456 11.7682 39.1176 11.6795 39.1186C11.6795 39.1186 11.6786 39.1186 11.6777 39.1186C11.6185 39.1186 11.5686 39.0862 11.5409 39.0382C11.528 39.0151 11.5178 38.9902 11.5178 38.9615L11.4615 35.1367C10.6281 35.6688 9.77541 36.285 8.92083 36.9983L8.95501 40.0258V40.0443C8.95593 40.133 8.88572 40.205 8.7961 40.206C8.7961 40.206 8.79518 40.206 8.79426 40.206C8.71111 40.206 8.64274 40.1404 8.6372 40.0581C8.63627 40.0545 8.63443 40.0517 8.63443 40.048L8.60301 37.2671C7.9138 37.8621 7.2246 38.5208 6.54462 39.2516C6.54093 39.2553 6.53539 39.2571 6.53169 39.2608C6.5012 39.2867 6.46517 39.3024 6.42729 39.3024C6.38849 39.3024 6.34969 39.2886 6.31828 39.2599C6.2536 39.1999 6.24991 39.0992 6.30996 39.0345C6.3155 39.028 6.32105 39.0225 6.32751 39.016C7.03428 38.2566 7.75213 37.5729 8.47182 36.9586L5.99769 35.7547L5.9903 35.7511C5.91085 35.7122 5.87759 35.6162 5.91639 35.5367C5.95427 35.46 6.04758 35.4277 6.12519 35.4628C6.12703 35.4637 6.12888 35.4628 6.13073 35.4637L8.73882 36.7322C9.59525 36.0199 10.4508 35.4028 11.2869 34.8697L7.86114 33.3499C7.83897 33.3407 7.82142 33.3259 7.80664 33.3102C7.76599 33.264 7.75305 33.1984 7.77984 33.1383C7.81495 33.058 7.91011 33.0219 7.99141 33.058L8.06532 33.0903L11.613 34.6655C12.5729 34.0742 13.5023 33.591 14.3754 33.1984L10.3279 31.8652C10.2817 31.8505 10.2494 31.8163 10.2318 31.7747C10.217 31.7405 10.2133 31.7017 10.2263 31.6629C10.254 31.5798 10.3445 31.5336 10.4286 31.5622L10.6115 31.6223L14.8142 33.0062C15.7325 32.6145 16.5797 32.3216 17.3207 32.1045L13.6871 31.1677C13.6196 31.1502 13.5744 31.092 13.5688 31.0264C13.567 31.0088 13.567 30.9903 13.5716 30.9728C13.579 30.946 13.5938 30.9238 13.6113 30.9044C12.6764 30.7427 11.6851 30.5496 10.6651 30.3205L14.781 28.9135L19.6442 31.4578L19.8133 31.5465C19.865 31.5391 19.9131 31.5326 19.9574 31.5262C20.0128 31.5197 20.0618 31.5132 20.1062 31.5086C20.0988 31.4929 20.0923 31.48 20.0849 31.4634C20.0637 31.419 20.0396 31.3682 20.0138 31.3118C20.0091 31.3026 20.0036 31.2934 19.9999 31.2832C19.9528 31.1853 19.8983 31.0716 19.8364 30.9423C19.8244 30.9173 19.8114 30.8906 19.7985 30.8656C19.3708 29.9805 18.6113 28.4598 17.5812 26.5733L16.0744 26.3017L14.622 26.0402C16.7691 28.2122 18.7564 30.1746 19.7311 31.1215C19.7468 31.1372 19.7625 31.152 19.7782 31.1668L19.7274 31.14L14.9242 28.6271L13.6538 25.0572C13.8756 25.2826 14.0964 25.5071 14.3162 25.7307C14.3523 25.6956 14.4022 25.6753 14.4548 25.6845L15.7021 25.909L17.3835 26.213C16.9853 25.4914 16.5502 24.7219 16.0808 23.9172L13.1577 23.5264L12.0158 23.3748C12.4306 23.8045 12.8528 24.2387 13.275 24.6701C13.2325 24.7126 13.2141 24.7773 13.2362 24.8373L14.5066 28.4081L10.6337 26.3811C10.6429 26.3488 10.6448 26.3155 10.6337 26.2832L8.56698 20.5469C9.07327 20.7778 9.57031 21.0384 10.0581 21.3229C10.5866 21.8846 11.1483 22.475 11.7276 23.0764C11.7608 23.0432 11.8079 23.0247 11.8578 23.0312L12.6865 23.142L15.8757 23.567C15.3307 22.6404 14.7412 21.6722 14.113 20.6818L9.16011 20.3566L8.99289 20.3464C8.90512 20.3399 8.83768 20.2642 8.84414 20.1764C8.84692 20.133 8.86632 20.096 8.8968 20.0692C8.92729 20.0406 8.96887 20.0249 9.01414 20.0277L13.8996 20.3482C13.3028 19.4188 12.6736 18.4728 12.014 17.5277L6.6056 17.3152L6.49474 17.3105C6.40512 17.3069 6.33675 17.2329 6.34045 17.1443C6.3423 17.0907 6.37463 17.0463 6.41713 17.0186C6.44392 17.0001 6.47533 16.9881 6.50675 16.9909L11.7821 17.1997C10.9718 16.0513 10.1172 14.9066 9.2257 13.7971L5.19115 13.4737L5.16436 13.4719C5.07567 13.4645 5.01007 13.3878 5.01746 13.3C5.02393 13.2196 5.0886 13.1614 5.16713 13.1559C5.17452 13.1559 5.18191 13.1522 5.19023 13.1531L8.94762 13.4543C8.01266 12.3087 7.03797 11.2037 6.03095 10.1736C6.02818 10.1699 6.02726 10.1653 6.02356 10.1625C5.97182 10.0988 5.97367 10.0055 6.03372 9.94728C6.09747 9.88631 6.1991 9.88723 6.261 9.95005C6.26746 9.95744 6.27301 9.96299 6.27947 9.97038C7.28095 10.9959 8.25102 12.0953 9.18136 13.2344L9.48993 9.27008C9.4964 9.18139 9.57585 9.11487 9.66177 9.12226C9.75046 9.12965 9.81698 9.20634 9.80959 9.2941L9.80867 9.29688L9.47515 13.5966C10.3427 14.6766 11.176 15.7889 11.9668 16.9059L12.2717 10.1274C12.2726 10.1025 12.28 10.0803 12.292 10.0591C12.3207 10.0055 12.377 9.96945 12.4389 9.975C12.5267 9.97869 12.596 10.0535 12.5914 10.1422L12.5877 10.2244L12.268 17.3346C12.9083 18.2492 13.5189 19.1648 14.0982 20.0655L14.8678 12.4186C14.8715 12.3734 14.8955 12.3355 14.9288 12.3096C14.9602 12.2856 14.9999 12.2727 15.0424 12.2764C15.1311 12.2847 15.1958 12.3632 15.1865 12.451L15.169 12.6265L14.3772 20.5016C14.9897 21.4671 15.5653 22.4122 16.1002 23.3176L16.9123 18.373C16.9253 18.2982 16.989 18.2464 17.062 18.2427C17.0583 18.1799 17.0555 18.1162 17.0528 18.0543L18.1771 19.6452L20.254 22.584C20.1597 24.0779 20.1145 25.4582 20.0969 26.6685L19.5444 25.727L17.8279 22.8011C17.7863 22.7309 17.7013 22.7069 17.6283 22.7365C17.3835 21.4532 17.2181 20.2365 17.1211 19.0844L16.3543 23.7499C16.8079 24.5288 17.2301 25.2743 17.6172 25.9756L17.8833 24.6064C17.8962 24.5426 17.9452 24.4946 18.0043 24.4816C17.9073 24.0751 17.8186 23.6733 17.7373 23.2788L19.6821 26.5945L20.0904 27.2911C20.0831 28.2908 20.0951 29.1528 20.1126 29.842C20.1163 29.9833 20.1191 30.12 20.1237 30.2466C20.1302 30.4582 20.1366 30.6467 20.144 30.813C20.144 30.8231 20.145 30.8342 20.145 30.8453C20.1902 30.9386 20.2309 31.0236 20.2678 31.1003C20.2743 31.116 20.2817 31.1289 20.2882 31.1437C20.3214 31.2139 20.351 31.2767 20.3768 31.3303L20.4822 31.1853C20.4729 31.0023 20.4637 30.7695 20.4535 30.4868C20.4286 29.7348 20.4064 28.6428 20.4175 27.3013L22.4011 25.2244L22.5018 25.1182L22.5914 25.024L22.6505 24.9621C22.7004 24.9103 22.7059 24.8355 22.6727 24.7764C22.6653 24.7625 22.657 24.7486 22.645 24.7366C22.6366 24.7292 22.6265 24.7256 22.6172 24.72C22.608 24.7135 22.5988 24.7062 22.5886 24.7025C22.5313 24.6812 22.463 24.6951 22.4186 24.7422L20.423 26.8311C20.4406 25.5903 20.4877 24.162 20.5875 22.6043L24.3578 19.5149C24.04 20.5395 23.6945 21.626 23.3434 22.7134C23.1254 23.3887 22.9064 24.0641 22.6902 24.7237C22.7475 24.7431 22.7937 24.7967 22.7992 24.8614L23.0616 27.6284L24.9297 25.0535L24.1869 20.6781L24.1453 20.4369C24.1305 20.3492 24.1887 20.2669 24.2765 20.2522C24.3089 20.2466 24.3384 20.2549 24.3671 20.266C24.4142 20.2873 24.4521 20.3279 24.4613 20.3834L25.1939 24.6904L26.8855 22.3586L26.0402 16.8366L26.0079 16.6287C25.9949 16.5419 26.055 16.4606 26.1427 16.4477C26.1797 16.4421 26.213 16.4513 26.2434 16.4671C26.285 16.4901 26.3174 16.5299 26.3247 16.5807L27.1535 21.989L29.4354 18.8451L28.4968 13.0256L28.4737 12.8815C28.4598 12.7947 28.5199 12.7124 28.6067 12.6986C28.6547 12.6903 28.6991 12.706 28.7324 12.7337C28.7619 12.7577 28.7841 12.791 28.7906 12.8307L29.7006 18.4783L32.4648 14.6692L31.8227 10.1478L31.8153 10.0988C31.8033 10.011 31.8643 9.93065 31.952 9.91864C32.026 9.90756 32.0934 9.9519 32.1202 10.0184C32.1248 10.0295 32.1313 10.0406 32.1331 10.0535L32.7355 14.296L35.5016 10.485C35.5025 10.4831 35.5043 10.4813 35.5062 10.4794C35.5588 10.4138 35.6549 10.3981 35.7251 10.448C35.7972 10.4998 35.8129 10.6005 35.7612 10.6716L35.7519 10.6827L32.9794 14.5057L37.0842 13.9874C37.086 13.9874 37.0879 13.9874 37.0897 13.9874C37.1766 13.9809 37.2523 14.04 37.2634 14.126C37.2745 14.2128 37.2126 14.2932 37.1248 14.3043L37.1156 14.3052L32.7216 14.8595L29.9944 18.6206L36.771 16.8902C36.7987 16.8828 36.8255 16.8856 36.8513 16.893C36.9049 16.9077 36.9502 16.9475 36.9659 17.0047C36.9872 17.0907 36.9363 17.1775 36.8504 17.1997L36.759 17.2228L29.6996 19.0253L27.4362 22.1461L35.1034 20.3603C35.1486 20.3501 35.1939 20.3603 35.229 20.3852C35.2623 20.4064 35.2863 20.4388 35.2955 20.4794C35.3159 20.5654 35.2623 20.6513 35.1764 20.6716L34.9953 20.7132L27.1498 22.5415L25.4563 24.8734L29.1897 24.2682C29.2645 24.2562 29.3329 24.3006 29.3606 24.368C30.2604 24.0151 31.212 23.7481 32.207 23.5994C32.2181 23.5975 32.2283 23.5957 32.2394 23.5947L30.763 27.269C29.574 27.5702 28.4524 27.9148 27.4158 28.2732L27.9859 26.8699L28.8682 24.6969C28.8746 24.6794 28.8774 24.6609 28.8783 24.6433L28.6123 24.6858L28.5208 24.7006L25.1902 25.2401L23.3517 27.7753L23.9264 27.6016C23.9892 27.5822 24.0529 27.6034 24.0936 27.6496C24.4253 27.3623 24.7763 27.075 25.1459 26.7923L23.8876 29.5888L23.8441 29.6858C23.7074 29.7468 23.5744 29.8069 23.4441 29.8669C22.5701 30.2669 21.8523 30.6309 21.321 30.9137C21.2564 30.9488 21.1945 30.9811 21.1353 31.0134C21.0956 31.0347 21.0577 31.0559 21.0199 31.0763C20.9838 31.0966 20.9487 31.116 20.9136 31.1345L20.8055 31.2851L20.6309 31.5253C20.6429 31.5262 20.6568 31.529 20.6688 31.5317C20.7011 31.5363 20.7344 31.5419 20.7695 31.5484C20.7787 31.5502 20.787 31.5511 20.7954 31.553C20.8018 31.5539 20.8083 31.5548 20.8148 31.5567C20.8979 31.5715 20.9912 31.589 21.0947 31.6103C21.1002 31.6112 21.1076 31.6121 21.1141 31.614C21.1649 31.6241 21.2176 31.6352 21.273 31.6472C21.3229 31.6583 21.3746 31.6694 21.4282 31.6814C21.8467 31.7756 22.3733 31.9105 22.9766 32.1036L27.4703 31.2158L28.1235 31.0873C27.73 31.0541 27.3013 31.0365 26.8541 31.0319C26.855 30.9709 26.8209 30.9127 26.7608 30.885L24.3717 29.7995C25.1893 29.4438 26.115 29.0714 27.1285 28.7102L30.6882 30.9885C30.6688 30.9913 30.6503 30.994 30.6309 30.9959L28.8164 31.1224C28.8183 31.1391 28.8183 31.1548 28.8155 31.1696C28.8053 31.2333 28.7573 31.2878 28.6899 31.3008L23.5864 32.3078C24.3144 32.5655 25.1246 32.8991 25.9755 33.3305L31.7118 32.6219L31.8218 32.608C31.9086 32.596 31.989 32.6598 32.0001 32.7475C32.0066 32.8039 31.9816 32.8547 31.94 32.8889C31.9179 32.9074 31.8911 32.9212 31.8606 32.9249L26.4716 33.591C27.3447 34.0659 28.2501 34.6433 29.1444 35.3464L32.8648 34.89L32.875 34.8882C32.9637 34.8752 33.0441 34.9399 33.0542 35.0277ZM20.6254 36.2666H20.946L21.0725 32.7429C20.9598 32.5766 20.8582 32.4251 20.7686 32.2911L20.6254 36.2666ZM24.3781 29.2793L24.2821 29.4927C25.0941 29.1407 26.0106 28.773 27.0121 28.4155L27.5027 27.2071L28.5069 24.7339C27.4278 25.2355 26.4347 25.8481 25.5376 26.5003C25.5709 26.5456 25.581 26.6047 25.557 26.6592L24.3781 29.2793ZM21.1224 31.3839C21.103 31.395 21.0855 31.4042 21.067 31.4144C20.9912 31.4569 20.921 31.4957 20.8591 31.5317C20.9284 31.5179 21.0014 31.5049 21.0781 31.4911C21.091 31.4892 21.1049 31.4865 21.1187 31.4837C21.2074 31.4689 21.298 31.4532 21.394 31.4384C22.6597 31.2389 24.5768 31.0522 26.3118 31.0328L23.979 29.9722C22.8658 30.4693 21.9779 30.9229 21.3682 31.2509C21.2813 31.298 21.1982 31.3433 21.1224 31.3839ZM36.285 23.6363L34.4696 26.5225C36.3617 26.2444 38.3536 26.1123 40.3889 26.2121C40.2235 25.1237 39.186 23.9319 36.3072 23.5698C36.3044 23.5929 36.2979 23.6151 36.285 23.6363ZM31.1474 27.1729C32.0795 26.9465 33.0505 26.747 34.0511 26.5872L35.9718 23.5328C35.2318 23.4589 34.38 23.4377 33.4007 23.482C33.1244 23.4959 32.8501 23.519 32.5794 23.5504C32.5831 23.5763 32.5812 23.6021 32.571 23.6289L31.1474 27.1729ZM31.3358 27.4528L35.3537 30.036C35.3889 30.0581 35.4101 30.0923 35.4203 30.1302C36.6897 29.7948 37.6699 29.4198 38.409 29.0336L34.1352 26.8948C33.1706 27.0472 32.2357 27.2376 31.3358 27.4528ZM40.399 26.5326C38.4358 26.4329 36.5141 26.552 34.6839 26.8117L38.6538 28.7989C38.6834 28.8137 38.7037 28.8368 38.7185 28.8636C39.4059 28.4635 39.8484 28.0561 40.0914 27.6709C40.2854 27.3669 40.4138 26.965 40.4129 26.5308C40.4083 26.5308 40.4036 26.5326 40.399 26.5326ZM27.5119 28.5753L31.0245 30.824C31.0661 30.8499 31.0892 30.8933 31.0947 30.9386C32.6376 30.7409 33.9476 30.497 35.0544 30.2235L30.9081 27.5591C29.7006 27.863 28.5624 28.2113 27.5119 28.5753ZM17.1692 17.6644L17.8768 18.6668L20.2872 22.0768C20.3288 21.4772 20.3787 20.8619 20.4369 20.2328C20.4831 19.7348 20.5367 19.2193 20.5967 18.6908L17.1913 13.4783C17.0897 14.3431 17.0287 15.2596 17.0167 16.2305C17.0112 16.6758 17.0158 17.1322 17.0334 17.6006C17.0851 17.5988 17.1368 17.6191 17.1692 17.6644ZM20.5995 4.15829L22.3835 9.31073C22.8196 7.76509 23.3379 6.22777 23.9559 4.74588L23.2307 1.29614C22.3077 1.99828 21.3257 2.97481 20.5367 4.08069C20.5644 4.10009 20.5875 4.12504 20.5995 4.15829ZM24.1749 4.23128C24.792 2.81683 25.5025 1.45966 26.322 0.204119C25.945 0.116351 25.5394 0.117275 25.132 0.233683C24.6766 0.363949 24.1074 0.666979 23.5023 1.0975C23.5143 1.11506 23.5245 1.13538 23.53 1.15756L24.1749 4.23128ZM25.6512 15.2106C26.0513 13.8996 26.4716 12.548 26.8504 11.1649L21.5095 14.6784C21.2943 15.909 21.1196 17.1267 20.9774 18.3093L25.5154 15.2291C25.557 15.2013 25.606 15.1977 25.6512 15.2106ZM27.8667 6.49385C28.0265 5.40645 28.1235 4.30519 28.1318 3.19377L24.2488 4.8706C23.6289 6.35804 23.1069 7.91291 22.6681 9.49181L27.7632 6.51232C27.7955 6.49292 27.8325 6.48923 27.8667 6.49385ZM28.1328 2.84547C28.1318 2.69488 28.1281 2.54429 28.1235 2.39277C28.093 1.40608 27.4676 0.620785 26.6324 0.299278C26.6287 0.310364 26.6259 0.322374 26.6195 0.332537C25.7834 1.60748 25.06 2.99144 24.4308 4.44285L28.1328 2.84547ZM20.6171 22.1673L24.3412 19.1149C24.3846 19.0788 24.44 19.0724 24.4899 19.0881C24.7209 18.337 24.9343 17.6256 25.1209 16.9826C25.2521 16.528 25.3907 16.0689 25.5311 15.6051L20.9293 18.7287C20.7944 19.9196 20.6928 21.0716 20.6171 22.1673ZM18.4256 8.57718L21.2758 14.1093C21.5335 12.7152 21.8495 11.285 22.2338 9.85674L20.3344 4.37356C20.2041 4.56942 20.0794 4.76805 19.9639 4.96946C19.4105 5.92936 18.8331 7.10083 18.336 8.5005C18.3739 8.51343 18.4062 8.5393 18.4256 8.57718ZM20.6549 18.1947C20.7926 17.0556 20.9663 15.8582 21.1825 14.6267L18.2113 8.86173C17.7992 10.0923 17.4546 11.4929 17.2421 13.0755C17.2874 13.0811 17.329 13.1042 17.3558 13.1448L20.6549 18.1947ZM26.9557 10.7788C27.2976 9.49551 27.5988 8.18453 27.8113 6.85416L22.547 9.9325C22.1636 11.3645 21.8477 12.8113 21.5871 14.2442L26.8255 10.7982C26.8661 10.7723 26.9123 10.7677 26.9557 10.7788ZM3.60671 19.6673C3.60117 19.6544 3.59932 19.6406 3.59747 19.6276C2.4491 19.8327 1.38295 20.3621 0.751019 21.2093L5.51173 23.7019L3.60671 19.6673ZM10.2567 26.1843L8.21314 20.5099C8.19928 20.4702 8.20205 20.4295 8.21684 20.3935C7.45094 20.0683 6.66658 19.8115 5.86927 19.6479C5.24658 19.5195 4.57585 19.4983 3.91898 19.5796L5.98291 23.9477L10.2567 26.1843ZM10.3168 30.1016L14.3911 28.7084L10.2983 26.5678L4.52319 28.4996C6.38941 29.2183 8.34248 29.7801 10.2152 30.2171C10.2272 30.1653 10.2623 30.121 10.3168 30.1016ZM0.583798 21.4828C0.579178 21.4809 0.576407 21.4772 0.572711 21.4744C0.403642 21.7608 0.278919 22.0777 0.213325 22.426C0.0608853 23.2307 0.112622 24.2377 0.493258 25.2032C0.500649 25.1995 0.507116 25.1949 0.515431 25.193L5.41011 24.0086L0.583798 21.4828ZM9.90567 26.3617L4.23956 28.2575C4.19244 28.2732 4.16011 28.3083 4.14348 28.3499C3.82752 28.2243 3.51247 28.0931 3.20298 27.9573C1.89477 27.3835 1.07899 26.4754 0.619829 25.4961L5.83971 24.2341L9.90567 26.3617Z" fill="#BBCB97"/>
</g>
<mask id="mask2_443_1988" style="mask-type:luminance" maskUnits="userSpaceOnUse" x="4" y="55" width="31" height="25">
<path d="M4.9436 55.6984H34.6027V79.9076H4.9436V55.6984Z" fill="white"/>
</mask>
<g mask="url(#mask2_443_1988)">
<path d="M4.99536 55.9303C4.99536 55.8416 5.06742 55.7705 5.15612 55.7705H34.4133C34.502 55.7705 34.5741 55.8416 34.5741 55.9303C34.5741 56.0181 34.502 56.0902 34.4133 56.0902H5.15612C5.06742 56.0902 4.99536 56.0181 4.99536 55.9303ZM30.6042 69.3949H20.0258V58.4451H27.2976L30.6042 69.3949ZM19.7053 69.3949H9.12784L12.4335 58.4451H19.7053V69.3949ZM34.4133 58.1255H5.15612C5.06742 58.1255 4.99536 58.1966 4.99536 58.2853C4.99536 58.3731 5.06742 58.4451 5.15612 58.4451H12.099L5.67903 79.7099C5.65316 79.794 5.7012 79.8836 5.7862 79.9095C5.8019 79.9141 5.81761 79.9159 5.83239 79.9159C5.90168 79.9159 5.96543 79.8716 5.98575 79.8023L9.03176 69.7145H19.7053V79.7561C19.7053 79.8448 19.7773 79.9159 19.866 79.9159C19.9547 79.9159 20.0258 79.8448 20.0258 79.7561V69.7145H30.7003L33.7463 79.8023C33.7666 79.8716 33.8304 79.9159 33.8996 79.9159C33.9144 79.9159 33.9301 79.9141 33.9458 79.9095C34.0299 79.8836 34.0789 79.794 34.053 79.7099L27.6321 58.4451H34.4133C34.502 58.4451 34.5741 58.3731 34.5741 58.2853C34.5741 58.1966 34.502 58.1255 34.4133 58.1255Z" fill="#698A50"/>
</g>
</g>
<defs>
<clipPath id="clip0_443_1988">
<rect width="40.6661" height="80" fill="white"/>
</clipPath>
</defs>
</svg>
