<svg width="18" height="16" viewBox="0 0 18 16" fill="none" xmlns="http://www.w3.org/2000/svg">
<path d="M4.36656 15.3399H1.47659C1.02245 15.3399 0.650879 14.9683 0.650879 14.5142V6.25712C0.650879 5.80298 1.02245 5.43141 1.47659 5.43141H4.36656C4.8207 5.43141 5.19226 5.80298 5.19226 6.25712V14.5142C5.19226 14.9683 4.8207 15.3399 4.36656 15.3399ZM10.3529 0.477173H7.46296C7.00882 0.477173 6.63725 0.848741 6.63725 1.30288V14.5142C6.63725 14.9683 7.00882 15.3399 7.46296 15.3399H10.3529C10.8071 15.3399 11.1786 14.9683 11.1786 14.5142V1.30288C11.1786 0.848741 10.8071 0.477173 10.3529 0.477173ZM16.3393 7.08282H13.4493C12.9952 7.08282 12.6236 7.45439 12.6236 7.90853V14.5142C12.6236 14.9683 12.9952 15.3399 13.4493 15.3399H16.3393C16.7934 15.3399 17.165 14.9683 17.165 14.5142V7.90853C17.165 7.45439 16.7934 7.08282 16.3393 7.08282Z" fill="url(#paint0_linear_748_755)"/>
<defs>
<linearGradient id="paint0_linear_748_755" x1="8.90794" y1="0.477173" x2="8.90794" y2="15.3399" gradientUnits="userSpaceOnUse">
<stop stop-color="#967CFD"/>
<stop offset="1" stop-color="#3177FF"/>
</linearGradient>
</defs>
</svg>
