<svg width="33" height="33" viewBox="0 0 33 33" fill="none" xmlns="http://www.w3.org/2000/svg">
<path d="M4.11626 23.6423C3.33968 24.0639 2.36021 23.7786 2.0182 22.9638C1.15375 20.9044 0.727723 18.6809 0.77475 16.4361C0.832979 13.6566 1.61447 10.9401 3.04222 8.55456C4.46996 6.16898 6.49467 4.19661 8.9168 2.83181C11.3389 1.46701 14.0749 0.7569 16.855 0.77146C19.6352 0.786019 22.3635 1.52475 24.7712 2.91484C27.179 4.30493 29.1829 6.29841 30.5856 8.6988C31.9882 11.0992 32.7412 13.8237 32.7704 16.6037C32.7939 18.8489 32.3446 21.0677 31.4586 23.118C31.1081 23.9292 30.1257 24.2042 29.3536 23.7745V23.7745C28.5814 23.3447 28.3143 22.373 28.6444 21.5533C29.2715 19.9963 29.5882 18.3261 29.5705 16.6372C29.5472 14.4132 28.9448 12.2336 27.8227 10.3133C26.7006 8.39297 25.0974 6.79819 23.1712 5.68612C21.2451 4.57405 19.0624 3.98306 16.8383 3.97142C14.6142 3.95977 12.4254 4.52786 10.4877 5.61969C8.54998 6.71153 6.93021 8.28944 5.78802 10.1979C4.64583 12.1064 4.02063 14.2795 3.97405 16.5032C3.93867 18.1917 4.23789 19.8652 4.84865 21.4287C5.17019 22.2518 4.89283 23.2207 4.11626 23.6423V23.6423Z" fill="#E4E4E4"/>
<path d="M4.11626 23.6423C3.33968 24.0639 2.36018 23.7786 2.01815 22.9638C0.595629 19.5751 0.377104 15.7819 1.43014 12.227C2.63535 8.15825 5.4075 4.73495 9.13673 2.71015C12.866 0.685352 17.2468 0.224917 21.3155 1.43013C24.8705 2.48316 27.9327 4.73239 29.9999 7.77103C30.497 8.50165 30.2028 9.47854 29.4262 9.90018V9.90018C28.6496 10.3218 27.686 10.0267 27.1709 9.30877C25.522 7.01074 23.1473 5.31019 20.4067 4.49836C17.1517 3.53418 13.647 3.90253 10.6636 5.52237C7.68025 7.14221 5.46253 9.88084 4.49836 13.1358C3.68652 15.8765 3.8194 18.7942 4.84861 21.4287C5.17015 22.2518 4.89283 23.2207 4.11626 23.6423V23.6423Z" fill="url(#paint0_linear_438_2429)"/>
<path d="M13.4317 17.0941L15.9005 14.6003L15.2482 13.9413C14.9001 13.5897 15.1442 12.9783 15.651 12.9783H18.1565C18.4687 12.9783 18.7219 13.2295 18.7136 13.5483V16.0811C18.7136 16.5803 18.1068 16.8348 17.7537 16.4782L17.1051 15.8229L14.0331 18.9206L14.0329 18.9207L13.8405 18.73C13.6128 18.96 13.2448 18.96 13.017 18.73L13.4317 17.0941ZM13.4317 17.0941L11.7028 15.3477C11.369 15.0105 10.828 15.0105 10.4942 15.3477L10.494 15.3478L6.99 18.8933L13.4317 17.0941ZM8.19876 20.1062L11.0958 17.1743L6.98985 18.8935C6.65771 19.2292 6.65776 19.7708 6.99 20.1064C7.3238 20.4436 7.86478 20.4436 8.19858 20.1064L8.19876 20.1062Z" fill="url(#paint1_linear_438_2429)" stroke="url(#paint2_linear_438_2429)" stroke-width="0.54187"/>
<defs>
<linearGradient id="paint0_linear_438_2429" x1="35.1712" y1="26.8817" x2="-2.42876" y2="26.8817" gradientUnits="userSpaceOnUse">
<stop stop-color="#6BD5BF"/>
<stop offset="0.159669" stop-color="#32D172"/>
<stop offset="0.268196" stop-color="#8ACD41"/>
<stop offset="0.658066" stop-color="#F3AF3D"/>
<stop offset="0.804268" stop-color="#FF7A00"/>
<stop offset="1" stop-color="#FF2E00"/>
</linearGradient>
<linearGradient id="paint1_linear_438_2429" x1="16.6711" y1="16.9538" x2="8.66924" y2="16.9538" gradientUnits="userSpaceOnUse">
<stop stop-color="#52D060"/>
<stop offset="0.395833" stop-color="#EDB13E"/>
<stop offset="1" stop-color="#FF7501"/>
</linearGradient>
<linearGradient id="paint2_linear_438_2429" x1="16.6711" y1="16.9538" x2="8.66924" y2="16.9538" gradientUnits="userSpaceOnUse">
<stop stop-color="#52D060"/>
<stop offset="0.395833" stop-color="#EDB13E"/>
<stop offset="1" stop-color="#FF7501"/>
</linearGradient>
</defs>
</svg>
