<svg width="52" height="46" viewBox="0 0 38 32" fill="none" xmlns="http://www.w3.org/2000/svg">
<path d="M5.05273 10.4C5.05273 8.15979 5.05273 7.03969 5.55755 6.18404C6.00159 5.43139 6.71013 4.81947 7.58162 4.43597C8.57237 4 9.86933 4 12.4633 4H25.4317C28.0256 4 29.3226 4 30.3133 4.43597C31.1848 4.81947 31.8934 5.43139 32.3374 6.18404C32.8422 7.03969 32.8422 8.15979 32.8422 10.4V21.6C32.8422 23.8402 32.8422 24.9603 32.3374 25.816C31.8934 26.5686 31.1848 27.1805 30.3133 27.564C29.3226 28 28.0256 28 25.4317 28H12.4633C9.86933 28 8.57237 28 7.58162 27.564C6.71013 27.1805 6.00159 26.5686 5.55755 25.816C5.05273 24.9603 5.05273 23.8402 5.05273 21.6V10.4Z" stroke="black" stroke-width="2" stroke-linecap="round" stroke-linejoin="round"/>
</svg>
